M48
; DRILL file {KiCad 7.0.5} date Fri Jun  9 18:05:39 2023
; FORMAT={-:-/ absolute / inch / decimal}
; #@! TF.CreationDate,2023-06-09T18:05:39+02:00
; #@! TF.GenerationSoftware,Kicad,Pcbnew,7.0.5
; #@! TF.FileFunction,NonPlated,1,2,NPTH
FMAT,2
INCH
; #@! TA.AperFunction,NonPlated,NPTH,ComponentDrill
T1C0.0669
; #@! TA.AperFunction,NonPlated,NPTH,ComponentDrill
T2C0.0670
; #@! TA.AperFunction,NonPlated,NPTH,ComponentDrill
T3C0.0866
; #@! TA.AperFunction,NonPlated,NPTH,ComponentDrill
T4C0.1201
; #@! TA.AperFunction,NonPlated,NPTH,ComponentDrill
T5C0.1570
; #@! TA.AperFunction,NonPlated,NPTH,ComponentDrill
T6C0.1575
%
G90
G05
T1
X-0.8654Y-5.5236
X-0.8634Y-4.777
X-0.6748Y-4.0278
X-0.5823Y-3.2758
X-0.4654Y-5.5236
X-0.4634Y-4.777
X-0.2748Y-4.0278
X-0.1823Y-3.2758
X0.0717Y-5.5236
X0.4717Y-5.5236
X1.0087Y-5.5239
X1.4087Y-5.5239
X1.9457Y-5.5236
X2.3457Y-5.5236
X3.0677Y-5.5236
X3.4677Y-5.5236
X8.5559Y-5.5354
X8.9559Y-5.5354
X9.6819Y-5.5354
X10.0819Y-5.5354
X10.6189Y-5.5354
X11.0189Y-5.5354
X11.5559Y-5.5354
X11.9559Y-5.5354
X12.4969Y-5.5354
X12.6858Y-4.7827
X12.8969Y-5.5354
X13.0858Y-4.7827
X13.2488Y-4.0307
X13.6488Y-4.0307
X13.7134Y-3.2835
X14.1134Y-3.2835
X14.6504Y-2.5346
X15.0504Y-2.5346
T2
X-0.3949Y-2.5276
X0.0051Y-2.5276
X0.3551Y-2.5276
X0.3551Y-3.2776
X0.3551Y-4.0276
X0.3551Y-4.7776
X0.7551Y-2.5276
X0.7551Y-3.2776
X0.7551Y-4.0276
X0.7551Y-4.7776
X1.1051Y-2.5276
X1.1051Y-3.2776
X1.1051Y-4.0276
X1.1051Y-4.7776
X1.5051Y-2.5276
X1.5051Y-3.2776
X1.5051Y-4.0276
X1.5051Y-4.7776
X1.8551Y-2.5276
X1.8551Y-3.2776
X1.8551Y-4.0276
X1.8551Y-4.7776
X2.2551Y-2.5276
X2.2551Y-3.2776
X2.2551Y-4.0276
X2.2551Y-4.7776
X2.6051Y-2.5276
X2.6051Y-3.2776
X2.6051Y-4.0276
X2.6051Y-4.7776
X3.0051Y-2.5276
X3.0051Y-3.2776
X3.0051Y-4.0276
X3.0051Y-4.7776
X3.3551Y-2.5276
X3.3551Y-3.2776
X3.3551Y-4.0276
X3.3551Y-4.7776
X3.7551Y-2.5276
X3.7551Y-3.2776
X3.7551Y-4.0276
X3.7551Y-4.7776
X8.2724Y-2.5335
X8.2724Y-3.2835
X8.2724Y-4.0335
X8.2724Y-4.7835
X8.6724Y-2.5335
X8.6724Y-3.2835
X8.6724Y-4.0335
X8.6724Y-4.7835
X9.0244Y-2.5335
X9.0244Y-3.2835
X9.0244Y-4.0335
X9.0244Y-4.7835
X9.4244Y-2.5335
X9.4244Y-3.2835
X9.4244Y-4.0335
X9.4244Y-4.7835
X9.7764Y-2.5332
X9.7764Y-3.2832
X9.7764Y-4.0332
X9.7764Y-4.7832
X10.1764Y-2.5332
X10.1764Y-3.2832
X10.1764Y-4.0332
X10.1764Y-4.7832
X10.5283Y-2.5332
X10.5283Y-3.2832
X10.5283Y-4.0332
X10.5283Y-4.7832
X10.9283Y-2.5332
X10.9283Y-3.2832
X10.9283Y-4.0332
X10.9283Y-4.7832
X11.2783Y-2.5332
X11.2783Y-3.2832
X11.2783Y-4.0332
X11.2783Y-4.7832
X11.6783Y-2.5332
X11.6783Y-3.2832
X11.6783Y-4.0332
X11.6783Y-4.7832
X12.0224Y-2.5332
X12.0283Y-3.2832
X12.0283Y-4.0332
X12.4224Y-2.5332
X12.4283Y-3.2832
X12.4283Y-4.0332
X12.7724Y-2.5332
X12.7724Y-3.2832
X13.1724Y-2.5332
X13.1724Y-3.2832
X13.3472Y-5.5354
X13.5224Y-2.5332
X13.7472Y-5.5354
X13.9224Y-2.5332
X14.0992Y-4.7835
X14.0992Y-5.5354
X14.4732Y-4.0315
X14.4992Y-4.7835
X14.4992Y-5.5354
X14.6543Y-3.2835
X14.8512Y-4.7835
X14.8512Y-5.5354
X14.8732Y-4.0315
X15.0543Y-3.2835
X15.2512Y-4.7835
X15.2512Y-5.5354
T3
X0.185Y-2.8937
X0.185Y-5.15
X1.68Y-2.9
X1.685Y-5.1654
X5.0625Y-2.3438
X5.0625Y-5.6953
X6.9375Y-2.3438
X6.9375Y-5.6953
X9.6Y-2.9075
X10.3543Y-5.1555
X12.5965Y-2.9075
X13.9213Y-5.1575
T4
X-1.1319Y-4.5014
X-0.1949Y-4.5014
X12.4173Y-4.5071
X12.9803Y-3.7551
X13.3543Y-4.5071
X13.9173Y-3.7551
X14.3819Y-2.2591
X15.3189Y-2.2591
T5
X-0.1949Y-2.5276
X0.5551Y-2.5276
X0.5551Y-3.2776
X0.5551Y-4.0276
X0.5551Y-4.7776
X1.3051Y-2.5276
X1.3051Y-3.2776
X1.3051Y-4.0276
X1.3051Y-4.7776
X2.0551Y-2.5276
X2.0551Y-3.2776
X2.0551Y-4.0276
X2.0551Y-4.7776
X2.8051Y-2.5276
X2.8051Y-3.2776
X2.8051Y-4.0276
X2.8051Y-4.7776
X3.5551Y-2.5276
X3.5551Y-3.2776
X3.5551Y-4.0276
X3.5551Y-4.7776
X8.4724Y-2.5335
X8.4724Y-3.2835
X8.4724Y-4.0335
X8.4724Y-4.7835
X9.2244Y-2.5335
X9.2244Y-3.2835
X9.2244Y-4.0335
X9.2244Y-4.7835
X9.9764Y-2.5332
X9.9764Y-3.2832
X9.9764Y-4.0332
X9.9764Y-4.7832
X10.7283Y-2.5332
X10.7283Y-3.2832
X10.7283Y-4.0332
X10.7283Y-4.7832
X11.4783Y-2.5332
X11.4783Y-3.2832
X11.4783Y-4.0332
X11.4783Y-4.7832
X12.2224Y-2.5332
X12.2283Y-3.2832
X12.2283Y-4.0332
X12.9724Y-2.5332
X12.9724Y-3.2832
X13.5472Y-5.5354
X13.7224Y-2.5332
X14.2992Y-4.7835
X14.2992Y-5.5354
X14.6732Y-4.0315
X14.8543Y-3.2835
X15.0512Y-4.7835
X15.0512Y-5.5354
T6
X-1.1319Y-5.1014
X-0.6654Y-5.5236
X-0.6634Y-4.777
X-0.4748Y-4.0278
X-0.3823Y-3.2758
X-0.1949Y-5.1014
X0.2717Y-5.5236
X1.2087Y-5.5239
X2.1457Y-5.5236
X3.2677Y-5.5236
X8.7559Y-5.5354
X9.8819Y-5.5354
X10.8189Y-5.5354
X11.7559Y-5.5354
X12.4173Y-5.1071
X12.6969Y-5.5354
X12.8858Y-4.7827
X12.9803Y-4.3551
X13.3543Y-5.1071
X13.4488Y-4.0307
X13.9134Y-3.2835
X13.9173Y-4.3551
X14.3819Y-2.8591
X14.8504Y-2.5346
X15.3189Y-2.8591
T3
G00X5.4375Y-4.0706
M15
G01X5.4375Y-3.9919
M16
G05
T0
M30
