M48
; DRILL file {KiCad 7.0.5} date Fri Jun  9 18:05:39 2023
; FORMAT={-:-/ absolute / inch / decimal}
; #@! TF.CreationDate,2023-06-09T18:05:39+02:00
; #@! TF.GenerationSoftware,Kicad,Pcbnew,7.0.5
; #@! TF.FileFunction,Plated,1,2,PTH
FMAT,2
INCH
; #@! TA.AperFunction,Plated,PTH,ViaDrill
T1C0.0157
; #@! TA.AperFunction,Plated,PTH,ComponentDrill
T2C0.0236
; #@! TA.AperFunction,Plated,PTH,ComponentDrill
T3C0.0276
; #@! TA.AperFunction,Plated,PTH,ComponentDrill
T4C0.0280
; #@! TA.AperFunction,Plated,PTH,ComponentDrill
T5C0.0315
; #@! TA.AperFunction,Plated,PTH,ComponentDrill
T6C0.0354
; #@! TA.AperFunction,Plated,PTH,ComponentDrill
T7C0.0394
; #@! TA.AperFunction,Plated,PTH,ComponentDrill
T8C0.0433
; #@! TA.AperFunction,Plated,PTH,ComponentDrill
T9C0.0590
; #@! TA.AperFunction,Plated,PTH,ComponentDrill
T10C0.0591
; #@! TA.AperFunction,Plated,PTH,ComponentDrill
T11C0.0630
%
G90
G05
T1
X7.3819Y-3.8504
X13.39Y-4.395
T2
X5.3909Y-4.95
X5.45Y-4.95
T3
X-0.913Y-2.5178
X-0.8815Y-2.4489
X-0.85Y-2.5178
X-0.8185Y-2.4489
X-0.787Y-2.5178
X5.55Y-5.6
X5.55Y-5.75
X5.6063Y-2.2969
X5.85Y-5.6
X5.85Y-5.75
X5.9063Y-2.2969
X6.0938Y-2.2969
X6.15Y-5.6
X6.15Y-5.75
X6.3938Y-2.2969
X6.45Y-5.6
X6.45Y-5.75
T4
X5.3764Y-4.6004
X5.4236Y-4.3996
T5
X4.0551Y-2.6772
X4.0551Y-3.0104
X4.0551Y-3.3436
X4.0551Y-3.6768
X4.0551Y-4.01
X4.0551Y-4.3433
X4.0551Y-4.6765
X4.0551Y-5.0097
X4.0551Y-5.3429
X4.1732Y-2.8346
X4.1732Y-3.1679
X4.1732Y-3.5011
X4.1732Y-3.8343
X4.1732Y-4.1675
X4.1732Y-4.5007
X4.1732Y-4.834
X4.1732Y-5.1672
X4.3551Y-2.6772
X4.3551Y-3.0104
X4.3551Y-3.3436
X4.3551Y-3.6768
X4.3551Y-4.01
X4.3551Y-4.3433
X4.3551Y-4.6765
X4.3551Y-5.0097
X4.3551Y-5.3429
X4.4732Y-2.8346
X4.4732Y-3.1679
X4.4732Y-3.5011
X4.4732Y-3.8343
X4.4732Y-4.1675
X4.4732Y-4.5007
X4.4732Y-4.834
X4.4732Y-5.1672
X4.685Y-3.0118
X4.685Y-3.3465
X4.685Y-3.6811
X4.685Y-4.0157
X4.685Y-4.3504
X4.685Y-4.685
X4.685Y-5.0104
X4.685Y-5.3451
X4.6925Y-2.6772
X4.8031Y-2.8445
X4.8031Y-3.1791
X4.8031Y-3.5138
X4.8031Y-3.8484
X4.8031Y-4.1831
X4.8031Y-4.5177
X4.8031Y-4.8431
X4.8031Y-5.1777
X4.985Y-3.0118
X4.985Y-3.3465
X4.985Y-3.6811
X4.985Y-4.0157
X4.985Y-4.3504
X4.985Y-4.685
X4.985Y-5.0104
X4.985Y-5.3451
X4.9925Y-2.6772
X5.1031Y-2.8445
X5.1031Y-3.1791
X5.1031Y-3.5138
X5.1031Y-3.8484
X5.1031Y-4.1831
X5.1031Y-4.5177
X5.1031Y-4.8431
X5.1031Y-5.1777
X5.45Y-3.4516
X5.45Y-3.55
X5.45Y-3.7016
X5.45Y-3.8
X5.5193Y-5.1777
X5.5193Y-5.3514
X5.65Y-4.8828
X5.6516Y-5.0
X5.75Y-3.55
X5.75Y-3.7421
X5.8193Y-5.1777
X5.8193Y-5.3514
X5.8469Y-4.8828
X5.8484Y-5.0
X6.0285Y-2.7411
X6.0285Y-2.8411
X6.0285Y-2.9411
X6.0285Y-3.0411
X6.0285Y-3.1411
X6.0285Y-3.2411
X6.0285Y-3.3411
X6.0285Y-3.4411
X6.0285Y-3.5411
X6.0285Y-3.6411
X6.0285Y-3.7411
X6.0285Y-3.8411
X6.0285Y-3.9411
X6.0285Y-4.0411
X6.0285Y-4.1411
X6.0285Y-4.2411
X6.0285Y-4.3411
X6.0285Y-4.4411
X6.0285Y-4.5411
X6.0285Y-4.6411
X6.1886Y-5.0041
X6.1886Y-5.1777
X6.1886Y-5.3514
X6.4886Y-5.0041
X6.4886Y-5.1777
X6.4886Y-5.3514
X6.6285Y-2.7411
X6.6285Y-2.8411
X6.6285Y-2.9411
X6.6285Y-3.0411
X6.6285Y-3.1411
X6.6285Y-3.2411
X6.6285Y-3.3411
X6.6285Y-3.4411
X6.6285Y-3.5411
X6.6285Y-3.6411
X6.6285Y-3.7411
X6.6285Y-3.8411
X6.6285Y-3.9411
X6.6285Y-4.0411
X6.6285Y-4.1411
X6.6285Y-4.2411
X6.6285Y-4.3411
X6.6285Y-4.4411
X6.6285Y-4.5411
X6.6285Y-4.6411
X6.8185Y-2.8439
X6.8185Y-3.1774
X6.8185Y-3.5109
X6.8185Y-3.8444
X6.8185Y-4.1779
X6.8185Y-4.5113
X6.8185Y-4.8448
X6.8185Y-5.1783
X6.976Y-2.6772
X6.976Y-3.0107
X6.976Y-3.3441
X6.976Y-3.6776
X6.976Y-4.0111
X6.976Y-4.3446
X6.976Y-4.6781
X6.976Y-5.0116
X6.976Y-5.3451
X7.1185Y-2.8439
X7.1185Y-3.1774
X7.1185Y-3.5109
X7.1185Y-3.8444
X7.1185Y-4.1779
X7.1185Y-4.5113
X7.1185Y-4.8448
X7.1185Y-5.1783
X7.276Y-2.6772
X7.276Y-3.0107
X7.276Y-3.3441
X7.276Y-3.6776
X7.276Y-4.0111
X7.276Y-4.3446
X7.276Y-4.6781
X7.276Y-5.0116
X7.276Y-5.3451
X7.4484Y-2.8445
X7.4484Y-3.1791
X7.4484Y-3.5138
X7.4484Y-3.8484
X7.4484Y-4.1831
X7.4484Y-4.5177
X7.4484Y-4.8524
X7.4484Y-5.187
X7.5665Y-2.6772
X7.5665Y-3.0118
X7.5665Y-3.3465
X7.5665Y-3.6811
X7.5665Y-4.0157
X7.5665Y-4.3504
X7.5665Y-4.685
X7.5665Y-5.0197
X7.5665Y-5.3543
X7.7484Y-2.8445
X7.7484Y-3.1791
X7.7484Y-3.5138
X7.7484Y-3.8484
X7.7484Y-4.1831
X7.7484Y-4.5177
X7.7484Y-4.8524
X7.7484Y-5.187
X7.8665Y-2.6772
X7.8665Y-3.0118
X7.8665Y-3.3465
X7.8665Y-3.6811
X7.8665Y-4.0157
X7.8665Y-4.3504
X7.8665Y-4.685
X7.8665Y-5.0197
X7.8665Y-5.3543
T6
X5.7Y-2.55
X5.8Y-2.55
X6.2Y-2.55
X6.3Y-2.55
T7
X5.6506Y-3.1502
X5.6506Y-3.2502
X5.7506Y-3.1502
X5.7506Y-3.2502
X5.8506Y-3.1502
X5.8506Y-3.2502
T8
X5.6614Y-2.722
X5.6614Y-2.978
X5.6614Y-3.972
X5.6614Y-4.228
X5.8386Y-2.722
X5.8386Y-2.978
X5.8386Y-3.972
X5.8386Y-4.228
T9
X-0.3449Y-2.4276
X-0.0949Y-2.3276
X0.4051Y-2.4276
X0.4051Y-3.1776
X0.4051Y-3.9276
X0.4051Y-4.6776
X0.4551Y-3.4776
X0.6551Y-2.3276
X0.6551Y-3.0776
X0.6551Y-3.8276
X0.6551Y-4.5776
X0.7051Y-3.3776
X1.1551Y-2.4276
X1.1551Y-3.1776
X1.1551Y-3.9276
X1.1551Y-4.6776
X1.4051Y-2.3276
X1.4051Y-3.0776
X1.4051Y-3.8276
X1.4051Y-4.5776
X1.9051Y-2.4276
X1.9051Y-3.1776
X1.9051Y-3.9276
X1.9051Y-4.6776
X2.1551Y-2.3276
X2.1551Y-3.0776
X2.1551Y-3.8276
X2.1551Y-4.5776
X2.6551Y-2.4276
X2.6551Y-3.1776
X2.6551Y-3.9276
X2.6551Y-4.6776
X2.9051Y-2.3276
X2.9051Y-3.0776
X2.9051Y-3.8276
X2.9051Y-4.5776
X3.4051Y-2.4276
X3.4051Y-3.1776
X3.4051Y-3.9276
X3.4051Y-4.6776
X3.6551Y-2.3276
X3.6551Y-3.0776
X3.6551Y-3.8276
X3.6551Y-4.5776
X8.3224Y-2.4335
X8.3224Y-3.1835
X8.3224Y-3.9335
X8.3224Y-4.6835
X8.5724Y-2.3335
X8.5724Y-3.0835
X8.5724Y-3.8335
X8.5724Y-4.5835
X9.0744Y-2.4335
X9.0744Y-3.1835
X9.0744Y-3.9335
X9.0744Y-4.6835
X9.3244Y-2.3335
X9.3244Y-3.0835
X9.3244Y-3.8335
X9.3244Y-4.5835
X9.8264Y-2.4332
X9.8264Y-3.1832
X9.8264Y-3.9332
X9.8264Y-4.6832
X10.0764Y-2.3332
X10.0764Y-3.0832
X10.0764Y-3.8332
X10.0764Y-4.5832
X10.5783Y-2.4332
X10.5783Y-3.1832
X10.5783Y-3.9332
X10.5783Y-4.6832
X10.8283Y-2.3332
X10.8283Y-3.0832
X10.8283Y-3.8332
X10.8283Y-4.5832
X11.3283Y-2.4332
X11.3283Y-3.1832
X11.3283Y-3.9332
X11.3283Y-4.6832
X11.5783Y-2.3332
X11.5783Y-3.0832
X11.5783Y-3.8332
X11.5783Y-4.5832
X12.0724Y-2.4332
X12.0783Y-3.1832
X12.0783Y-3.9332
X12.3224Y-2.3332
X12.3283Y-3.0832
X12.3283Y-3.8332
X12.8224Y-2.4332
X12.8224Y-3.1832
X13.0724Y-2.3332
X13.0724Y-3.0832
X13.3972Y-5.4354
X13.5724Y-2.4332
X13.6472Y-5.3354
X13.8224Y-2.3332
X14.1492Y-4.6835
X14.1492Y-5.4354
X14.3992Y-4.5835
X14.3992Y-5.3354
X14.5232Y-3.9315
X14.7043Y-3.1835
X14.7732Y-3.8315
X14.9012Y-4.6835
X14.9012Y-5.4354
X14.9543Y-3.0835
X15.1512Y-4.5835
X15.1512Y-5.3354
T10
X-0.8154Y-5.4236
X-0.8134Y-4.677
X-0.6248Y-3.9278
X-0.5654Y-5.3236
X-0.5634Y-4.577
X-0.5323Y-3.1758
X-0.3748Y-3.8278
X-0.2823Y-3.0758
X0.1217Y-5.4236
X0.3717Y-5.3236
X1.0587Y-5.4239
X1.3087Y-5.3239
X1.9957Y-5.4236
X2.2457Y-5.3236
X3.1177Y-5.4236
X3.3677Y-5.3236
X8.6059Y-5.4354
X8.8559Y-5.3354
X9.7319Y-5.4354
X9.9819Y-5.3354
X10.6689Y-5.4354
X10.9189Y-5.3354
X11.6059Y-5.4354
X11.8559Y-5.3354
X12.5469Y-5.4354
X12.7358Y-4.6827
X12.7969Y-5.3354
X12.9858Y-4.5827
X13.2988Y-3.9307
X13.5488Y-3.8307
X13.7634Y-3.1835
X14.0134Y-3.0835
X14.7004Y-2.4346
X14.9504Y-2.3346
T11
X-1.0035Y-2.2639
X-1.0035Y-2.4489
X-0.6965Y-2.2639
X-0.6965Y-2.4489
T0
M30
