M48
; DRILL file {KiCad 7.0.5} date Sun Aug  6 16:41:51 2023
; FORMAT={-:-/ absolute / metric / decimal}
; #@! TF.CreationDate,2023-08-06T16:41:51+02:00
; #@! TF.GenerationSoftware,Kicad,Pcbnew,7.0.5
; #@! TF.FileFunction,Plated,1,2,PTH
FMAT,2
METRIC
; #@! TA.AperFunction,Plated,PTH,ViaDrill
T1C0.400
; #@! TA.AperFunction,Plated,PTH,ComponentDrill
T2C0.800
; #@! TA.AperFunction,Plated,PTH,ComponentDrill
T3C1.100
; #@! TA.AperFunction,Plated,PTH,ComponentDrill
T4C1.500
%
G90
G05
T1
X155.068Y-56.247
T2
X16.624Y-91.459
X16.624Y-99.079
X16.624Y-110.509
X16.624Y-118.129
X21.387Y-72.409
X21.387Y-80.029
X23.768Y-53.359
X23.768Y-60.979
X28.53Y-34.309
X28.53Y-41.929
X40.437Y-110.509
X40.437Y-118.129
X47.581Y-34.309
X47.581Y-41.929
X47.581Y-53.359
X47.581Y-60.979
X47.581Y-72.409
X47.581Y-80.029
X47.581Y-91.459
X47.581Y-99.079
X64.249Y-110.509
X64.249Y-118.129
X66.63Y-34.309
X66.63Y-41.929
X66.63Y-53.359
X66.63Y-60.979
X66.63Y-72.409
X66.63Y-80.029
X66.63Y-91.459
X66.63Y-99.079
X85.68Y-34.309
X85.68Y-41.929
X85.68Y-53.359
X85.68Y-60.979
X85.68Y-72.409
X85.68Y-80.029
X85.68Y-91.459
X85.68Y-99.079
X88.062Y-110.509
X88.062Y-118.129
X104.73Y-34.309
X104.73Y-41.929
X104.73Y-53.359
X104.73Y-60.979
X104.73Y-72.409
X104.73Y-80.029
X104.73Y-91.459
X104.73Y-99.079
X116.637Y-110.509
X116.637Y-118.129
X123.78Y-34.309
X123.78Y-41.929
X123.78Y-53.359
X123.78Y-60.979
X123.78Y-72.409
X123.78Y-80.029
X123.78Y-91.459
X123.78Y-99.079
X147.637Y-113.79
X147.637Y-121.41
X157.162Y-113.79
X157.162Y-121.41
X199.98Y-34.309
X199.98Y-41.929
X199.98Y-53.359
X199.98Y-60.979
X199.98Y-72.409
X199.98Y-80.029
X199.98Y-91.459
X199.98Y-99.079
X207.124Y-110.509
X207.124Y-118.129
X219.03Y-34.309
X219.03Y-41.929
X219.03Y-53.359
X219.03Y-60.979
X219.03Y-72.409
X219.03Y-80.029
X219.03Y-91.459
X219.03Y-99.079
X235.699Y-110.509
X235.699Y-118.129
X238.081Y-34.309
X238.081Y-41.929
X238.081Y-53.359
X238.081Y-60.979
X238.081Y-72.409
X238.081Y-80.029
X238.081Y-91.459
X238.081Y-99.079
X257.13Y-34.309
X257.13Y-41.929
X257.13Y-53.359
X257.13Y-60.979
X257.13Y-72.409
X257.13Y-80.029
X257.13Y-91.459
X257.13Y-99.079
X259.512Y-110.509
X259.512Y-118.129
X276.18Y-34.309
X276.18Y-41.929
X276.18Y-53.359
X276.18Y-60.979
X276.18Y-72.409
X276.18Y-80.029
X276.18Y-91.459
X276.18Y-99.079
X280.943Y-110.509
X280.943Y-118.129
X295.231Y-34.309
X295.231Y-41.929
X295.231Y-53.359
X295.231Y-60.979
X295.231Y-72.409
X295.231Y-80.029
X299.993Y-110.509
X299.993Y-118.129
X311.899Y-91.459
X311.899Y-99.079
X314.28Y-34.309
X314.28Y-41.929
X314.28Y-53.359
X314.28Y-60.979
X319.043Y-110.509
X319.043Y-118.129
X319.19Y-104.75
X326.187Y-72.409
X326.187Y-80.029
X326.81Y-104.75
X333.33Y-34.309
X333.33Y-41.929
X333.44Y-47.75
X338.093Y-53.359
X338.093Y-60.979
X341.06Y-47.75
T3
X144.78Y-29.865
X144.78Y-32.405
X144.78Y-34.945
X144.78Y-37.485
X144.78Y-40.025
X144.78Y-42.565
X144.78Y-45.105
X144.78Y-47.645
X144.78Y-50.185
X144.78Y-52.725
X144.78Y-55.265
X144.78Y-57.805
X147.32Y-40.025
X147.32Y-57.805
X149.86Y-57.805
X152.4Y-57.805
X154.94Y-57.805
X157.48Y-40.025
X157.48Y-57.805
X160.02Y-29.865
X160.02Y-32.405
X160.02Y-34.945
X160.02Y-37.485
X160.02Y-40.025
X160.02Y-42.565
X160.02Y-45.105
X160.02Y-47.645
X160.02Y-50.185
X160.02Y-52.725
X160.02Y-55.265
X160.02Y-57.805
T4
X3.334Y-92.71
X3.334Y-111.76
X8.096Y-73.66
X9.684Y-90.17
X9.684Y-109.22
X10.477Y-54.61
X14.446Y-71.12
X15.24Y-35.56
X16.828Y-52.07
X21.59Y-33.02
X27.146Y-111.76
X33.496Y-109.22
X34.29Y-35.56
X34.29Y-54.61
X34.29Y-73.66
X34.29Y-92.71
X40.64Y-33.02
X40.64Y-52.07
X40.64Y-71.12
X40.64Y-90.17
X50.959Y-111.76
X53.34Y-35.56
X53.34Y-54.61
X53.34Y-73.66
X53.34Y-92.71
X57.309Y-109.22
X59.69Y-33.02
X59.69Y-52.07
X59.69Y-71.12
X59.69Y-90.17
X72.39Y-35.56
X72.39Y-54.61
X72.39Y-73.66
X72.39Y-92.71
X74.771Y-111.76
X78.74Y-33.02
X78.74Y-52.07
X78.74Y-71.12
X78.74Y-90.17
X81.121Y-109.22
X91.44Y-35.56
X91.44Y-54.61
X91.44Y-73.66
X91.44Y-92.71
X97.79Y-33.02
X97.79Y-52.07
X97.79Y-71.12
X97.79Y-90.17
X103.346Y-111.76
X109.696Y-109.22
X110.49Y-35.56
X110.49Y-54.61
X110.49Y-73.66
X110.49Y-92.71
X116.84Y-33.02
X116.84Y-52.07
X116.84Y-71.12
X116.84Y-90.17
X129.54Y-111.76
X135.89Y-109.22
X167.64Y-111.76
X173.99Y-109.22
X186.69Y-35.56
X186.69Y-54.61
X186.69Y-73.66
X186.69Y-92.71
X193.04Y-33.02
X193.04Y-52.07
X193.04Y-71.12
X193.04Y-90.17
X193.834Y-111.76
X200.184Y-109.22
X205.74Y-35.56
X205.74Y-54.61
X205.74Y-73.66
X205.74Y-92.71
X212.09Y-33.02
X212.09Y-52.07
X212.09Y-71.12
X212.09Y-90.17
X222.409Y-111.76
X224.79Y-35.56
X224.79Y-54.61
X224.79Y-73.66
X224.79Y-92.71
X228.759Y-109.22
X231.14Y-33.02
X231.14Y-52.07
X231.14Y-71.12
X231.14Y-90.17
X243.84Y-35.56
X243.84Y-54.61
X243.84Y-73.66
X243.84Y-92.71
X246.221Y-111.76
X250.19Y-33.02
X250.19Y-52.07
X250.19Y-71.12
X250.19Y-90.17
X252.571Y-109.22
X262.89Y-35.56
X262.89Y-54.61
X262.89Y-73.66
X262.89Y-92.71
X267.652Y-111.76
X269.24Y-33.02
X269.24Y-52.07
X269.24Y-71.12
X269.24Y-90.17
X274.002Y-109.22
X281.94Y-35.56
X281.94Y-54.61
X281.94Y-73.66
X286.702Y-111.76
X288.29Y-33.02
X288.29Y-52.07
X288.29Y-71.12
X293.053Y-109.22
X298.609Y-92.71
X300.99Y-35.56
X300.99Y-54.61
X304.959Y-90.17
X305.752Y-111.76
X307.34Y-33.02
X307.34Y-52.07
X312.102Y-109.22
X312.896Y-73.66
X319.246Y-71.12
X320.04Y-35.56
X324.803Y-54.61
X324.803Y-111.76
X326.39Y-33.02
X331.152Y-52.07
X331.152Y-109.22
X339.09Y-35.56
X345.44Y-33.02
T0
M30
