G04 #@! TF.GenerationSoftware,KiCad,Pcbnew,7.0.5*
G04 #@! TF.CreationDate,2023-08-06T16:41:53+02:00*
G04 #@! TF.ProjectId,lumberjack,6c756d62-6572-46a6-9163-6b2e6b696361,1.7*
G04 #@! TF.SameCoordinates,Original*
G04 #@! TF.FileFunction,Copper,L2,Bot*
G04 #@! TF.FilePolarity,Positive*
%FSLAX46Y46*%
G04 Gerber Fmt 4.6, Leading zero omitted, Abs format (unit mm)*
G04 Created by KiCad (PCBNEW 7.0.5) date 2023-08-06 16:41:53*
%MOMM*%
%LPD*%
G01*
G04 APERTURE LIST*
G04 Aperture macros list*
%AMRoundRect*
0 Rectangle with rounded corners*
0 $1 Rounding radius*
0 $2 $3 $4 $5 $6 $7 $8 $9 X,Y pos of 4 corners*
0 Add a 4 corners polygon primitive as box body*
4,1,4,$2,$3,$4,$5,$6,$7,$8,$9,$2,$3,0*
0 Add four circle primitives for the rounded corners*
1,1,$1+$1,$2,$3*
1,1,$1+$1,$4,$5*
1,1,$1+$1,$6,$7*
1,1,$1+$1,$8,$9*
0 Add four rect primitives between the rounded corners*
20,1,$1+$1,$2,$3,$4,$5,0*
20,1,$1+$1,$4,$5,$6,$7,0*
20,1,$1+$1,$6,$7,$8,$9,0*
20,1,$1+$1,$8,$9,$2,$3,0*%
G04 Aperture macros list end*
G04 #@! TA.AperFunction,ComponentPad*
%ADD10C,2.200000*%
G04 #@! TD*
G04 #@! TA.AperFunction,WasherPad*
%ADD11C,5.000000*%
G04 #@! TD*
G04 #@! TA.AperFunction,ComponentPad*
%ADD12R,1.600000X1.600000*%
G04 #@! TD*
G04 #@! TA.AperFunction,ComponentPad*
%ADD13O,1.600000X1.600000*%
G04 #@! TD*
G04 #@! TA.AperFunction,ComponentPad*
%ADD14C,1.600000*%
G04 #@! TD*
G04 #@! TA.AperFunction,SMDPad,CuDef*
%ADD15RoundRect,0.312500X-0.312500X-1.187500X0.312500X-1.187500X0.312500X1.187500X-0.312500X1.187500X0*%
G04 #@! TD*
G04 #@! TA.AperFunction,ViaPad*
%ADD16C,0.600000*%
G04 #@! TD*
G04 #@! TA.AperFunction,Conductor*
%ADD17C,0.250000*%
G04 #@! TD*
G04 APERTURE END LIST*
D10*
X269240000Y-90170000D03*
X262890000Y-92710000D03*
X331152500Y-52070000D03*
X324802500Y-54610000D03*
X193040000Y-52070000D03*
X186690000Y-54610000D03*
X81121250Y-109220000D03*
X74771250Y-111760000D03*
X116840000Y-71120000D03*
X110490000Y-73660000D03*
X250190000Y-71120000D03*
X243840000Y-73660000D03*
X193040000Y-90170000D03*
X186690000Y-92710000D03*
X319246250Y-71120000D03*
X312896250Y-73660000D03*
X59690000Y-33020000D03*
X53340000Y-35560000D03*
X331152500Y-109220000D03*
X324802500Y-111760000D03*
D11*
X133350000Y-38100000D03*
D10*
X250190000Y-33020000D03*
X243840000Y-35560000D03*
X228758750Y-109220000D03*
X222408750Y-111760000D03*
D12*
X157162500Y-121410000D03*
D13*
X157162500Y-113790000D03*
D10*
X269240000Y-52070000D03*
X262890000Y-54610000D03*
D14*
X152400000Y-57805000D03*
D12*
X144780000Y-29865000D03*
D14*
X144780000Y-32405000D03*
X144780000Y-34945000D03*
X144780000Y-37485000D03*
X144780000Y-40025000D03*
X144780000Y-42565000D03*
X144780000Y-45105000D03*
X144780000Y-47645000D03*
X144780000Y-50185000D03*
X144780000Y-52725000D03*
X144780000Y-55265000D03*
X144780000Y-57805000D03*
X147320000Y-57805000D03*
X149860000Y-57805000D03*
X154940000Y-57805000D03*
X157480000Y-57805000D03*
X160020000Y-57805000D03*
X160020000Y-55265000D03*
X160020000Y-52725000D03*
X160020000Y-50185000D03*
X160020000Y-47645000D03*
X160020000Y-45105000D03*
X160020000Y-42565000D03*
X160020000Y-40025000D03*
X160020000Y-37485000D03*
X160020000Y-34945000D03*
X160020000Y-32405000D03*
X160020000Y-29865000D03*
X147320000Y-40025000D03*
X157480000Y-40025000D03*
D10*
X307340000Y-33020000D03*
X300990000Y-35560000D03*
D11*
X66675000Y-104775000D03*
D10*
X57308750Y-109220000D03*
X50958750Y-111760000D03*
X116840000Y-90170000D03*
X110490000Y-92710000D03*
X59690000Y-90170000D03*
X53340000Y-92710000D03*
D11*
X257175000Y-104775000D03*
D10*
X212090000Y-52070000D03*
X205740000Y-54610000D03*
D11*
X342900000Y-114300000D03*
D10*
X304958750Y-90170000D03*
X298608750Y-92710000D03*
X78740000Y-90170000D03*
X72390000Y-92710000D03*
X78740000Y-52070000D03*
X72390000Y-54610000D03*
X212090000Y-90170000D03*
X205740000Y-92710000D03*
X307340000Y-52070000D03*
X300990000Y-54610000D03*
X231140000Y-33020000D03*
X224790000Y-35560000D03*
X269240000Y-33020000D03*
X262890000Y-35560000D03*
X78740000Y-71120000D03*
X72390000Y-73660000D03*
X288290000Y-33020000D03*
X281940000Y-35560000D03*
D11*
X171450000Y-38100000D03*
D10*
X59690000Y-71120000D03*
X53340000Y-73660000D03*
X9683750Y-90170000D03*
X3333750Y-92710000D03*
X173990000Y-109220000D03*
X167640000Y-111760000D03*
X97790000Y-90170000D03*
X91440000Y-92710000D03*
X193040000Y-71120000D03*
X186690000Y-73660000D03*
X116840000Y-33020000D03*
X110490000Y-35560000D03*
X326390000Y-33020000D03*
X320040000Y-35560000D03*
X33496250Y-109220000D03*
X27146250Y-111760000D03*
X40640000Y-71120000D03*
X34290000Y-73660000D03*
D11*
X-9525000Y-38100000D03*
D10*
X40640000Y-33020000D03*
X34290000Y-35560000D03*
X97790000Y-71120000D03*
X91440000Y-73660000D03*
X288290000Y-71120000D03*
X281940000Y-73660000D03*
X252571250Y-109220000D03*
X246221250Y-111760000D03*
X14446250Y-71120000D03*
X8096250Y-73660000D03*
X293052500Y-109220000D03*
X286702500Y-111760000D03*
X97790000Y-52070000D03*
X91440000Y-54610000D03*
X21590000Y-33020000D03*
X15240000Y-35560000D03*
D11*
X66675000Y-47625000D03*
D10*
X231140000Y-71120000D03*
X224790000Y-73660000D03*
D12*
X147637500Y-121410000D03*
D13*
X147637500Y-113790000D03*
D10*
X200183750Y-109220000D03*
X193833750Y-111760000D03*
D11*
X257175000Y-47625000D03*
D10*
X109696250Y-109220000D03*
X103346250Y-111760000D03*
X274002500Y-109220000D03*
X267652500Y-111760000D03*
X40640000Y-52070000D03*
X34290000Y-54610000D03*
X9683750Y-109220000D03*
X3333750Y-111760000D03*
X345440000Y-33020000D03*
X339090000Y-35560000D03*
X231140000Y-90170000D03*
X224790000Y-92710000D03*
X40640000Y-90170000D03*
X34290000Y-92710000D03*
X212090000Y-33020000D03*
X205740000Y-35560000D03*
X288290000Y-52070000D03*
X281940000Y-54610000D03*
X97790000Y-33020000D03*
X91440000Y-35560000D03*
D11*
X-9525000Y-114300000D03*
D10*
X78740000Y-33020000D03*
X72390000Y-35560000D03*
X250190000Y-52070000D03*
X243840000Y-54610000D03*
X135890000Y-109220000D03*
X129540000Y-111760000D03*
X212090000Y-71120000D03*
X205740000Y-73660000D03*
D11*
X342900000Y-57150000D03*
D10*
X231140000Y-52070000D03*
X224790000Y-54610000D03*
X250190000Y-90170000D03*
X243840000Y-92710000D03*
X16827500Y-52070000D03*
X10477500Y-54610000D03*
X269240000Y-71120000D03*
X262890000Y-73660000D03*
D15*
X149000000Y-65225000D03*
X153000000Y-65225000D03*
X151000000Y-65225000D03*
X155000000Y-65225000D03*
D10*
X116840000Y-52070000D03*
X110490000Y-54610000D03*
X193040000Y-33020000D03*
X186690000Y-35560000D03*
X59690000Y-52070000D03*
X53340000Y-54610000D03*
X312102500Y-109220000D03*
X305752500Y-111760000D03*
D12*
X104730500Y-41929000D03*
D13*
X104730500Y-34309000D03*
D12*
X219030500Y-99079000D03*
D13*
X219030500Y-91459000D03*
D12*
X123780500Y-60979000D03*
D13*
X123780500Y-53359000D03*
D12*
X314280500Y-60979000D03*
D13*
X314280500Y-53359000D03*
D12*
X333330500Y-41929000D03*
D13*
X333330500Y-34309000D03*
D12*
X85680500Y-60979000D03*
D13*
X85680500Y-53359000D03*
D12*
X199980500Y-41929000D03*
D13*
X199980500Y-34309000D03*
D12*
X47580500Y-99079000D03*
D13*
X47580500Y-91459000D03*
D12*
X40436750Y-118129000D03*
D13*
X40436750Y-110509000D03*
D12*
X47580500Y-60979000D03*
D13*
X47580500Y-53359000D03*
D12*
X276180500Y-99079000D03*
D13*
X276180500Y-91459000D03*
D12*
X219030500Y-60979000D03*
D13*
X219030500Y-53359000D03*
D12*
X238080500Y-99079000D03*
D13*
X238080500Y-91459000D03*
D12*
X338093000Y-60979000D03*
D13*
X338093000Y-53359000D03*
D12*
X23768000Y-60979000D03*
D13*
X23768000Y-53359000D03*
D12*
X104730500Y-60979000D03*
D13*
X104730500Y-53359000D03*
D12*
X21386750Y-80029000D03*
D13*
X21386750Y-72409000D03*
D12*
X299993000Y-118129000D03*
D13*
X299993000Y-110509000D03*
D12*
X64249250Y-118129000D03*
D13*
X64249250Y-110509000D03*
D12*
X257130500Y-60979000D03*
D13*
X257130500Y-53359000D03*
D12*
X199980500Y-99079000D03*
D13*
X199980500Y-91459000D03*
D12*
X47580500Y-41929000D03*
D13*
X47580500Y-34309000D03*
D12*
X85680500Y-41929000D03*
D13*
X85680500Y-34309000D03*
D12*
X47580500Y-80029000D03*
D13*
X47580500Y-72409000D03*
D12*
X85680500Y-99079000D03*
D13*
X85680500Y-91459000D03*
D12*
X295230500Y-80029000D03*
D13*
X295230500Y-72409000D03*
D12*
X276180500Y-60979000D03*
D13*
X276180500Y-53359000D03*
D12*
X66630500Y-41929000D03*
D13*
X66630500Y-34309000D03*
D12*
X219030500Y-80029000D03*
D13*
X219030500Y-72409000D03*
D12*
X276180500Y-80029000D03*
D13*
X276180500Y-72409000D03*
D12*
X311899250Y-99079000D03*
D13*
X311899250Y-91459000D03*
D12*
X219030500Y-41929000D03*
D13*
X219030500Y-34309000D03*
D12*
X28530500Y-41929000D03*
D13*
X28530500Y-34309000D03*
D12*
X88061750Y-118129000D03*
D13*
X88061750Y-110509000D03*
D12*
X333440000Y-47750000D03*
D13*
X341060000Y-47750000D03*
D12*
X257130500Y-99079000D03*
D13*
X257130500Y-91459000D03*
X326810000Y-104750000D03*
D12*
X319190000Y-104750000D03*
X238080500Y-60979000D03*
D13*
X238080500Y-53359000D03*
D12*
X319043000Y-118129000D03*
D13*
X319043000Y-110509000D03*
D12*
X257130500Y-41929000D03*
D13*
X257130500Y-34309000D03*
D12*
X104730500Y-99079000D03*
D13*
X104730500Y-91459000D03*
D12*
X295230500Y-60979000D03*
D13*
X295230500Y-53359000D03*
D12*
X123780500Y-80029000D03*
D13*
X123780500Y-72409000D03*
D12*
X66630500Y-80029000D03*
D13*
X66630500Y-72409000D03*
D12*
X207124250Y-118129000D03*
D13*
X207124250Y-110509000D03*
D12*
X257130500Y-80029000D03*
D13*
X257130500Y-72409000D03*
D12*
X280943000Y-118129000D03*
D13*
X280943000Y-110509000D03*
D12*
X235699250Y-118129000D03*
D13*
X235699250Y-110509000D03*
D12*
X238080500Y-80029000D03*
D13*
X238080500Y-72409000D03*
D12*
X199980500Y-80029000D03*
D13*
X199980500Y-72409000D03*
D12*
X85680500Y-80029000D03*
D13*
X85680500Y-72409000D03*
D12*
X66630500Y-60979000D03*
D13*
X66630500Y-53359000D03*
D12*
X104730500Y-80029000D03*
D13*
X104730500Y-72409000D03*
D12*
X314280500Y-41929000D03*
D13*
X314280500Y-34309000D03*
D12*
X16624250Y-99079000D03*
D13*
X16624250Y-91459000D03*
D12*
X123780500Y-41929000D03*
D13*
X123780500Y-34309000D03*
D12*
X123780500Y-99079000D03*
D13*
X123780500Y-91459000D03*
D12*
X259511750Y-118129000D03*
D13*
X259511750Y-110509000D03*
D12*
X238080500Y-41929000D03*
D13*
X238080500Y-34309000D03*
D12*
X116636750Y-118129000D03*
D13*
X116636750Y-110509000D03*
D12*
X276180500Y-41929000D03*
D13*
X276180500Y-34309000D03*
D12*
X295230500Y-41929000D03*
D13*
X295230500Y-34309000D03*
D12*
X16624250Y-118129000D03*
D13*
X16624250Y-110509000D03*
D12*
X199980500Y-60979000D03*
D13*
X199980500Y-53359000D03*
D12*
X326186750Y-80029000D03*
D13*
X326186750Y-72409000D03*
D12*
X66630500Y-99079000D03*
D13*
X66630500Y-91459000D03*
D16*
X155067502Y-56247500D03*
D17*
X331280250Y-56750000D02*
X331280250Y-109220000D01*
X319374000Y-71120000D02*
X319374000Y-102076250D01*
X319374000Y-102076250D02*
X312230250Y-109220000D01*
X331152500Y-109220000D02*
X329596866Y-109220000D01*
X323750000Y-69000000D02*
X331280250Y-61469750D01*
X326517750Y-33020000D02*
X326517750Y-47307500D01*
X323750000Y-103373134D02*
X323750000Y-69000000D01*
X331280250Y-52070000D02*
X331280250Y-56750000D01*
X329596866Y-109220000D02*
X323750000Y-103373134D01*
X326517750Y-47307500D02*
X331280250Y-52070000D01*
X331280250Y-61469750D02*
X331280250Y-56750000D01*
X168201206Y-115048794D02*
X161840000Y-121410000D01*
X168201206Y-113623794D02*
X168201206Y-115048794D01*
X157480000Y-65218826D02*
X171000000Y-78738826D01*
X171000000Y-78738826D02*
X171000000Y-110825000D01*
X171000000Y-110825000D02*
X168201206Y-113623794D01*
X161840000Y-121410000D02*
X157162500Y-121410000D01*
X157480000Y-57805000D02*
X157480000Y-65218826D01*
X126627750Y-96359500D02*
X123908250Y-99079000D01*
X126627750Y-75127096D02*
X126627750Y-96359500D01*
X142792346Y-58962500D02*
X126627750Y-75127096D01*
X146162500Y-58962500D02*
X142792346Y-58962500D01*
X147320000Y-57805000D02*
X146162500Y-58962500D01*
X142695000Y-57805000D02*
X144780000Y-57805000D01*
X123908250Y-80029000D02*
X123908250Y-76591750D01*
X123908250Y-76591750D02*
X142695000Y-57805000D01*
X143052500Y-50997500D02*
X144780000Y-52725000D01*
X126429000Y-41929000D02*
X135497500Y-50997500D01*
X135497500Y-50997500D02*
X143052500Y-50997500D01*
X123908250Y-41929000D02*
X126429000Y-41929000D01*
X144780000Y-55265000D02*
X141015000Y-51500000D01*
X125921000Y-60979000D02*
X123908250Y-60979000D01*
X135400000Y-51500000D02*
X125921000Y-60979000D01*
X141015000Y-51500000D02*
X135400000Y-51500000D01*
X146803875Y-58603875D02*
X147627750Y-57780000D01*
X157812750Y-57805000D02*
X158253875Y-58246125D01*
X157480000Y-57805000D02*
X157812750Y-57805000D01*
X157787750Y-57780000D02*
X158253875Y-58246125D01*
X16955250Y-68738750D02*
X14574000Y-71120000D01*
X21717750Y-33020000D02*
X21717750Y-47307500D01*
X9811500Y-90170000D02*
X9811500Y-109220000D01*
X16955250Y-52070000D02*
X16955250Y-68738750D01*
X14574000Y-71120000D02*
X14574000Y-85407500D01*
X21717750Y-47307500D02*
X16955250Y-52070000D01*
X14574000Y-85407500D02*
X9811500Y-90170000D01*
X40767750Y-52070000D02*
X40767750Y-71120000D01*
X40767750Y-102076250D02*
X33624000Y-109220000D01*
X40767750Y-33020000D02*
X40767750Y-52070000D01*
X40767750Y-90170000D02*
X40767750Y-102076250D01*
X40767750Y-71120000D02*
X40767750Y-90170000D01*
X59817750Y-52070000D02*
X59817750Y-71120000D01*
X59817750Y-90170000D02*
X59817750Y-106838750D01*
X59817750Y-71120000D02*
X59817750Y-90170000D01*
X59817750Y-106838750D02*
X57436500Y-109220000D01*
X59817750Y-33020000D02*
X59817750Y-52070000D01*
X78867750Y-52070000D02*
X78867750Y-71120000D01*
X78867750Y-90170000D02*
X78867750Y-106838750D01*
X78867750Y-33020000D02*
X78867750Y-52070000D01*
X78867750Y-106838750D02*
X81249000Y-109220000D01*
X78867750Y-71120000D02*
X78867750Y-90170000D01*
X97917750Y-90170000D02*
X97917750Y-97313750D01*
X97917750Y-71120000D02*
X97917750Y-90170000D01*
X97917750Y-33020000D02*
X97917750Y-52070000D01*
X97917750Y-97313750D02*
X109824000Y-109220000D01*
X97917750Y-52070000D02*
X97917750Y-71120000D01*
X135663384Y-50160000D02*
X118523384Y-33020000D01*
X116967750Y-94967750D02*
X131220000Y-109220000D01*
X131220000Y-109220000D02*
X136017750Y-109220000D01*
X116967750Y-33020000D02*
X116967750Y-94967750D01*
X144780000Y-50185000D02*
X135688384Y-50185000D01*
X118523384Y-33020000D02*
X116967750Y-33020000D01*
X193167750Y-96068757D02*
X180016507Y-109220000D01*
X193167750Y-90170000D02*
X193167750Y-96068757D01*
X193167750Y-52070000D02*
X193167750Y-71120000D01*
X180016507Y-109220000D02*
X174117750Y-109220000D01*
X193167750Y-71120000D02*
X193167750Y-90170000D01*
X193167750Y-33020000D02*
X193167750Y-52070000D01*
X212217750Y-97313750D02*
X200311500Y-109220000D01*
X212217750Y-33020000D02*
X212217750Y-52070000D01*
X212217750Y-52070000D02*
X212217750Y-71120000D01*
X212217750Y-71120000D02*
X212217750Y-90170000D01*
X212217750Y-90170000D02*
X212217750Y-97313750D01*
X231267750Y-52070000D02*
X231267750Y-71120000D01*
X231267750Y-90170000D02*
X231267750Y-106838750D01*
X231267750Y-106838750D02*
X228886500Y-109220000D01*
X231267750Y-71120000D02*
X231267750Y-90170000D01*
X231267750Y-33020000D02*
X231267750Y-52070000D01*
X250317750Y-106838750D02*
X252699000Y-109220000D01*
X250317750Y-90170000D02*
X250317750Y-106838750D01*
X250317750Y-52070000D02*
X250317750Y-71120000D01*
X250317750Y-71120000D02*
X250317750Y-90170000D01*
X250317750Y-33020000D02*
X250317750Y-52070000D01*
X269367750Y-104457500D02*
X274130250Y-109220000D01*
X269367750Y-33020000D02*
X269367750Y-52070000D01*
X269367750Y-52070000D02*
X269367750Y-71120000D01*
X269367750Y-90170000D02*
X269367750Y-104457500D01*
X269367750Y-71120000D02*
X269367750Y-90170000D01*
X302000000Y-83146616D02*
X302000000Y-87083500D01*
X305086500Y-97313750D02*
X293180250Y-109220000D01*
X288417750Y-33020000D02*
X288417750Y-71120000D01*
X302000000Y-87083500D02*
X305086500Y-90170000D01*
X305086500Y-90170000D02*
X305086500Y-97313750D01*
X288417750Y-71120000D02*
X289973384Y-71120000D01*
X289973384Y-71120000D02*
X302000000Y-83146616D01*
X307467750Y-33020000D02*
X307467750Y-52070000D01*
X307467750Y-59213750D02*
X319374000Y-71120000D01*
X307467750Y-52070000D02*
X307467750Y-59213750D01*
X160020000Y-32405000D02*
X160830000Y-31595000D01*
X344142750Y-31595000D02*
X345567750Y-33020000D01*
X160830000Y-31595000D02*
X344142750Y-31595000D01*
X149860000Y-64365000D02*
X149000000Y-65225000D01*
X149860000Y-57805000D02*
X149860000Y-64365000D01*
X156355000Y-57534998D02*
X155067502Y-56247500D01*
X155000000Y-65225000D02*
X156355000Y-63870000D01*
X156355000Y-63870000D02*
X156355000Y-57534998D01*
M02*
