G04 #@! TF.GenerationSoftware,KiCad,Pcbnew,7.0.5*
G04 #@! TF.CreationDate,2023-06-09T18:05:41+02:00*
G04 #@! TF.ProjectId,lumberjack,6c756d62-6572-46a6-9163-6b2e6b696361,1.7*
G04 #@! TF.SameCoordinates,Original*
G04 #@! TF.FileFunction,Soldermask,Top*
G04 #@! TF.FilePolarity,Negative*
%FSLAX46Y46*%
G04 Gerber Fmt 4.6, Leading zero omitted, Abs format (unit mm)*
G04 Created by KiCad (PCBNEW 7.0.5) date 2023-06-09 18:05:41*
%MOMM*%
%LPD*%
G01*
G04 APERTURE LIST*
%ADD10C,5.000000*%
%ADD11O,1.600000X1.600000*%
%ADD12R,1.600000X1.600000*%
%ADD13C,1.600000*%
%ADD14R,1.800000X1.800000*%
%ADD15C,1.800000*%
%ADD16C,1.710000*%
%ADD17R,1.200000X1.200000*%
%ADD18C,1.200000*%
%ADD19C,2.000000*%
%ADD20R,1.700000X1.700000*%
%ADD21O,1.700000X1.700000*%
%ADD22C,1.400000*%
%ADD23O,1.400000X1.400000*%
%ADD24C,1.500000*%
%ADD25C,1.700000*%
%ADD26C,4.000000*%
%ADD27C,2.200000*%
%ADD28C,3.050000*%
%ADD29C,1.701800*%
%ADD30C,3.987800*%
%ADD31C,2.286000*%
%ADD32C,1.100000*%
%ADD33R,1.100000X1.100000*%
%ADD34O,2.000000X2.000000*%
G04 APERTURE END LIST*
D10*
X319950048Y-73849952D03*
X4700000Y-73500000D03*
X4700000Y-130810000D03*
D11*
X192190000Y-93500000D03*
D12*
X199810000Y-93500000D03*
D13*
X138430000Y-96520000D03*
X138430000Y-94020000D03*
X138430000Y-90170000D03*
X138430000Y-87670000D03*
D14*
X160020000Y-64770000D03*
D15*
X157480000Y-64770000D03*
D16*
X136560000Y-116850000D03*
X137760000Y-111750000D03*
D12*
X129620000Y-89250000D03*
D11*
X122000000Y-89250000D03*
D12*
X126620000Y-93500000D03*
D11*
X119000000Y-93500000D03*
D12*
X110620000Y-118782500D03*
D11*
X103000000Y-118782500D03*
D12*
X110620000Y-84927500D03*
D11*
X103000000Y-84927500D03*
D12*
X129620000Y-80750000D03*
D11*
X122000000Y-80750000D03*
D12*
X126620000Y-110500000D03*
D11*
X119000000Y-110500000D03*
D17*
X138430000Y-125730000D03*
D18*
X136930000Y-125730000D03*
D12*
X113620000Y-88927500D03*
D11*
X106000000Y-88927500D03*
D19*
X143800000Y-107390000D03*
X143800000Y-100890000D03*
X148300000Y-107390000D03*
X148300000Y-100890000D03*
D10*
X128587608Y-59531300D03*
X176212648Y-59531300D03*
X128587608Y-144661059D03*
X176212648Y-144661059D03*
D12*
X180810000Y-123058549D03*
D11*
X173190000Y-123058549D03*
D14*
X147320000Y-64770000D03*
D15*
X144780000Y-64770000D03*
D12*
X110620000Y-110318750D03*
D11*
X103000000Y-110318750D03*
D12*
X113620000Y-80463750D03*
D11*
X106000000Y-80463750D03*
D12*
X113620000Y-114318750D03*
D11*
X106000000Y-114318750D03*
D12*
X129620000Y-72250000D03*
D11*
X122000000Y-72250000D03*
D12*
X110620000Y-76463750D03*
D11*
X103000000Y-76463750D03*
D12*
X113620000Y-122782500D03*
D11*
X106000000Y-122782500D03*
D12*
X126810000Y-68000000D03*
D11*
X119190000Y-68000000D03*
D12*
X113620000Y-72000000D03*
D11*
X106000000Y-72000000D03*
D12*
X129620000Y-97750000D03*
D11*
X122000000Y-97750000D03*
D12*
X113620000Y-131246250D03*
D11*
X106000000Y-131246250D03*
D12*
X126620000Y-102000000D03*
D11*
X119000000Y-102000000D03*
D12*
X113620000Y-97391250D03*
D11*
X106000000Y-97391250D03*
D12*
X199810000Y-68000000D03*
D11*
X192190000Y-68000000D03*
D12*
X126620000Y-85000000D03*
D11*
X119000000Y-85000000D03*
D12*
X180810000Y-72235273D03*
D11*
X173190000Y-72235273D03*
D12*
X129620000Y-106250000D03*
D11*
X122000000Y-106250000D03*
D12*
X199810000Y-119000000D03*
D11*
X192190000Y-119000000D03*
D19*
X143800000Y-75640000D03*
X143800000Y-69140000D03*
X148300000Y-75640000D03*
X148300000Y-69140000D03*
D13*
X143510000Y-124023435D03*
X148510000Y-124023435D03*
D12*
X110620000Y-135710000D03*
D11*
X103000000Y-135710000D03*
D12*
X199810000Y-127500000D03*
D11*
X192190000Y-127500000D03*
D12*
X126620000Y-127264375D03*
D11*
X119000000Y-127264375D03*
D12*
X196810000Y-89250000D03*
D11*
X189190000Y-89250000D03*
D12*
X129620000Y-123014375D03*
D11*
X122000000Y-123014375D03*
D12*
X184810000Y-118823276D03*
D11*
X177190000Y-118823276D03*
D12*
X184810000Y-68000000D03*
D11*
X177190000Y-68000000D03*
D12*
X180810000Y-89176365D03*
D11*
X173190000Y-89176365D03*
D12*
X129620000Y-131514375D03*
D11*
X122000000Y-131514375D03*
D12*
X199810000Y-85000000D03*
D11*
X192190000Y-85000000D03*
D12*
X126620000Y-135764375D03*
D11*
X119000000Y-135764375D03*
D12*
X184810000Y-110352730D03*
D11*
X177190000Y-110352730D03*
D12*
X196810000Y-106250000D03*
D11*
X189190000Y-106250000D03*
D12*
X199810000Y-110500000D03*
D11*
X192190000Y-110500000D03*
D12*
X184810000Y-84941092D03*
D11*
X177190000Y-84941092D03*
D12*
X196810000Y-80750000D03*
D11*
X189190000Y-80750000D03*
D12*
X180810000Y-106117457D03*
D11*
X173190000Y-106117457D03*
D12*
X180810000Y-114588003D03*
D11*
X173190000Y-114588003D03*
D12*
X196810000Y-114750000D03*
D11*
X189190000Y-114750000D03*
D12*
X184810000Y-127293822D03*
D11*
X177190000Y-127293822D03*
D12*
X199810000Y-76500000D03*
D11*
X192190000Y-76500000D03*
D12*
X126620000Y-119000000D03*
D11*
X119000000Y-119000000D03*
D12*
X180810000Y-80705819D03*
D11*
X173190000Y-80705819D03*
D12*
X196810000Y-123250000D03*
D11*
X189190000Y-123250000D03*
D12*
X196810000Y-72250000D03*
D11*
X189190000Y-72250000D03*
D13*
X143550000Y-127000000D03*
X148550000Y-127000000D03*
D20*
X143525000Y-82555000D03*
D21*
X143525000Y-80015000D03*
X146065000Y-82555000D03*
X146065000Y-80015000D03*
X148605000Y-82555000D03*
X148605000Y-80015000D03*
D10*
X138112616Y-102393836D03*
D12*
X184810000Y-76470546D03*
D11*
X177190000Y-76470546D03*
D12*
X129620000Y-114750000D03*
D11*
X122000000Y-114750000D03*
D12*
X110620000Y-127246250D03*
D11*
X103000000Y-127246250D03*
D12*
X110620000Y-93391250D03*
D11*
X103000000Y-93391250D03*
D12*
X110620000Y-68000000D03*
D11*
X103000000Y-68000000D03*
D22*
X156210000Y-146050000D03*
D23*
X163830000Y-146050000D03*
D24*
X146050000Y-90170000D03*
X146050000Y-95050000D03*
D12*
X126620000Y-76500000D03*
D11*
X119000000Y-76500000D03*
D22*
X140970000Y-146050000D03*
D23*
X148590000Y-146050000D03*
D22*
X150018876Y-58340674D03*
D23*
X142398876Y-58340674D03*
D22*
X162401380Y-58340674D03*
D23*
X154781380Y-58340674D03*
D22*
X140970000Y-142240000D03*
D23*
X148590000Y-142240000D03*
D12*
X184810000Y-93411638D03*
D11*
X177190000Y-93411638D03*
D22*
X163830000Y-142240000D03*
D23*
X156210000Y-142240000D03*
D12*
X110620000Y-101855000D03*
D11*
X103000000Y-101855000D03*
D12*
X113620000Y-105855000D03*
D11*
X106000000Y-105855000D03*
D25*
X-14789920Y-83206196D03*
D26*
X-9709920Y-83206196D03*
D25*
X-4629920Y-83206196D03*
D27*
X-7169920Y-78126196D03*
X-13519920Y-80666196D03*
D25*
X-17139920Y-102306196D03*
D26*
X-12059920Y-102306196D03*
D25*
X-6979920Y-102306196D03*
D27*
X-9519920Y-97226196D03*
X-15869920Y-99766196D03*
D28*
X-28749920Y-114336196D03*
D26*
X-28749920Y-129576196D03*
D25*
X-21929920Y-121336196D03*
D26*
X-16849920Y-121336196D03*
D25*
X-11769920Y-121336196D03*
D28*
X-4949920Y-114336196D03*
D26*
X-4949920Y-129576196D03*
D27*
X-14309920Y-116256196D03*
X-20659920Y-118796196D03*
D25*
X-21980000Y-140300000D03*
D26*
X-16900000Y-140300000D03*
D25*
X-11820000Y-140300000D03*
D27*
X-14360000Y-135220000D03*
X-20710000Y-137760000D03*
D29*
X9019936Y-64200000D03*
D30*
X14099936Y-64200000D03*
D29*
X19179936Y-64200000D03*
D31*
X16639936Y-59120000D03*
X10289936Y-61660000D03*
D29*
X9019936Y-83250016D03*
X19179936Y-83250016D03*
D31*
X11559936Y-88330016D03*
X16639936Y-78170016D03*
X10289936Y-80710016D03*
X17909936Y-85790016D03*
D29*
X9019936Y-102300032D03*
D30*
X14099936Y-102300032D03*
D29*
X19179936Y-102300032D03*
D31*
X16639936Y-97220032D03*
X10289936Y-99760032D03*
D29*
X9019936Y-121350048D03*
D30*
X14099936Y-121350048D03*
D29*
X19179936Y-121350048D03*
D31*
X16639936Y-116270048D03*
X10289936Y-118810048D03*
D25*
X1820000Y-140300000D03*
D26*
X6900000Y-140300000D03*
D25*
X11980000Y-140300000D03*
D27*
X9440000Y-135220000D03*
X3090000Y-137760000D03*
D29*
X28069952Y-64200000D03*
D30*
X33149952Y-64200000D03*
D29*
X38229952Y-64200000D03*
D31*
X35689952Y-59120000D03*
X29339952Y-61660000D03*
D29*
X28069952Y-83250016D03*
D30*
X33149952Y-83250016D03*
D29*
X38229952Y-83250016D03*
D31*
X35689952Y-78170016D03*
X29339952Y-80710016D03*
D25*
X25620000Y-140306196D03*
D26*
X30700000Y-140306196D03*
D25*
X35780000Y-140306196D03*
D27*
X33240000Y-135226196D03*
X26890000Y-137766196D03*
D29*
X47119968Y-64200000D03*
D30*
X52199968Y-64200000D03*
D29*
X57279968Y-64200000D03*
D31*
X54739968Y-59120000D03*
X48389968Y-61660000D03*
D29*
X47119968Y-83250016D03*
D30*
X52199968Y-83250016D03*
D29*
X57279968Y-83250016D03*
D31*
X54739968Y-78170016D03*
X48389968Y-80710016D03*
D29*
X47119968Y-102300032D03*
D30*
X52199968Y-102300032D03*
D29*
X57279968Y-102300032D03*
D31*
X54739968Y-97220032D03*
X48389968Y-99760032D03*
D29*
X47119968Y-121350048D03*
D30*
X52199968Y-121350048D03*
D29*
X57279968Y-121350048D03*
D31*
X54739968Y-116270048D03*
X48389968Y-118810048D03*
D25*
X49420000Y-140300000D03*
D26*
X54500000Y-140300000D03*
D25*
X59580000Y-140300000D03*
D27*
X57040000Y-135220000D03*
X50690000Y-137760000D03*
D29*
X66169984Y-64200000D03*
D30*
X71249984Y-64200000D03*
D29*
X76329984Y-64200000D03*
D31*
X73789984Y-59120000D03*
X67439984Y-61660000D03*
D29*
X66169984Y-83250016D03*
D30*
X71249984Y-83250016D03*
D29*
X76329984Y-83250016D03*
D31*
X73789984Y-78170016D03*
X67439984Y-80710016D03*
D29*
X66169984Y-102300032D03*
D30*
X71249984Y-102300032D03*
D29*
X76329984Y-102300032D03*
D31*
X73789984Y-97220032D03*
X67439984Y-99760032D03*
D29*
X66169984Y-121350048D03*
D30*
X71249984Y-121350048D03*
D29*
X76329984Y-121350048D03*
D31*
X73789984Y-116270048D03*
X67439984Y-118810048D03*
D29*
X85220000Y-64200000D03*
D30*
X90300000Y-64200000D03*
D29*
X95380000Y-64200000D03*
D31*
X92840000Y-59120000D03*
X86490000Y-61660000D03*
D29*
X85220000Y-83250016D03*
D30*
X90300000Y-83250016D03*
D29*
X95380000Y-83250016D03*
D31*
X92840000Y-78170016D03*
X86490000Y-80710016D03*
D29*
X85220000Y-102300032D03*
D30*
X90300000Y-102300032D03*
D29*
X95380000Y-102300032D03*
D31*
X92840000Y-97220032D03*
X86490000Y-99760032D03*
D29*
X85220000Y-121350048D03*
D30*
X90300000Y-121350048D03*
D29*
X95380000Y-121350048D03*
D31*
X92840000Y-116270048D03*
X86490000Y-118810048D03*
D25*
X77920000Y-140300000D03*
D26*
X83000000Y-140300000D03*
D25*
X88080000Y-140300000D03*
D27*
X85540000Y-135220000D03*
X79190000Y-137760000D03*
D29*
X210120000Y-64349952D03*
D30*
X215200000Y-64349952D03*
D29*
X220280000Y-64349952D03*
D31*
X217740000Y-59269952D03*
X211390000Y-61809952D03*
D29*
X210120000Y-83399968D03*
D30*
X215200000Y-83399968D03*
D29*
X220280000Y-83399968D03*
D31*
X217740000Y-78319968D03*
X211390000Y-80859968D03*
D29*
X210120000Y-102449984D03*
D30*
X215200000Y-102449984D03*
D29*
X220280000Y-102449984D03*
D31*
X217740000Y-97369984D03*
X211390000Y-99909984D03*
D29*
X210120000Y-121500000D03*
D30*
X215200000Y-121500000D03*
D29*
X220280000Y-121500000D03*
D31*
X217740000Y-116420000D03*
X211390000Y-118960000D03*
D25*
X217320000Y-140600000D03*
D26*
X222400000Y-140600000D03*
D25*
X227480000Y-140600000D03*
D27*
X224940000Y-135520000D03*
X218590000Y-138060000D03*
D29*
X229220000Y-64349952D03*
D30*
X234300000Y-64349952D03*
D29*
X239380000Y-64349952D03*
D31*
X236840000Y-59269952D03*
X230490000Y-61809952D03*
D29*
X229220000Y-83399968D03*
D30*
X234300000Y-83399968D03*
D29*
X239380000Y-83399968D03*
D31*
X236840000Y-78319968D03*
X230490000Y-80859968D03*
D29*
X229220000Y-102449984D03*
D30*
X234300000Y-102449984D03*
D29*
X239380000Y-102449984D03*
D31*
X236840000Y-97369984D03*
X230490000Y-99909984D03*
D29*
X229220000Y-121500000D03*
D30*
X234300000Y-121500000D03*
D29*
X239380000Y-121500000D03*
D31*
X236840000Y-116420000D03*
X230490000Y-118960000D03*
D29*
X248320032Y-64343756D03*
D30*
X253400032Y-64343756D03*
D29*
X258480032Y-64343756D03*
D31*
X255940032Y-59263756D03*
X249590032Y-61803756D03*
D29*
X248320032Y-83393772D03*
D30*
X253400032Y-83393772D03*
D29*
X258480032Y-83393772D03*
D31*
X255940032Y-78313772D03*
X249590032Y-80853772D03*
D29*
X248320032Y-102443788D03*
D30*
X253400032Y-102443788D03*
D29*
X258480032Y-102443788D03*
D31*
X255940032Y-97363788D03*
X249590032Y-99903788D03*
D29*
X248320032Y-121493804D03*
D30*
X253400032Y-121493804D03*
D29*
X258480032Y-121493804D03*
D31*
X255940032Y-116413804D03*
X249590032Y-118953804D03*
D25*
X245920000Y-140600000D03*
D26*
X251000000Y-140600000D03*
D25*
X256080000Y-140600000D03*
D27*
X253540000Y-135520000D03*
X247190000Y-138060000D03*
D29*
X267420032Y-64343756D03*
D30*
X272500032Y-64343756D03*
D29*
X277580032Y-64343756D03*
D31*
X275040032Y-59263756D03*
X268690032Y-61803756D03*
D29*
X267420032Y-83393772D03*
D30*
X272500032Y-83393772D03*
D29*
X277580032Y-83393772D03*
D31*
X275040032Y-78313772D03*
X268690032Y-80853772D03*
D29*
X267420032Y-102443788D03*
D30*
X272500032Y-102443788D03*
D29*
X277580032Y-102443788D03*
D31*
X275040032Y-97363788D03*
X268690032Y-99903788D03*
D29*
X267420032Y-121493804D03*
D30*
X272500032Y-121493804D03*
D29*
X277580032Y-121493804D03*
D31*
X275040032Y-116413804D03*
X268690032Y-118953804D03*
D25*
X269720000Y-140600000D03*
D26*
X274800000Y-140600000D03*
D25*
X279880000Y-140600000D03*
D27*
X277340000Y-135520000D03*
X270990000Y-138060000D03*
D29*
X286470048Y-64343756D03*
D30*
X291550048Y-64343756D03*
D29*
X296630048Y-64343756D03*
D31*
X294090048Y-59263756D03*
X287740048Y-61803756D03*
D29*
X286470048Y-83393772D03*
D30*
X291550048Y-83393772D03*
D29*
X296630048Y-83393772D03*
D31*
X294090048Y-78313772D03*
X287740048Y-80853772D03*
D29*
X286470048Y-102443788D03*
D30*
X291550048Y-102443788D03*
D29*
X296630048Y-102443788D03*
D31*
X294090048Y-97363788D03*
X287740048Y-99903788D03*
D29*
X286470048Y-121493804D03*
D30*
X291550048Y-121493804D03*
D29*
X296630048Y-121493804D03*
D31*
X294090048Y-116413804D03*
X287740048Y-118953804D03*
D25*
X293520000Y-140600000D03*
D26*
X298600000Y-140600000D03*
D25*
X303680000Y-140600000D03*
D27*
X301140000Y-135520000D03*
X294790000Y-138060000D03*
D29*
X305370048Y-64343756D03*
D30*
X310450048Y-64343756D03*
D29*
X315530048Y-64343756D03*
D31*
X312990048Y-59263756D03*
X306640048Y-61803756D03*
D29*
X305519808Y-83393772D03*
D30*
X310599808Y-83393772D03*
D29*
X315679808Y-83393772D03*
D31*
X313139808Y-78313772D03*
X306789808Y-80853772D03*
D29*
X305519808Y-102443788D03*
D30*
X310599808Y-102443788D03*
D29*
X315679808Y-102443788D03*
D31*
X313139808Y-97363788D03*
X306789808Y-99903788D03*
D28*
X315400000Y-114480000D03*
D26*
X315400000Y-129720000D03*
D25*
X322220000Y-121480000D03*
D26*
X327300000Y-121480000D03*
D25*
X332380000Y-121480000D03*
D28*
X339200000Y-114480000D03*
D26*
X339200000Y-129720000D03*
D27*
X329840000Y-116400000D03*
X323490000Y-118940000D03*
D25*
X317420000Y-140600000D03*
D26*
X322500000Y-140600000D03*
D25*
X327580000Y-140600000D03*
D27*
X325040000Y-135520000D03*
X318690000Y-138060000D03*
D29*
X28069952Y-102300032D03*
D30*
X33149952Y-102300032D03*
D29*
X38229952Y-102300032D03*
D31*
X35689952Y-97220032D03*
X29339952Y-99760032D03*
D29*
X28069952Y-121350048D03*
D30*
X33149952Y-121350048D03*
D29*
X38229952Y-121350048D03*
D31*
X35689952Y-116270048D03*
X29339952Y-118810048D03*
D10*
X42800000Y-131200000D03*
X243840000Y-73849952D03*
X263000000Y-130950048D03*
X42672000Y-73660000D03*
D29*
X-10030128Y-64199946D03*
D30*
X-4950128Y-64199946D03*
D29*
X129872Y-64199946D03*
D31*
X-2410128Y-59119946D03*
X-8760128Y-61659946D03*
D29*
X377220000Y-121500000D03*
D30*
X382300000Y-121500000D03*
D29*
X387380000Y-121500000D03*
D31*
X384840000Y-116420000D03*
X378490000Y-118960000D03*
D28*
X365300000Y-57380000D03*
D26*
X365300000Y-72620000D03*
D25*
X372120000Y-64380000D03*
D26*
X377200000Y-64380000D03*
D25*
X382280000Y-64380000D03*
D28*
X389100000Y-57380000D03*
D26*
X389100000Y-72620000D03*
D27*
X379740000Y-59300000D03*
X373390000Y-61840000D03*
D12*
X153125000Y-69625000D03*
D11*
X153125000Y-72165000D03*
X153125000Y-74705000D03*
X153125000Y-77245000D03*
X153125000Y-79785000D03*
X153125000Y-82325000D03*
X153125000Y-84865000D03*
X153125000Y-87405000D03*
X153125000Y-89945000D03*
X153125000Y-92485000D03*
X153125000Y-95025000D03*
X153125000Y-97565000D03*
X153125000Y-100105000D03*
X153125000Y-102645000D03*
X153125000Y-105185000D03*
X153125000Y-107725000D03*
X153125000Y-110265000D03*
X153125000Y-112805000D03*
X153125000Y-115345000D03*
X153125000Y-117885000D03*
X168365000Y-117885000D03*
X168365000Y-115345000D03*
X168365000Y-112805000D03*
X168365000Y-110265000D03*
X168365000Y-107725000D03*
X168365000Y-105185000D03*
X168365000Y-102645000D03*
X168365000Y-100105000D03*
X168365000Y-97565000D03*
X168365000Y-95025000D03*
X168365000Y-92485000D03*
X168365000Y-89945000D03*
X168365000Y-87405000D03*
X168365000Y-84865000D03*
X168365000Y-82325000D03*
X168365000Y-79785000D03*
X168365000Y-77245000D03*
X168365000Y-74705000D03*
X168365000Y-72165000D03*
X168365000Y-69625000D03*
D12*
X199810000Y-102000000D03*
D11*
X192190000Y-102000000D03*
D29*
X343470048Y-64343756D03*
D30*
X348550048Y-64343756D03*
D29*
X353630048Y-64343756D03*
D31*
X351090048Y-59263756D03*
X344740048Y-61803756D03*
D12*
X157190000Y-127104375D03*
D11*
X164810000Y-127104375D03*
D29*
X377220000Y-140600000D03*
D30*
X382300000Y-140600000D03*
D29*
X387380000Y-140600000D03*
D31*
X384840000Y-135520000D03*
X378490000Y-138060000D03*
D12*
X180810000Y-131529095D03*
D11*
X173190000Y-131529095D03*
D32*
X-19990000Y-63952000D03*
X-20790000Y-62202000D03*
X-21590000Y-63952000D03*
X-22390000Y-62202000D03*
D33*
X-23190000Y-63952000D03*
D34*
X-25490000Y-57502000D03*
X-25490000Y-62202000D03*
X-17690000Y-57502000D03*
X-17690000Y-62202000D03*
D12*
X180810000Y-97646911D03*
D11*
X173190000Y-97646911D03*
D10*
X353600000Y-131000000D03*
D25*
X348320000Y-83400000D03*
D26*
X353400000Y-83400000D03*
D25*
X358480000Y-83400000D03*
D27*
X355940000Y-78320000D03*
X349590000Y-80860000D03*
D12*
X157190000Y-135924375D03*
D11*
X164810000Y-135924375D03*
D29*
X358120000Y-140600000D03*
D30*
X363200000Y-140600000D03*
D29*
X368280000Y-140600000D03*
D31*
X365740000Y-135520000D03*
X359390000Y-138060000D03*
D12*
X199810000Y-136000000D03*
D11*
X192190000Y-136000000D03*
D29*
X324420048Y-64343756D03*
D30*
X329500048Y-64343756D03*
D29*
X334580048Y-64343756D03*
D31*
X332040048Y-59263756D03*
X325690048Y-61803756D03*
D12*
X140190000Y-131514375D03*
D11*
X147810000Y-131514375D03*
D29*
X324420048Y-83393772D03*
D30*
X329500048Y-83393772D03*
D29*
X334580048Y-83393772D03*
D31*
X332040048Y-78313772D03*
X325690048Y-80853772D03*
D12*
X157190000Y-131514375D03*
D11*
X164810000Y-131514375D03*
D12*
X196810000Y-131750000D03*
D11*
X189190000Y-131750000D03*
D12*
X196810000Y-97750000D03*
D11*
X189190000Y-97750000D03*
D28*
X329700000Y-95380000D03*
D26*
X329700000Y-110620000D03*
D25*
X336520000Y-102380000D03*
D26*
X341600000Y-102380000D03*
D25*
X346680000Y-102380000D03*
D28*
X353500000Y-95380000D03*
D26*
X353500000Y-110620000D03*
D27*
X344140000Y-97300000D03*
X337790000Y-99840000D03*
D29*
X339020000Y-140600000D03*
D30*
X344100000Y-140600000D03*
D29*
X349180000Y-140600000D03*
D31*
X346640000Y-135520000D03*
X340290000Y-138060000D03*
D29*
X372220000Y-83400000D03*
D30*
X377300000Y-83400000D03*
D29*
X382380000Y-83400000D03*
D31*
X379840000Y-78320000D03*
X373490000Y-80860000D03*
D12*
X184810000Y-135764375D03*
D11*
X177190000Y-135764375D03*
D12*
X184810000Y-101882184D03*
D11*
X177190000Y-101882184D03*
D12*
X140190000Y-135924375D03*
D11*
X147810000Y-135924375D03*
D29*
X367620000Y-102400000D03*
D30*
X372700000Y-102400000D03*
D29*
X377780000Y-102400000D03*
D31*
X375240000Y-97320000D03*
X368890000Y-99860000D03*
D29*
X358120000Y-121500000D03*
D30*
X363200000Y-121500000D03*
D29*
X368280000Y-121500000D03*
D31*
X365740000Y-116420000D03*
X359390000Y-118960000D03*
M02*
