M48
; DRILL file {KiCad 7.0.5} date Sun Aug  6 16:41:51 2023
; FORMAT={-:-/ absolute / metric / decimal}
; #@! TF.CreationDate,2023-08-06T16:41:51+02:00
; #@! TF.GenerationSoftware,Kicad,Pcbnew,7.0.5
; #@! TF.FileFunction,NonPlated,1,2,NPTH
FMAT,2
METRIC
; #@! TA.AperFunction,NonPlated,NPTH,ComponentDrill
T1C1.700
; #@! TA.AperFunction,NonPlated,NPTH,ComponentDrill
T2C2.000
; #@! TA.AperFunction,NonPlated,NPTH,ComponentDrill
T3C2.200
; #@! TA.AperFunction,NonPlated,NPTH,ComponentDrill
T4C3.050
; #@! TA.AperFunction,NonPlated,NPTH,ComponentDrill
T5C4.000
; #@! TA.AperFunction,NonPlated,NPTH,ComponentDrill
T6C36.000
%
G90
G05
T1
X2.064Y-95.25
X2.064Y-114.3
X6.826Y-76.2
X9.207Y-57.15
X12.224Y-95.25
X12.224Y-114.3
X13.97Y-38.1
X16.986Y-76.2
X19.367Y-57.15
X24.13Y-38.1
X25.876Y-114.3
X33.02Y-38.1
X33.02Y-57.15
X33.02Y-76.2
X33.02Y-95.25
X36.036Y-114.3
X43.18Y-38.1
X43.18Y-57.15
X43.18Y-76.2
X43.18Y-95.25
X49.689Y-114.3
X52.07Y-38.1
X52.07Y-57.15
X52.07Y-76.2
X52.07Y-95.25
X59.849Y-114.3
X62.23Y-38.1
X62.23Y-57.15
X62.23Y-76.2
X62.23Y-95.25
X71.12Y-38.1
X71.12Y-57.15
X71.12Y-76.2
X71.12Y-95.25
X73.501Y-114.3
X81.28Y-38.1
X81.28Y-57.15
X81.28Y-76.2
X81.28Y-95.25
X83.661Y-114.3
X90.17Y-38.1
X90.17Y-57.15
X90.17Y-76.2
X90.17Y-95.25
X100.33Y-38.1
X100.33Y-57.15
X100.33Y-76.2
X100.33Y-95.25
X102.076Y-114.3
X109.22Y-38.1
X109.22Y-57.15
X109.22Y-76.2
X109.22Y-95.25
X112.236Y-114.3
X119.38Y-38.1
X119.38Y-57.15
X119.38Y-76.2
X119.38Y-95.25
X128.27Y-114.3
X138.43Y-114.3
X166.37Y-114.3
X176.53Y-114.3
X185.42Y-38.1
X185.42Y-57.15
X185.42Y-76.2
X185.42Y-95.25
X192.564Y-114.3
X195.58Y-38.1
X195.58Y-57.15
X195.58Y-76.2
X195.58Y-95.25
X202.724Y-114.3
X204.47Y-38.1
X204.47Y-57.15
X204.47Y-76.2
X204.47Y-95.25
X214.63Y-38.1
X214.63Y-57.15
X214.63Y-76.2
X214.63Y-95.25
X221.139Y-114.3
X223.52Y-38.1
X223.52Y-57.15
X223.52Y-76.2
X223.52Y-95.25
X231.299Y-114.3
X233.68Y-38.1
X233.68Y-57.15
X233.68Y-76.2
X233.68Y-95.25
X242.57Y-38.1
X242.57Y-57.15
X242.57Y-76.2
X242.57Y-95.25
X244.951Y-114.3
X252.73Y-38.1
X252.73Y-57.15
X252.73Y-76.2
X252.73Y-95.25
X255.111Y-114.3
X261.62Y-38.1
X261.62Y-57.15
X261.62Y-76.2
X261.62Y-95.25
X266.382Y-114.3
X271.78Y-38.1
X271.78Y-57.15
X271.78Y-76.2
X271.78Y-95.25
X276.542Y-114.3
X280.67Y-38.1
X280.67Y-57.15
X280.67Y-76.2
X285.433Y-114.3
X290.83Y-38.1
X290.83Y-57.15
X290.83Y-76.2
X295.592Y-114.3
X297.339Y-95.25
X299.72Y-38.1
X299.72Y-57.15
X304.482Y-114.3
X307.499Y-95.25
X309.88Y-38.1
X309.88Y-57.15
X311.626Y-76.2
X314.642Y-114.3
X318.77Y-38.1
X321.786Y-76.2
X323.532Y-57.15
X323.532Y-114.3
X328.93Y-38.1
X333.692Y-57.15
X333.692Y-114.3
X337.82Y-38.1
X347.98Y-38.1
T2
X136.0Y-69.725
X136.0Y-101.725
X168.0Y-69.725
X168.0Y-101.725
T3
X-9.525Y-38.1
X-9.525Y-114.3
X66.675Y-47.625
X66.675Y-104.775
X133.35Y-38.1
X171.45Y-38.1
X257.175Y-47.625
X257.175Y-104.775
X342.9Y-57.15
X342.9Y-114.3
T4
X-4.756Y-88.25
X19.044Y-88.25
X290.519Y-88.25
X304.806Y-69.2
X314.319Y-88.25
X328.606Y-69.2
T5
X-4.756Y-103.49
X7.144Y-95.25
X7.144Y-114.3
X11.906Y-76.2
X14.287Y-57.15
X19.044Y-103.49
X19.05Y-38.1
X30.956Y-114.3
X38.1Y-38.1
X38.1Y-57.15
X38.1Y-76.2
X38.1Y-95.25
X54.769Y-114.3
X57.15Y-38.1
X57.15Y-57.15
X57.15Y-76.2
X57.15Y-95.25
X76.2Y-38.1
X76.2Y-57.15
X76.2Y-76.2
X76.2Y-95.25
X78.581Y-114.3
X95.25Y-38.1
X95.25Y-57.15
X95.25Y-76.2
X95.25Y-95.25
X107.156Y-114.3
X114.3Y-38.1
X114.3Y-57.15
X114.3Y-76.2
X114.3Y-95.25
X133.35Y-114.3
X171.45Y-114.3
X190.5Y-38.1
X190.5Y-57.15
X190.5Y-76.2
X190.5Y-95.25
X197.644Y-114.3
X209.55Y-38.1
X209.55Y-57.15
X209.55Y-76.2
X209.55Y-95.25
X226.219Y-114.3
X228.6Y-38.1
X228.6Y-57.15
X228.6Y-76.2
X228.6Y-95.25
X247.65Y-38.1
X247.65Y-57.15
X247.65Y-76.2
X247.65Y-95.25
X250.031Y-114.3
X266.7Y-38.1
X266.7Y-57.15
X266.7Y-76.2
X266.7Y-95.25
X271.462Y-114.3
X285.75Y-38.1
X285.75Y-57.15
X285.75Y-76.2
X290.512Y-114.3
X290.519Y-103.49
X302.419Y-95.25
X304.8Y-38.1
X304.8Y-57.15
X304.806Y-84.44
X309.562Y-114.3
X314.319Y-103.49
X316.706Y-76.2
X323.85Y-38.1
X328.606Y-84.44
X328.613Y-57.15
X328.613Y-114.3
X342.9Y-38.1
T6
X152.0Y-85.725
T0
M30
