G04 #@! TF.GenerationSoftware,KiCad,Pcbnew,7.0.5*
G04 #@! TF.CreationDate,2023-08-06T16:41:53+02:00*
G04 #@! TF.ProjectId,lumberjack,6c756d62-6572-46a6-9163-6b2e6b696361,1.7*
G04 #@! TF.SameCoordinates,Original*
G04 #@! TF.FileFunction,Legend,Bot*
G04 #@! TF.FilePolarity,Positive*
%FSLAX46Y46*%
G04 Gerber Fmt 4.6, Leading zero omitted, Abs format (unit mm)*
G04 Created by KiCad (PCBNEW 7.0.5) date 2023-08-06 16:41:53*
%MOMM*%
%LPD*%
G01*
G04 APERTURE LIST*
G04 Aperture macros list*
%AMRoundRect*
0 Rectangle with rounded corners*
0 $1 Rounding radius*
0 $2 $3 $4 $5 $6 $7 $8 $9 X,Y pos of 4 corners*
0 Add a 4 corners polygon primitive as box body*
4,1,4,$2,$3,$4,$5,$6,$7,$8,$9,$2,$3,0*
0 Add four circle primitives for the rounded corners*
1,1,$1+$1,$2,$3*
1,1,$1+$1,$4,$5*
1,1,$1+$1,$6,$7*
1,1,$1+$1,$8,$9*
0 Add four rect primitives between the rounded corners*
20,1,$1+$1,$2,$3,$4,$5,0*
20,1,$1+$1,$4,$5,$6,$7,0*
20,1,$1+$1,$6,$7,$8,$9,0*
20,1,$1+$1,$8,$9,$2,$3,0*%
G04 Aperture macros list end*
%ADD10C,0.100000*%
%ADD11C,0.150000*%
%ADD12C,0.120000*%
%ADD13C,4.000000*%
%ADD14C,1.700000*%
%ADD15C,2.200000*%
%ADD16C,3.050000*%
%ADD17C,5.000000*%
%ADD18R,1.600000X1.600000*%
%ADD19O,1.600000X1.600000*%
%ADD20C,1.600000*%
%ADD21RoundRect,0.312500X-0.312500X-1.187500X0.312500X-1.187500X0.312500X1.187500X-0.312500X1.187500X0*%
%ADD22C,2.000000*%
%ADD23C,36.000000*%
G04 APERTURE END LIST*
D10*
X150425200Y-62743734D02*
X150377580Y-62600877D01*
X150377580Y-62600877D02*
X150377580Y-62362782D01*
X150377580Y-62362782D02*
X150425200Y-62267544D01*
X150425200Y-62267544D02*
X150472819Y-62219925D01*
X150472819Y-62219925D02*
X150568057Y-62172306D01*
X150568057Y-62172306D02*
X150663295Y-62172306D01*
X150663295Y-62172306D02*
X150758533Y-62219925D01*
X150758533Y-62219925D02*
X150806152Y-62267544D01*
X150806152Y-62267544D02*
X150853771Y-62362782D01*
X150853771Y-62362782D02*
X150901390Y-62553258D01*
X150901390Y-62553258D02*
X150949009Y-62648496D01*
X150949009Y-62648496D02*
X150996628Y-62696115D01*
X150996628Y-62696115D02*
X151091866Y-62743734D01*
X151091866Y-62743734D02*
X151187104Y-62743734D01*
X151187104Y-62743734D02*
X151282342Y-62696115D01*
X151282342Y-62696115D02*
X151329961Y-62648496D01*
X151329961Y-62648496D02*
X151377580Y-62553258D01*
X151377580Y-62553258D02*
X151377580Y-62315163D01*
X151377580Y-62315163D02*
X151329961Y-62172306D01*
X150377580Y-61743734D02*
X151377580Y-61743734D01*
X151377580Y-61743734D02*
X151377580Y-61505639D01*
X151377580Y-61505639D02*
X151329961Y-61362782D01*
X151329961Y-61362782D02*
X151234723Y-61267544D01*
X151234723Y-61267544D02*
X151139485Y-61219925D01*
X151139485Y-61219925D02*
X150949009Y-61172306D01*
X150949009Y-61172306D02*
X150806152Y-61172306D01*
X150806152Y-61172306D02*
X150615676Y-61219925D01*
X150615676Y-61219925D02*
X150520438Y-61267544D01*
X150520438Y-61267544D02*
X150425200Y-61362782D01*
X150425200Y-61362782D02*
X150377580Y-61505639D01*
X150377580Y-61505639D02*
X150377580Y-61743734D01*
X150663295Y-60791353D02*
X150663295Y-60315163D01*
X150377580Y-60886591D02*
X151377580Y-60553258D01*
X151377580Y-60553258D02*
X150377580Y-60219925D01*
X149329961Y-62172306D02*
X149377580Y-62267544D01*
X149377580Y-62267544D02*
X149377580Y-62410401D01*
X149377580Y-62410401D02*
X149329961Y-62553258D01*
X149329961Y-62553258D02*
X149234723Y-62648496D01*
X149234723Y-62648496D02*
X149139485Y-62696115D01*
X149139485Y-62696115D02*
X148949009Y-62743734D01*
X148949009Y-62743734D02*
X148806152Y-62743734D01*
X148806152Y-62743734D02*
X148615676Y-62696115D01*
X148615676Y-62696115D02*
X148520438Y-62648496D01*
X148520438Y-62648496D02*
X148425200Y-62553258D01*
X148425200Y-62553258D02*
X148377580Y-62410401D01*
X148377580Y-62410401D02*
X148377580Y-62315163D01*
X148377580Y-62315163D02*
X148425200Y-62172306D01*
X148425200Y-62172306D02*
X148472819Y-62124687D01*
X148472819Y-62124687D02*
X148806152Y-62124687D01*
X148806152Y-62124687D02*
X148806152Y-62315163D01*
X148377580Y-61696115D02*
X149377580Y-61696115D01*
X149377580Y-61696115D02*
X148377580Y-61124687D01*
X148377580Y-61124687D02*
X149377580Y-61124687D01*
X148377580Y-60648496D02*
X149377580Y-60648496D01*
X149377580Y-60648496D02*
X149377580Y-60410401D01*
X149377580Y-60410401D02*
X149329961Y-60267544D01*
X149329961Y-60267544D02*
X149234723Y-60172306D01*
X149234723Y-60172306D02*
X149139485Y-60124687D01*
X149139485Y-60124687D02*
X148949009Y-60077068D01*
X148949009Y-60077068D02*
X148806152Y-60077068D01*
X148806152Y-60077068D02*
X148615676Y-60124687D01*
X148615676Y-60124687D02*
X148520438Y-60172306D01*
X148520438Y-60172306D02*
X148425200Y-60267544D01*
X148425200Y-60267544D02*
X148377580Y-60410401D01*
X148377580Y-60410401D02*
X148377580Y-60648496D01*
X152425200Y-62743734D02*
X152377580Y-62600877D01*
X152377580Y-62600877D02*
X152377580Y-62362782D01*
X152377580Y-62362782D02*
X152425200Y-62267544D01*
X152425200Y-62267544D02*
X152472819Y-62219925D01*
X152472819Y-62219925D02*
X152568057Y-62172306D01*
X152568057Y-62172306D02*
X152663295Y-62172306D01*
X152663295Y-62172306D02*
X152758533Y-62219925D01*
X152758533Y-62219925D02*
X152806152Y-62267544D01*
X152806152Y-62267544D02*
X152853771Y-62362782D01*
X152853771Y-62362782D02*
X152901390Y-62553258D01*
X152901390Y-62553258D02*
X152949009Y-62648496D01*
X152949009Y-62648496D02*
X152996628Y-62696115D01*
X152996628Y-62696115D02*
X153091866Y-62743734D01*
X153091866Y-62743734D02*
X153187104Y-62743734D01*
X153187104Y-62743734D02*
X153282342Y-62696115D01*
X153282342Y-62696115D02*
X153329961Y-62648496D01*
X153329961Y-62648496D02*
X153377580Y-62553258D01*
X153377580Y-62553258D02*
X153377580Y-62315163D01*
X153377580Y-62315163D02*
X153329961Y-62172306D01*
X152472819Y-61172306D02*
X152425200Y-61219925D01*
X152425200Y-61219925D02*
X152377580Y-61362782D01*
X152377580Y-61362782D02*
X152377580Y-61458020D01*
X152377580Y-61458020D02*
X152425200Y-61600877D01*
X152425200Y-61600877D02*
X152520438Y-61696115D01*
X152520438Y-61696115D02*
X152615676Y-61743734D01*
X152615676Y-61743734D02*
X152806152Y-61791353D01*
X152806152Y-61791353D02*
X152949009Y-61791353D01*
X152949009Y-61791353D02*
X153139485Y-61743734D01*
X153139485Y-61743734D02*
X153234723Y-61696115D01*
X153234723Y-61696115D02*
X153329961Y-61600877D01*
X153329961Y-61600877D02*
X153377580Y-61458020D01*
X153377580Y-61458020D02*
X153377580Y-61362782D01*
X153377580Y-61362782D02*
X153329961Y-61219925D01*
X153329961Y-61219925D02*
X153282342Y-61172306D01*
X152377580Y-60267544D02*
X152377580Y-60743734D01*
X152377580Y-60743734D02*
X153377580Y-60743734D01*
X155377580Y-62838972D02*
X154377580Y-62505639D01*
X154377580Y-62505639D02*
X155377580Y-62172306D01*
X154377580Y-61838972D02*
X155377580Y-61838972D01*
X155377580Y-61838972D02*
X155377580Y-61600877D01*
X155377580Y-61600877D02*
X155329961Y-61458020D01*
X155329961Y-61458020D02*
X155234723Y-61362782D01*
X155234723Y-61362782D02*
X155139485Y-61315163D01*
X155139485Y-61315163D02*
X154949009Y-61267544D01*
X154949009Y-61267544D02*
X154806152Y-61267544D01*
X154806152Y-61267544D02*
X154615676Y-61315163D01*
X154615676Y-61315163D02*
X154520438Y-61362782D01*
X154520438Y-61362782D02*
X154425200Y-61458020D01*
X154425200Y-61458020D02*
X154377580Y-61600877D01*
X154377580Y-61600877D02*
X154377580Y-61838972D01*
X154377580Y-60838972D02*
X155377580Y-60838972D01*
X155377580Y-60838972D02*
X155377580Y-60600877D01*
X155377580Y-60600877D02*
X155329961Y-60458020D01*
X155329961Y-60458020D02*
X155234723Y-60362782D01*
X155234723Y-60362782D02*
X155139485Y-60315163D01*
X155139485Y-60315163D02*
X154949009Y-60267544D01*
X154949009Y-60267544D02*
X154806152Y-60267544D01*
X154806152Y-60267544D02*
X154615676Y-60315163D01*
X154615676Y-60315163D02*
X154520438Y-60362782D01*
X154520438Y-60362782D02*
X154425200Y-60458020D01*
X154425200Y-60458020D02*
X154377580Y-60600877D01*
X154377580Y-60600877D02*
X154377580Y-60838972D01*
D11*
X107305319Y-36999952D02*
X106305319Y-36999952D01*
X106305319Y-36999952D02*
X106305319Y-37238047D01*
X106305319Y-37238047D02*
X106352938Y-37380904D01*
X106352938Y-37380904D02*
X106448176Y-37476142D01*
X106448176Y-37476142D02*
X106543414Y-37523761D01*
X106543414Y-37523761D02*
X106733890Y-37571380D01*
X106733890Y-37571380D02*
X106876747Y-37571380D01*
X106876747Y-37571380D02*
X107067223Y-37523761D01*
X107067223Y-37523761D02*
X107162461Y-37476142D01*
X107162461Y-37476142D02*
X107257700Y-37380904D01*
X107257700Y-37380904D02*
X107305319Y-37238047D01*
X107305319Y-37238047D02*
X107305319Y-36999952D01*
X107400557Y-37761857D02*
X107400557Y-38523761D01*
X106305319Y-39238047D02*
X106305319Y-38761857D01*
X106305319Y-38761857D02*
X106781509Y-38714238D01*
X106781509Y-38714238D02*
X106733890Y-38761857D01*
X106733890Y-38761857D02*
X106686271Y-38857095D01*
X106686271Y-38857095D02*
X106686271Y-39095190D01*
X106686271Y-39095190D02*
X106733890Y-39190428D01*
X106733890Y-39190428D02*
X106781509Y-39238047D01*
X106781509Y-39238047D02*
X106876747Y-39285666D01*
X106876747Y-39285666D02*
X107114842Y-39285666D01*
X107114842Y-39285666D02*
X107210080Y-39238047D01*
X107210080Y-39238047D02*
X107257700Y-39190428D01*
X107257700Y-39190428D02*
X107305319Y-39095190D01*
X107305319Y-39095190D02*
X107305319Y-38857095D01*
X107305319Y-38857095D02*
X107257700Y-38761857D01*
X107257700Y-38761857D02*
X107210080Y-38714238D01*
X106985319Y-41667095D02*
X105985319Y-41667095D01*
X106985319Y-42238523D02*
X106413890Y-41809952D01*
X105985319Y-42238523D02*
X106556747Y-41667095D01*
X221605319Y-93673762D02*
X220605319Y-93673762D01*
X220605319Y-93673762D02*
X220605319Y-93911857D01*
X220605319Y-93911857D02*
X220652938Y-94054714D01*
X220652938Y-94054714D02*
X220748176Y-94149952D01*
X220748176Y-94149952D02*
X220843414Y-94197571D01*
X220843414Y-94197571D02*
X221033890Y-94245190D01*
X221033890Y-94245190D02*
X221176747Y-94245190D01*
X221176747Y-94245190D02*
X221367223Y-94197571D01*
X221367223Y-94197571D02*
X221462461Y-94149952D01*
X221462461Y-94149952D02*
X221557700Y-94054714D01*
X221557700Y-94054714D02*
X221605319Y-93911857D01*
X221605319Y-93911857D02*
X221605319Y-93673762D01*
X221700557Y-94435667D02*
X221700557Y-95197571D01*
X220605319Y-95911857D02*
X220605319Y-95435667D01*
X220605319Y-95435667D02*
X221081509Y-95388048D01*
X221081509Y-95388048D02*
X221033890Y-95435667D01*
X221033890Y-95435667D02*
X220986271Y-95530905D01*
X220986271Y-95530905D02*
X220986271Y-95769000D01*
X220986271Y-95769000D02*
X221033890Y-95864238D01*
X221033890Y-95864238D02*
X221081509Y-95911857D01*
X221081509Y-95911857D02*
X221176747Y-95959476D01*
X221176747Y-95959476D02*
X221414842Y-95959476D01*
X221414842Y-95959476D02*
X221510080Y-95911857D01*
X221510080Y-95911857D02*
X221557700Y-95864238D01*
X221557700Y-95864238D02*
X221605319Y-95769000D01*
X221605319Y-95769000D02*
X221605319Y-95530905D01*
X221605319Y-95530905D02*
X221557700Y-95435667D01*
X221557700Y-95435667D02*
X221510080Y-95388048D01*
X220605319Y-96578524D02*
X220605319Y-96673762D01*
X220605319Y-96673762D02*
X220652938Y-96769000D01*
X220652938Y-96769000D02*
X220700557Y-96816619D01*
X220700557Y-96816619D02*
X220795795Y-96864238D01*
X220795795Y-96864238D02*
X220986271Y-96911857D01*
X220986271Y-96911857D02*
X221224366Y-96911857D01*
X221224366Y-96911857D02*
X221414842Y-96864238D01*
X221414842Y-96864238D02*
X221510080Y-96816619D01*
X221510080Y-96816619D02*
X221557700Y-96769000D01*
X221557700Y-96769000D02*
X221605319Y-96673762D01*
X221605319Y-96673762D02*
X221605319Y-96578524D01*
X221605319Y-96578524D02*
X221557700Y-96483286D01*
X221557700Y-96483286D02*
X221510080Y-96435667D01*
X221510080Y-96435667D02*
X221414842Y-96388048D01*
X221414842Y-96388048D02*
X221224366Y-96340429D01*
X221224366Y-96340429D02*
X220986271Y-96340429D01*
X220986271Y-96340429D02*
X220795795Y-96388048D01*
X220795795Y-96388048D02*
X220700557Y-96435667D01*
X220700557Y-96435667D02*
X220652938Y-96483286D01*
X220652938Y-96483286D02*
X220605319Y-96578524D01*
X221285319Y-98817095D02*
X220285319Y-98817095D01*
X221285319Y-99388523D02*
X220713890Y-98959952D01*
X220285319Y-99388523D02*
X220856747Y-98817095D01*
X126355319Y-55573762D02*
X125355319Y-55573762D01*
X125355319Y-55573762D02*
X125355319Y-55811857D01*
X125355319Y-55811857D02*
X125402938Y-55954714D01*
X125402938Y-55954714D02*
X125498176Y-56049952D01*
X125498176Y-56049952D02*
X125593414Y-56097571D01*
X125593414Y-56097571D02*
X125783890Y-56145190D01*
X125783890Y-56145190D02*
X125926747Y-56145190D01*
X125926747Y-56145190D02*
X126117223Y-56097571D01*
X126117223Y-56097571D02*
X126212461Y-56049952D01*
X126212461Y-56049952D02*
X126307700Y-55954714D01*
X126307700Y-55954714D02*
X126355319Y-55811857D01*
X126355319Y-55811857D02*
X126355319Y-55573762D01*
X126450557Y-56335667D02*
X126450557Y-57097571D01*
X125450557Y-57288048D02*
X125402938Y-57335667D01*
X125402938Y-57335667D02*
X125355319Y-57430905D01*
X125355319Y-57430905D02*
X125355319Y-57669000D01*
X125355319Y-57669000D02*
X125402938Y-57764238D01*
X125402938Y-57764238D02*
X125450557Y-57811857D01*
X125450557Y-57811857D02*
X125545795Y-57859476D01*
X125545795Y-57859476D02*
X125641033Y-57859476D01*
X125641033Y-57859476D02*
X125783890Y-57811857D01*
X125783890Y-57811857D02*
X126355319Y-57240429D01*
X126355319Y-57240429D02*
X126355319Y-57859476D01*
X126355319Y-58811857D02*
X126355319Y-58240429D01*
X126355319Y-58526143D02*
X125355319Y-58526143D01*
X125355319Y-58526143D02*
X125498176Y-58430905D01*
X125498176Y-58430905D02*
X125593414Y-58335667D01*
X125593414Y-58335667D02*
X125641033Y-58240429D01*
X126035319Y-60717095D02*
X125035319Y-60717095D01*
X126035319Y-61288523D02*
X125463890Y-60859952D01*
X125035319Y-61288523D02*
X125606747Y-60717095D01*
X316855319Y-55573762D02*
X315855319Y-55573762D01*
X315855319Y-55573762D02*
X315855319Y-55811857D01*
X315855319Y-55811857D02*
X315902938Y-55954714D01*
X315902938Y-55954714D02*
X315998176Y-56049952D01*
X315998176Y-56049952D02*
X316093414Y-56097571D01*
X316093414Y-56097571D02*
X316283890Y-56145190D01*
X316283890Y-56145190D02*
X316426747Y-56145190D01*
X316426747Y-56145190D02*
X316617223Y-56097571D01*
X316617223Y-56097571D02*
X316712461Y-56049952D01*
X316712461Y-56049952D02*
X316807700Y-55954714D01*
X316807700Y-55954714D02*
X316855319Y-55811857D01*
X316855319Y-55811857D02*
X316855319Y-55573762D01*
X316950557Y-56335667D02*
X316950557Y-57097571D01*
X315950557Y-57288048D02*
X315902938Y-57335667D01*
X315902938Y-57335667D02*
X315855319Y-57430905D01*
X315855319Y-57430905D02*
X315855319Y-57669000D01*
X315855319Y-57669000D02*
X315902938Y-57764238D01*
X315902938Y-57764238D02*
X315950557Y-57811857D01*
X315950557Y-57811857D02*
X316045795Y-57859476D01*
X316045795Y-57859476D02*
X316141033Y-57859476D01*
X316141033Y-57859476D02*
X316283890Y-57811857D01*
X316283890Y-57811857D02*
X316855319Y-57240429D01*
X316855319Y-57240429D02*
X316855319Y-57859476D01*
X316283890Y-58430905D02*
X316236271Y-58335667D01*
X316236271Y-58335667D02*
X316188652Y-58288048D01*
X316188652Y-58288048D02*
X316093414Y-58240429D01*
X316093414Y-58240429D02*
X316045795Y-58240429D01*
X316045795Y-58240429D02*
X315950557Y-58288048D01*
X315950557Y-58288048D02*
X315902938Y-58335667D01*
X315902938Y-58335667D02*
X315855319Y-58430905D01*
X315855319Y-58430905D02*
X315855319Y-58621381D01*
X315855319Y-58621381D02*
X315902938Y-58716619D01*
X315902938Y-58716619D02*
X315950557Y-58764238D01*
X315950557Y-58764238D02*
X316045795Y-58811857D01*
X316045795Y-58811857D02*
X316093414Y-58811857D01*
X316093414Y-58811857D02*
X316188652Y-58764238D01*
X316188652Y-58764238D02*
X316236271Y-58716619D01*
X316236271Y-58716619D02*
X316283890Y-58621381D01*
X316283890Y-58621381D02*
X316283890Y-58430905D01*
X316283890Y-58430905D02*
X316331509Y-58335667D01*
X316331509Y-58335667D02*
X316379128Y-58288048D01*
X316379128Y-58288048D02*
X316474366Y-58240429D01*
X316474366Y-58240429D02*
X316664842Y-58240429D01*
X316664842Y-58240429D02*
X316760080Y-58288048D01*
X316760080Y-58288048D02*
X316807700Y-58335667D01*
X316807700Y-58335667D02*
X316855319Y-58430905D01*
X316855319Y-58430905D02*
X316855319Y-58621381D01*
X316855319Y-58621381D02*
X316807700Y-58716619D01*
X316807700Y-58716619D02*
X316760080Y-58764238D01*
X316760080Y-58764238D02*
X316664842Y-58811857D01*
X316664842Y-58811857D02*
X316474366Y-58811857D01*
X316474366Y-58811857D02*
X316379128Y-58764238D01*
X316379128Y-58764238D02*
X316331509Y-58716619D01*
X316331509Y-58716619D02*
X316283890Y-58621381D01*
X316535319Y-60717095D02*
X315535319Y-60717095D01*
X316535319Y-61288523D02*
X315963890Y-60859952D01*
X315535319Y-61288523D02*
X316106747Y-60717095D01*
X335905319Y-36523762D02*
X334905319Y-36523762D01*
X334905319Y-36523762D02*
X334905319Y-36761857D01*
X334905319Y-36761857D02*
X334952938Y-36904714D01*
X334952938Y-36904714D02*
X335048176Y-36999952D01*
X335048176Y-36999952D02*
X335143414Y-37047571D01*
X335143414Y-37047571D02*
X335333890Y-37095190D01*
X335333890Y-37095190D02*
X335476747Y-37095190D01*
X335476747Y-37095190D02*
X335667223Y-37047571D01*
X335667223Y-37047571D02*
X335762461Y-36999952D01*
X335762461Y-36999952D02*
X335857700Y-36904714D01*
X335857700Y-36904714D02*
X335905319Y-36761857D01*
X335905319Y-36761857D02*
X335905319Y-36523762D01*
X336000557Y-37285667D02*
X336000557Y-38047571D01*
X335905319Y-38809476D02*
X335905319Y-38238048D01*
X335905319Y-38523762D02*
X334905319Y-38523762D01*
X334905319Y-38523762D02*
X335048176Y-38428524D01*
X335048176Y-38428524D02*
X335143414Y-38333286D01*
X335143414Y-38333286D02*
X335191033Y-38238048D01*
X335238652Y-39666619D02*
X335905319Y-39666619D01*
X334857700Y-39428524D02*
X335571985Y-39190429D01*
X335571985Y-39190429D02*
X335571985Y-39809476D01*
X335585319Y-41667095D02*
X334585319Y-41667095D01*
X335585319Y-42238523D02*
X335013890Y-41809952D01*
X334585319Y-42238523D02*
X335156747Y-41667095D01*
X88255319Y-55573762D02*
X87255319Y-55573762D01*
X87255319Y-55573762D02*
X87255319Y-55811857D01*
X87255319Y-55811857D02*
X87302938Y-55954714D01*
X87302938Y-55954714D02*
X87398176Y-56049952D01*
X87398176Y-56049952D02*
X87493414Y-56097571D01*
X87493414Y-56097571D02*
X87683890Y-56145190D01*
X87683890Y-56145190D02*
X87826747Y-56145190D01*
X87826747Y-56145190D02*
X88017223Y-56097571D01*
X88017223Y-56097571D02*
X88112461Y-56049952D01*
X88112461Y-56049952D02*
X88207700Y-55954714D01*
X88207700Y-55954714D02*
X88255319Y-55811857D01*
X88255319Y-55811857D02*
X88255319Y-55573762D01*
X88350557Y-56335667D02*
X88350557Y-57097571D01*
X88255319Y-57859476D02*
X88255319Y-57288048D01*
X88255319Y-57573762D02*
X87255319Y-57573762D01*
X87255319Y-57573762D02*
X87398176Y-57478524D01*
X87398176Y-57478524D02*
X87493414Y-57383286D01*
X87493414Y-57383286D02*
X87541033Y-57288048D01*
X88255319Y-58335667D02*
X88255319Y-58526143D01*
X88255319Y-58526143D02*
X88207700Y-58621381D01*
X88207700Y-58621381D02*
X88160080Y-58669000D01*
X88160080Y-58669000D02*
X88017223Y-58764238D01*
X88017223Y-58764238D02*
X87826747Y-58811857D01*
X87826747Y-58811857D02*
X87445795Y-58811857D01*
X87445795Y-58811857D02*
X87350557Y-58764238D01*
X87350557Y-58764238D02*
X87302938Y-58716619D01*
X87302938Y-58716619D02*
X87255319Y-58621381D01*
X87255319Y-58621381D02*
X87255319Y-58430905D01*
X87255319Y-58430905D02*
X87302938Y-58335667D01*
X87302938Y-58335667D02*
X87350557Y-58288048D01*
X87350557Y-58288048D02*
X87445795Y-58240429D01*
X87445795Y-58240429D02*
X87683890Y-58240429D01*
X87683890Y-58240429D02*
X87779128Y-58288048D01*
X87779128Y-58288048D02*
X87826747Y-58335667D01*
X87826747Y-58335667D02*
X87874366Y-58430905D01*
X87874366Y-58430905D02*
X87874366Y-58621381D01*
X87874366Y-58621381D02*
X87826747Y-58716619D01*
X87826747Y-58716619D02*
X87779128Y-58764238D01*
X87779128Y-58764238D02*
X87683890Y-58811857D01*
X87935319Y-60717095D02*
X86935319Y-60717095D01*
X87935319Y-61288523D02*
X87363890Y-60859952D01*
X86935319Y-61288523D02*
X87506747Y-60717095D01*
X202555319Y-36999952D02*
X201555319Y-36999952D01*
X201555319Y-36999952D02*
X201555319Y-37238047D01*
X201555319Y-37238047D02*
X201602938Y-37380904D01*
X201602938Y-37380904D02*
X201698176Y-37476142D01*
X201698176Y-37476142D02*
X201793414Y-37523761D01*
X201793414Y-37523761D02*
X201983890Y-37571380D01*
X201983890Y-37571380D02*
X202126747Y-37571380D01*
X202126747Y-37571380D02*
X202317223Y-37523761D01*
X202317223Y-37523761D02*
X202412461Y-37476142D01*
X202412461Y-37476142D02*
X202507700Y-37380904D01*
X202507700Y-37380904D02*
X202555319Y-37238047D01*
X202555319Y-37238047D02*
X202555319Y-36999952D01*
X202650557Y-37761857D02*
X202650557Y-38523761D01*
X201555319Y-38666619D02*
X201555319Y-39333285D01*
X201555319Y-39333285D02*
X202555319Y-38904714D01*
X202235319Y-41667095D02*
X201235319Y-41667095D01*
X202235319Y-42238523D02*
X201663890Y-41809952D01*
X201235319Y-42238523D02*
X201806747Y-41667095D01*
X50155319Y-93673762D02*
X49155319Y-93673762D01*
X49155319Y-93673762D02*
X49155319Y-93911857D01*
X49155319Y-93911857D02*
X49202938Y-94054714D01*
X49202938Y-94054714D02*
X49298176Y-94149952D01*
X49298176Y-94149952D02*
X49393414Y-94197571D01*
X49393414Y-94197571D02*
X49583890Y-94245190D01*
X49583890Y-94245190D02*
X49726747Y-94245190D01*
X49726747Y-94245190D02*
X49917223Y-94197571D01*
X49917223Y-94197571D02*
X50012461Y-94149952D01*
X50012461Y-94149952D02*
X50107700Y-94054714D01*
X50107700Y-94054714D02*
X50155319Y-93911857D01*
X50155319Y-93911857D02*
X50155319Y-93673762D01*
X50250557Y-94435667D02*
X50250557Y-95197571D01*
X49488652Y-95864238D02*
X50155319Y-95864238D01*
X49107700Y-95626143D02*
X49821985Y-95388048D01*
X49821985Y-95388048D02*
X49821985Y-96007095D01*
X49488652Y-96816619D02*
X50155319Y-96816619D01*
X49107700Y-96578524D02*
X49821985Y-96340429D01*
X49821985Y-96340429D02*
X49821985Y-96959476D01*
X49835319Y-98817095D02*
X48835319Y-98817095D01*
X49835319Y-99388523D02*
X49263890Y-98959952D01*
X48835319Y-99388523D02*
X49406747Y-98817095D01*
X43011569Y-112723762D02*
X42011569Y-112723762D01*
X42011569Y-112723762D02*
X42011569Y-112961857D01*
X42011569Y-112961857D02*
X42059188Y-113104714D01*
X42059188Y-113104714D02*
X42154426Y-113199952D01*
X42154426Y-113199952D02*
X42249664Y-113247571D01*
X42249664Y-113247571D02*
X42440140Y-113295190D01*
X42440140Y-113295190D02*
X42582997Y-113295190D01*
X42582997Y-113295190D02*
X42773473Y-113247571D01*
X42773473Y-113247571D02*
X42868711Y-113199952D01*
X42868711Y-113199952D02*
X42963950Y-113104714D01*
X42963950Y-113104714D02*
X43011569Y-112961857D01*
X43011569Y-112961857D02*
X43011569Y-112723762D01*
X43106807Y-113485667D02*
X43106807Y-114247571D01*
X42011569Y-114961857D02*
X42011569Y-114485667D01*
X42011569Y-114485667D02*
X42487759Y-114438048D01*
X42487759Y-114438048D02*
X42440140Y-114485667D01*
X42440140Y-114485667D02*
X42392521Y-114580905D01*
X42392521Y-114580905D02*
X42392521Y-114819000D01*
X42392521Y-114819000D02*
X42440140Y-114914238D01*
X42440140Y-114914238D02*
X42487759Y-114961857D01*
X42487759Y-114961857D02*
X42582997Y-115009476D01*
X42582997Y-115009476D02*
X42821092Y-115009476D01*
X42821092Y-115009476D02*
X42916330Y-114961857D01*
X42916330Y-114961857D02*
X42963950Y-114914238D01*
X42963950Y-114914238D02*
X43011569Y-114819000D01*
X43011569Y-114819000D02*
X43011569Y-114580905D01*
X43011569Y-114580905D02*
X42963950Y-114485667D01*
X42963950Y-114485667D02*
X42916330Y-114438048D01*
X42011569Y-115866619D02*
X42011569Y-115676143D01*
X42011569Y-115676143D02*
X42059188Y-115580905D01*
X42059188Y-115580905D02*
X42106807Y-115533286D01*
X42106807Y-115533286D02*
X42249664Y-115438048D01*
X42249664Y-115438048D02*
X42440140Y-115390429D01*
X42440140Y-115390429D02*
X42821092Y-115390429D01*
X42821092Y-115390429D02*
X42916330Y-115438048D01*
X42916330Y-115438048D02*
X42963950Y-115485667D01*
X42963950Y-115485667D02*
X43011569Y-115580905D01*
X43011569Y-115580905D02*
X43011569Y-115771381D01*
X43011569Y-115771381D02*
X42963950Y-115866619D01*
X42963950Y-115866619D02*
X42916330Y-115914238D01*
X42916330Y-115914238D02*
X42821092Y-115961857D01*
X42821092Y-115961857D02*
X42582997Y-115961857D01*
X42582997Y-115961857D02*
X42487759Y-115914238D01*
X42487759Y-115914238D02*
X42440140Y-115866619D01*
X42440140Y-115866619D02*
X42392521Y-115771381D01*
X42392521Y-115771381D02*
X42392521Y-115580905D01*
X42392521Y-115580905D02*
X42440140Y-115485667D01*
X42440140Y-115485667D02*
X42487759Y-115438048D01*
X42487759Y-115438048D02*
X42582997Y-115390429D01*
X42691569Y-117867095D02*
X41691569Y-117867095D01*
X42691569Y-118438523D02*
X42120140Y-118009952D01*
X41691569Y-118438523D02*
X42262997Y-117867095D01*
X50155319Y-55573762D02*
X49155319Y-55573762D01*
X49155319Y-55573762D02*
X49155319Y-55811857D01*
X49155319Y-55811857D02*
X49202938Y-55954714D01*
X49202938Y-55954714D02*
X49298176Y-56049952D01*
X49298176Y-56049952D02*
X49393414Y-56097571D01*
X49393414Y-56097571D02*
X49583890Y-56145190D01*
X49583890Y-56145190D02*
X49726747Y-56145190D01*
X49726747Y-56145190D02*
X49917223Y-56097571D01*
X49917223Y-56097571D02*
X50012461Y-56049952D01*
X50012461Y-56049952D02*
X50107700Y-55954714D01*
X50107700Y-55954714D02*
X50155319Y-55811857D01*
X50155319Y-55811857D02*
X50155319Y-55573762D01*
X50250557Y-56335667D02*
X50250557Y-57097571D01*
X50155319Y-57859476D02*
X50155319Y-57288048D01*
X50155319Y-57573762D02*
X49155319Y-57573762D01*
X49155319Y-57573762D02*
X49298176Y-57478524D01*
X49298176Y-57478524D02*
X49393414Y-57383286D01*
X49393414Y-57383286D02*
X49441033Y-57288048D01*
X49155319Y-58192810D02*
X49155319Y-58859476D01*
X49155319Y-58859476D02*
X50155319Y-58430905D01*
X49835319Y-60717095D02*
X48835319Y-60717095D01*
X49835319Y-61288523D02*
X49263890Y-60859952D01*
X48835319Y-61288523D02*
X49406747Y-60717095D01*
X278755319Y-93673762D02*
X277755319Y-93673762D01*
X277755319Y-93673762D02*
X277755319Y-93911857D01*
X277755319Y-93911857D02*
X277802938Y-94054714D01*
X277802938Y-94054714D02*
X277898176Y-94149952D01*
X277898176Y-94149952D02*
X277993414Y-94197571D01*
X277993414Y-94197571D02*
X278183890Y-94245190D01*
X278183890Y-94245190D02*
X278326747Y-94245190D01*
X278326747Y-94245190D02*
X278517223Y-94197571D01*
X278517223Y-94197571D02*
X278612461Y-94149952D01*
X278612461Y-94149952D02*
X278707700Y-94054714D01*
X278707700Y-94054714D02*
X278755319Y-93911857D01*
X278755319Y-93911857D02*
X278755319Y-93673762D01*
X278850557Y-94435667D02*
X278850557Y-95197571D01*
X277755319Y-95911857D02*
X277755319Y-95435667D01*
X277755319Y-95435667D02*
X278231509Y-95388048D01*
X278231509Y-95388048D02*
X278183890Y-95435667D01*
X278183890Y-95435667D02*
X278136271Y-95530905D01*
X278136271Y-95530905D02*
X278136271Y-95769000D01*
X278136271Y-95769000D02*
X278183890Y-95864238D01*
X278183890Y-95864238D02*
X278231509Y-95911857D01*
X278231509Y-95911857D02*
X278326747Y-95959476D01*
X278326747Y-95959476D02*
X278564842Y-95959476D01*
X278564842Y-95959476D02*
X278660080Y-95911857D01*
X278660080Y-95911857D02*
X278707700Y-95864238D01*
X278707700Y-95864238D02*
X278755319Y-95769000D01*
X278755319Y-95769000D02*
X278755319Y-95530905D01*
X278755319Y-95530905D02*
X278707700Y-95435667D01*
X278707700Y-95435667D02*
X278660080Y-95388048D01*
X277755319Y-96292810D02*
X277755319Y-96911857D01*
X277755319Y-96911857D02*
X278136271Y-96578524D01*
X278136271Y-96578524D02*
X278136271Y-96721381D01*
X278136271Y-96721381D02*
X278183890Y-96816619D01*
X278183890Y-96816619D02*
X278231509Y-96864238D01*
X278231509Y-96864238D02*
X278326747Y-96911857D01*
X278326747Y-96911857D02*
X278564842Y-96911857D01*
X278564842Y-96911857D02*
X278660080Y-96864238D01*
X278660080Y-96864238D02*
X278707700Y-96816619D01*
X278707700Y-96816619D02*
X278755319Y-96721381D01*
X278755319Y-96721381D02*
X278755319Y-96435667D01*
X278755319Y-96435667D02*
X278707700Y-96340429D01*
X278707700Y-96340429D02*
X278660080Y-96292810D01*
X278435319Y-98817095D02*
X277435319Y-98817095D01*
X278435319Y-99388523D02*
X277863890Y-98959952D01*
X277435319Y-99388523D02*
X278006747Y-98817095D01*
X221605319Y-55573762D02*
X220605319Y-55573762D01*
X220605319Y-55573762D02*
X220605319Y-55811857D01*
X220605319Y-55811857D02*
X220652938Y-55954714D01*
X220652938Y-55954714D02*
X220748176Y-56049952D01*
X220748176Y-56049952D02*
X220843414Y-56097571D01*
X220843414Y-56097571D02*
X221033890Y-56145190D01*
X221033890Y-56145190D02*
X221176747Y-56145190D01*
X221176747Y-56145190D02*
X221367223Y-56097571D01*
X221367223Y-56097571D02*
X221462461Y-56049952D01*
X221462461Y-56049952D02*
X221557700Y-55954714D01*
X221557700Y-55954714D02*
X221605319Y-55811857D01*
X221605319Y-55811857D02*
X221605319Y-55573762D01*
X221700557Y-56335667D02*
X221700557Y-57097571D01*
X220700557Y-57288048D02*
X220652938Y-57335667D01*
X220652938Y-57335667D02*
X220605319Y-57430905D01*
X220605319Y-57430905D02*
X220605319Y-57669000D01*
X220605319Y-57669000D02*
X220652938Y-57764238D01*
X220652938Y-57764238D02*
X220700557Y-57811857D01*
X220700557Y-57811857D02*
X220795795Y-57859476D01*
X220795795Y-57859476D02*
X220891033Y-57859476D01*
X220891033Y-57859476D02*
X221033890Y-57811857D01*
X221033890Y-57811857D02*
X221605319Y-57240429D01*
X221605319Y-57240429D02*
X221605319Y-57859476D01*
X220605319Y-58192810D02*
X220605319Y-58811857D01*
X220605319Y-58811857D02*
X220986271Y-58478524D01*
X220986271Y-58478524D02*
X220986271Y-58621381D01*
X220986271Y-58621381D02*
X221033890Y-58716619D01*
X221033890Y-58716619D02*
X221081509Y-58764238D01*
X221081509Y-58764238D02*
X221176747Y-58811857D01*
X221176747Y-58811857D02*
X221414842Y-58811857D01*
X221414842Y-58811857D02*
X221510080Y-58764238D01*
X221510080Y-58764238D02*
X221557700Y-58716619D01*
X221557700Y-58716619D02*
X221605319Y-58621381D01*
X221605319Y-58621381D02*
X221605319Y-58335667D01*
X221605319Y-58335667D02*
X221557700Y-58240429D01*
X221557700Y-58240429D02*
X221510080Y-58192810D01*
X221285319Y-60717095D02*
X220285319Y-60717095D01*
X221285319Y-61288523D02*
X220713890Y-60859952D01*
X220285319Y-61288523D02*
X220856747Y-60717095D01*
X240655319Y-93673762D02*
X239655319Y-93673762D01*
X239655319Y-93673762D02*
X239655319Y-93911857D01*
X239655319Y-93911857D02*
X239702938Y-94054714D01*
X239702938Y-94054714D02*
X239798176Y-94149952D01*
X239798176Y-94149952D02*
X239893414Y-94197571D01*
X239893414Y-94197571D02*
X240083890Y-94245190D01*
X240083890Y-94245190D02*
X240226747Y-94245190D01*
X240226747Y-94245190D02*
X240417223Y-94197571D01*
X240417223Y-94197571D02*
X240512461Y-94149952D01*
X240512461Y-94149952D02*
X240607700Y-94054714D01*
X240607700Y-94054714D02*
X240655319Y-93911857D01*
X240655319Y-93911857D02*
X240655319Y-93673762D01*
X240750557Y-94435667D02*
X240750557Y-95197571D01*
X239655319Y-95911857D02*
X239655319Y-95435667D01*
X239655319Y-95435667D02*
X240131509Y-95388048D01*
X240131509Y-95388048D02*
X240083890Y-95435667D01*
X240083890Y-95435667D02*
X240036271Y-95530905D01*
X240036271Y-95530905D02*
X240036271Y-95769000D01*
X240036271Y-95769000D02*
X240083890Y-95864238D01*
X240083890Y-95864238D02*
X240131509Y-95911857D01*
X240131509Y-95911857D02*
X240226747Y-95959476D01*
X240226747Y-95959476D02*
X240464842Y-95959476D01*
X240464842Y-95959476D02*
X240560080Y-95911857D01*
X240560080Y-95911857D02*
X240607700Y-95864238D01*
X240607700Y-95864238D02*
X240655319Y-95769000D01*
X240655319Y-95769000D02*
X240655319Y-95530905D01*
X240655319Y-95530905D02*
X240607700Y-95435667D01*
X240607700Y-95435667D02*
X240560080Y-95388048D01*
X240655319Y-96911857D02*
X240655319Y-96340429D01*
X240655319Y-96626143D02*
X239655319Y-96626143D01*
X239655319Y-96626143D02*
X239798176Y-96530905D01*
X239798176Y-96530905D02*
X239893414Y-96435667D01*
X239893414Y-96435667D02*
X239941033Y-96340429D01*
X240335319Y-98817095D02*
X239335319Y-98817095D01*
X240335319Y-99388523D02*
X239763890Y-98959952D01*
X239335319Y-99388523D02*
X239906747Y-98817095D01*
X340667819Y-55573762D02*
X339667819Y-55573762D01*
X339667819Y-55573762D02*
X339667819Y-55811857D01*
X339667819Y-55811857D02*
X339715438Y-55954714D01*
X339715438Y-55954714D02*
X339810676Y-56049952D01*
X339810676Y-56049952D02*
X339905914Y-56097571D01*
X339905914Y-56097571D02*
X340096390Y-56145190D01*
X340096390Y-56145190D02*
X340239247Y-56145190D01*
X340239247Y-56145190D02*
X340429723Y-56097571D01*
X340429723Y-56097571D02*
X340524961Y-56049952D01*
X340524961Y-56049952D02*
X340620200Y-55954714D01*
X340620200Y-55954714D02*
X340667819Y-55811857D01*
X340667819Y-55811857D02*
X340667819Y-55573762D01*
X340763057Y-56335667D02*
X340763057Y-57097571D01*
X339763057Y-57288048D02*
X339715438Y-57335667D01*
X339715438Y-57335667D02*
X339667819Y-57430905D01*
X339667819Y-57430905D02*
X339667819Y-57669000D01*
X339667819Y-57669000D02*
X339715438Y-57764238D01*
X339715438Y-57764238D02*
X339763057Y-57811857D01*
X339763057Y-57811857D02*
X339858295Y-57859476D01*
X339858295Y-57859476D02*
X339953533Y-57859476D01*
X339953533Y-57859476D02*
X340096390Y-57811857D01*
X340096390Y-57811857D02*
X340667819Y-57240429D01*
X340667819Y-57240429D02*
X340667819Y-57859476D01*
X340667819Y-58335667D02*
X340667819Y-58526143D01*
X340667819Y-58526143D02*
X340620200Y-58621381D01*
X340620200Y-58621381D02*
X340572580Y-58669000D01*
X340572580Y-58669000D02*
X340429723Y-58764238D01*
X340429723Y-58764238D02*
X340239247Y-58811857D01*
X340239247Y-58811857D02*
X339858295Y-58811857D01*
X339858295Y-58811857D02*
X339763057Y-58764238D01*
X339763057Y-58764238D02*
X339715438Y-58716619D01*
X339715438Y-58716619D02*
X339667819Y-58621381D01*
X339667819Y-58621381D02*
X339667819Y-58430905D01*
X339667819Y-58430905D02*
X339715438Y-58335667D01*
X339715438Y-58335667D02*
X339763057Y-58288048D01*
X339763057Y-58288048D02*
X339858295Y-58240429D01*
X339858295Y-58240429D02*
X340096390Y-58240429D01*
X340096390Y-58240429D02*
X340191628Y-58288048D01*
X340191628Y-58288048D02*
X340239247Y-58335667D01*
X340239247Y-58335667D02*
X340286866Y-58430905D01*
X340286866Y-58430905D02*
X340286866Y-58621381D01*
X340286866Y-58621381D02*
X340239247Y-58716619D01*
X340239247Y-58716619D02*
X340191628Y-58764238D01*
X340191628Y-58764238D02*
X340096390Y-58811857D01*
X340347819Y-60717095D02*
X339347819Y-60717095D01*
X340347819Y-61288523D02*
X339776390Y-60859952D01*
X339347819Y-61288523D02*
X339919247Y-60717095D01*
X26342819Y-55573762D02*
X25342819Y-55573762D01*
X25342819Y-55573762D02*
X25342819Y-55811857D01*
X25342819Y-55811857D02*
X25390438Y-55954714D01*
X25390438Y-55954714D02*
X25485676Y-56049952D01*
X25485676Y-56049952D02*
X25580914Y-56097571D01*
X25580914Y-56097571D02*
X25771390Y-56145190D01*
X25771390Y-56145190D02*
X25914247Y-56145190D01*
X25914247Y-56145190D02*
X26104723Y-56097571D01*
X26104723Y-56097571D02*
X26199961Y-56049952D01*
X26199961Y-56049952D02*
X26295200Y-55954714D01*
X26295200Y-55954714D02*
X26342819Y-55811857D01*
X26342819Y-55811857D02*
X26342819Y-55573762D01*
X26438057Y-56335667D02*
X26438057Y-57097571D01*
X26342819Y-57859476D02*
X26342819Y-57288048D01*
X26342819Y-57573762D02*
X25342819Y-57573762D01*
X25342819Y-57573762D02*
X25485676Y-57478524D01*
X25485676Y-57478524D02*
X25580914Y-57383286D01*
X25580914Y-57383286D02*
X25628533Y-57288048D01*
X25342819Y-58716619D02*
X25342819Y-58526143D01*
X25342819Y-58526143D02*
X25390438Y-58430905D01*
X25390438Y-58430905D02*
X25438057Y-58383286D01*
X25438057Y-58383286D02*
X25580914Y-58288048D01*
X25580914Y-58288048D02*
X25771390Y-58240429D01*
X25771390Y-58240429D02*
X26152342Y-58240429D01*
X26152342Y-58240429D02*
X26247580Y-58288048D01*
X26247580Y-58288048D02*
X26295200Y-58335667D01*
X26295200Y-58335667D02*
X26342819Y-58430905D01*
X26342819Y-58430905D02*
X26342819Y-58621381D01*
X26342819Y-58621381D02*
X26295200Y-58716619D01*
X26295200Y-58716619D02*
X26247580Y-58764238D01*
X26247580Y-58764238D02*
X26152342Y-58811857D01*
X26152342Y-58811857D02*
X25914247Y-58811857D01*
X25914247Y-58811857D02*
X25819009Y-58764238D01*
X25819009Y-58764238D02*
X25771390Y-58716619D01*
X25771390Y-58716619D02*
X25723771Y-58621381D01*
X25723771Y-58621381D02*
X25723771Y-58430905D01*
X25723771Y-58430905D02*
X25771390Y-58335667D01*
X25771390Y-58335667D02*
X25819009Y-58288048D01*
X25819009Y-58288048D02*
X25914247Y-58240429D01*
X26022819Y-60717095D02*
X25022819Y-60717095D01*
X26022819Y-61288523D02*
X25451390Y-60859952D01*
X25022819Y-61288523D02*
X25594247Y-60717095D01*
X107305319Y-55573762D02*
X106305319Y-55573762D01*
X106305319Y-55573762D02*
X106305319Y-55811857D01*
X106305319Y-55811857D02*
X106352938Y-55954714D01*
X106352938Y-55954714D02*
X106448176Y-56049952D01*
X106448176Y-56049952D02*
X106543414Y-56097571D01*
X106543414Y-56097571D02*
X106733890Y-56145190D01*
X106733890Y-56145190D02*
X106876747Y-56145190D01*
X106876747Y-56145190D02*
X107067223Y-56097571D01*
X107067223Y-56097571D02*
X107162461Y-56049952D01*
X107162461Y-56049952D02*
X107257700Y-55954714D01*
X107257700Y-55954714D02*
X107305319Y-55811857D01*
X107305319Y-55811857D02*
X107305319Y-55573762D01*
X107400557Y-56335667D02*
X107400557Y-57097571D01*
X106400557Y-57288048D02*
X106352938Y-57335667D01*
X106352938Y-57335667D02*
X106305319Y-57430905D01*
X106305319Y-57430905D02*
X106305319Y-57669000D01*
X106305319Y-57669000D02*
X106352938Y-57764238D01*
X106352938Y-57764238D02*
X106400557Y-57811857D01*
X106400557Y-57811857D02*
X106495795Y-57859476D01*
X106495795Y-57859476D02*
X106591033Y-57859476D01*
X106591033Y-57859476D02*
X106733890Y-57811857D01*
X106733890Y-57811857D02*
X107305319Y-57240429D01*
X107305319Y-57240429D02*
X107305319Y-57859476D01*
X106305319Y-58478524D02*
X106305319Y-58573762D01*
X106305319Y-58573762D02*
X106352938Y-58669000D01*
X106352938Y-58669000D02*
X106400557Y-58716619D01*
X106400557Y-58716619D02*
X106495795Y-58764238D01*
X106495795Y-58764238D02*
X106686271Y-58811857D01*
X106686271Y-58811857D02*
X106924366Y-58811857D01*
X106924366Y-58811857D02*
X107114842Y-58764238D01*
X107114842Y-58764238D02*
X107210080Y-58716619D01*
X107210080Y-58716619D02*
X107257700Y-58669000D01*
X107257700Y-58669000D02*
X107305319Y-58573762D01*
X107305319Y-58573762D02*
X107305319Y-58478524D01*
X107305319Y-58478524D02*
X107257700Y-58383286D01*
X107257700Y-58383286D02*
X107210080Y-58335667D01*
X107210080Y-58335667D02*
X107114842Y-58288048D01*
X107114842Y-58288048D02*
X106924366Y-58240429D01*
X106924366Y-58240429D02*
X106686271Y-58240429D01*
X106686271Y-58240429D02*
X106495795Y-58288048D01*
X106495795Y-58288048D02*
X106400557Y-58335667D01*
X106400557Y-58335667D02*
X106352938Y-58383286D01*
X106352938Y-58383286D02*
X106305319Y-58478524D01*
X106985319Y-60717095D02*
X105985319Y-60717095D01*
X106985319Y-61288523D02*
X106413890Y-60859952D01*
X105985319Y-61288523D02*
X106556747Y-60717095D01*
X23961569Y-74623762D02*
X22961569Y-74623762D01*
X22961569Y-74623762D02*
X22961569Y-74861857D01*
X22961569Y-74861857D02*
X23009188Y-75004714D01*
X23009188Y-75004714D02*
X23104426Y-75099952D01*
X23104426Y-75099952D02*
X23199664Y-75147571D01*
X23199664Y-75147571D02*
X23390140Y-75195190D01*
X23390140Y-75195190D02*
X23532997Y-75195190D01*
X23532997Y-75195190D02*
X23723473Y-75147571D01*
X23723473Y-75147571D02*
X23818711Y-75099952D01*
X23818711Y-75099952D02*
X23913950Y-75004714D01*
X23913950Y-75004714D02*
X23961569Y-74861857D01*
X23961569Y-74861857D02*
X23961569Y-74623762D01*
X24056807Y-75385667D02*
X24056807Y-76147571D01*
X22961569Y-76290429D02*
X22961569Y-76909476D01*
X22961569Y-76909476D02*
X23342521Y-76576143D01*
X23342521Y-76576143D02*
X23342521Y-76719000D01*
X23342521Y-76719000D02*
X23390140Y-76814238D01*
X23390140Y-76814238D02*
X23437759Y-76861857D01*
X23437759Y-76861857D02*
X23532997Y-76909476D01*
X23532997Y-76909476D02*
X23771092Y-76909476D01*
X23771092Y-76909476D02*
X23866330Y-76861857D01*
X23866330Y-76861857D02*
X23913950Y-76814238D01*
X23913950Y-76814238D02*
X23961569Y-76719000D01*
X23961569Y-76719000D02*
X23961569Y-76433286D01*
X23961569Y-76433286D02*
X23913950Y-76338048D01*
X23913950Y-76338048D02*
X23866330Y-76290429D01*
X22961569Y-77528524D02*
X22961569Y-77623762D01*
X22961569Y-77623762D02*
X23009188Y-77719000D01*
X23009188Y-77719000D02*
X23056807Y-77766619D01*
X23056807Y-77766619D02*
X23152045Y-77814238D01*
X23152045Y-77814238D02*
X23342521Y-77861857D01*
X23342521Y-77861857D02*
X23580616Y-77861857D01*
X23580616Y-77861857D02*
X23771092Y-77814238D01*
X23771092Y-77814238D02*
X23866330Y-77766619D01*
X23866330Y-77766619D02*
X23913950Y-77719000D01*
X23913950Y-77719000D02*
X23961569Y-77623762D01*
X23961569Y-77623762D02*
X23961569Y-77528524D01*
X23961569Y-77528524D02*
X23913950Y-77433286D01*
X23913950Y-77433286D02*
X23866330Y-77385667D01*
X23866330Y-77385667D02*
X23771092Y-77338048D01*
X23771092Y-77338048D02*
X23580616Y-77290429D01*
X23580616Y-77290429D02*
X23342521Y-77290429D01*
X23342521Y-77290429D02*
X23152045Y-77338048D01*
X23152045Y-77338048D02*
X23056807Y-77385667D01*
X23056807Y-77385667D02*
X23009188Y-77433286D01*
X23009188Y-77433286D02*
X22961569Y-77528524D01*
X23641569Y-79767095D02*
X22641569Y-79767095D01*
X23641569Y-80338523D02*
X23070140Y-79909952D01*
X22641569Y-80338523D02*
X23212997Y-79767095D01*
X302567819Y-112723762D02*
X301567819Y-112723762D01*
X301567819Y-112723762D02*
X301567819Y-112961857D01*
X301567819Y-112961857D02*
X301615438Y-113104714D01*
X301615438Y-113104714D02*
X301710676Y-113199952D01*
X301710676Y-113199952D02*
X301805914Y-113247571D01*
X301805914Y-113247571D02*
X301996390Y-113295190D01*
X301996390Y-113295190D02*
X302139247Y-113295190D01*
X302139247Y-113295190D02*
X302329723Y-113247571D01*
X302329723Y-113247571D02*
X302424961Y-113199952D01*
X302424961Y-113199952D02*
X302520200Y-113104714D01*
X302520200Y-113104714D02*
X302567819Y-112961857D01*
X302567819Y-112961857D02*
X302567819Y-112723762D01*
X302663057Y-113485667D02*
X302663057Y-114247571D01*
X301567819Y-114914238D02*
X301567819Y-114723762D01*
X301567819Y-114723762D02*
X301615438Y-114628524D01*
X301615438Y-114628524D02*
X301663057Y-114580905D01*
X301663057Y-114580905D02*
X301805914Y-114485667D01*
X301805914Y-114485667D02*
X301996390Y-114438048D01*
X301996390Y-114438048D02*
X302377342Y-114438048D01*
X302377342Y-114438048D02*
X302472580Y-114485667D01*
X302472580Y-114485667D02*
X302520200Y-114533286D01*
X302520200Y-114533286D02*
X302567819Y-114628524D01*
X302567819Y-114628524D02*
X302567819Y-114819000D01*
X302567819Y-114819000D02*
X302520200Y-114914238D01*
X302520200Y-114914238D02*
X302472580Y-114961857D01*
X302472580Y-114961857D02*
X302377342Y-115009476D01*
X302377342Y-115009476D02*
X302139247Y-115009476D01*
X302139247Y-115009476D02*
X302044009Y-114961857D01*
X302044009Y-114961857D02*
X301996390Y-114914238D01*
X301996390Y-114914238D02*
X301948771Y-114819000D01*
X301948771Y-114819000D02*
X301948771Y-114628524D01*
X301948771Y-114628524D02*
X301996390Y-114533286D01*
X301996390Y-114533286D02*
X302044009Y-114485667D01*
X302044009Y-114485667D02*
X302139247Y-114438048D01*
X301567819Y-115866619D02*
X301567819Y-115676143D01*
X301567819Y-115676143D02*
X301615438Y-115580905D01*
X301615438Y-115580905D02*
X301663057Y-115533286D01*
X301663057Y-115533286D02*
X301805914Y-115438048D01*
X301805914Y-115438048D02*
X301996390Y-115390429D01*
X301996390Y-115390429D02*
X302377342Y-115390429D01*
X302377342Y-115390429D02*
X302472580Y-115438048D01*
X302472580Y-115438048D02*
X302520200Y-115485667D01*
X302520200Y-115485667D02*
X302567819Y-115580905D01*
X302567819Y-115580905D02*
X302567819Y-115771381D01*
X302567819Y-115771381D02*
X302520200Y-115866619D01*
X302520200Y-115866619D02*
X302472580Y-115914238D01*
X302472580Y-115914238D02*
X302377342Y-115961857D01*
X302377342Y-115961857D02*
X302139247Y-115961857D01*
X302139247Y-115961857D02*
X302044009Y-115914238D01*
X302044009Y-115914238D02*
X301996390Y-115866619D01*
X301996390Y-115866619D02*
X301948771Y-115771381D01*
X301948771Y-115771381D02*
X301948771Y-115580905D01*
X301948771Y-115580905D02*
X301996390Y-115485667D01*
X301996390Y-115485667D02*
X302044009Y-115438048D01*
X302044009Y-115438048D02*
X302139247Y-115390429D01*
X302247819Y-117867095D02*
X301247819Y-117867095D01*
X302247819Y-118438523D02*
X301676390Y-118009952D01*
X301247819Y-118438523D02*
X301819247Y-117867095D01*
X66824069Y-112723762D02*
X65824069Y-112723762D01*
X65824069Y-112723762D02*
X65824069Y-112961857D01*
X65824069Y-112961857D02*
X65871688Y-113104714D01*
X65871688Y-113104714D02*
X65966926Y-113199952D01*
X65966926Y-113199952D02*
X66062164Y-113247571D01*
X66062164Y-113247571D02*
X66252640Y-113295190D01*
X66252640Y-113295190D02*
X66395497Y-113295190D01*
X66395497Y-113295190D02*
X66585973Y-113247571D01*
X66585973Y-113247571D02*
X66681211Y-113199952D01*
X66681211Y-113199952D02*
X66776450Y-113104714D01*
X66776450Y-113104714D02*
X66824069Y-112961857D01*
X66824069Y-112961857D02*
X66824069Y-112723762D01*
X66919307Y-113485667D02*
X66919307Y-114247571D01*
X65824069Y-114961857D02*
X65824069Y-114485667D01*
X65824069Y-114485667D02*
X66300259Y-114438048D01*
X66300259Y-114438048D02*
X66252640Y-114485667D01*
X66252640Y-114485667D02*
X66205021Y-114580905D01*
X66205021Y-114580905D02*
X66205021Y-114819000D01*
X66205021Y-114819000D02*
X66252640Y-114914238D01*
X66252640Y-114914238D02*
X66300259Y-114961857D01*
X66300259Y-114961857D02*
X66395497Y-115009476D01*
X66395497Y-115009476D02*
X66633592Y-115009476D01*
X66633592Y-115009476D02*
X66728830Y-114961857D01*
X66728830Y-114961857D02*
X66776450Y-114914238D01*
X66776450Y-114914238D02*
X66824069Y-114819000D01*
X66824069Y-114819000D02*
X66824069Y-114580905D01*
X66824069Y-114580905D02*
X66776450Y-114485667D01*
X66776450Y-114485667D02*
X66728830Y-114438048D01*
X65824069Y-115342810D02*
X65824069Y-116009476D01*
X65824069Y-116009476D02*
X66824069Y-115580905D01*
X66504069Y-117867095D02*
X65504069Y-117867095D01*
X66504069Y-118438523D02*
X65932640Y-118009952D01*
X65504069Y-118438523D02*
X66075497Y-117867095D01*
X259705319Y-55573762D02*
X258705319Y-55573762D01*
X258705319Y-55573762D02*
X258705319Y-55811857D01*
X258705319Y-55811857D02*
X258752938Y-55954714D01*
X258752938Y-55954714D02*
X258848176Y-56049952D01*
X258848176Y-56049952D02*
X258943414Y-56097571D01*
X258943414Y-56097571D02*
X259133890Y-56145190D01*
X259133890Y-56145190D02*
X259276747Y-56145190D01*
X259276747Y-56145190D02*
X259467223Y-56097571D01*
X259467223Y-56097571D02*
X259562461Y-56049952D01*
X259562461Y-56049952D02*
X259657700Y-55954714D01*
X259657700Y-55954714D02*
X259705319Y-55811857D01*
X259705319Y-55811857D02*
X259705319Y-55573762D01*
X259800557Y-56335667D02*
X259800557Y-57097571D01*
X258800557Y-57288048D02*
X258752938Y-57335667D01*
X258752938Y-57335667D02*
X258705319Y-57430905D01*
X258705319Y-57430905D02*
X258705319Y-57669000D01*
X258705319Y-57669000D02*
X258752938Y-57764238D01*
X258752938Y-57764238D02*
X258800557Y-57811857D01*
X258800557Y-57811857D02*
X258895795Y-57859476D01*
X258895795Y-57859476D02*
X258991033Y-57859476D01*
X258991033Y-57859476D02*
X259133890Y-57811857D01*
X259133890Y-57811857D02*
X259705319Y-57240429D01*
X259705319Y-57240429D02*
X259705319Y-57859476D01*
X258705319Y-58764238D02*
X258705319Y-58288048D01*
X258705319Y-58288048D02*
X259181509Y-58240429D01*
X259181509Y-58240429D02*
X259133890Y-58288048D01*
X259133890Y-58288048D02*
X259086271Y-58383286D01*
X259086271Y-58383286D02*
X259086271Y-58621381D01*
X259086271Y-58621381D02*
X259133890Y-58716619D01*
X259133890Y-58716619D02*
X259181509Y-58764238D01*
X259181509Y-58764238D02*
X259276747Y-58811857D01*
X259276747Y-58811857D02*
X259514842Y-58811857D01*
X259514842Y-58811857D02*
X259610080Y-58764238D01*
X259610080Y-58764238D02*
X259657700Y-58716619D01*
X259657700Y-58716619D02*
X259705319Y-58621381D01*
X259705319Y-58621381D02*
X259705319Y-58383286D01*
X259705319Y-58383286D02*
X259657700Y-58288048D01*
X259657700Y-58288048D02*
X259610080Y-58240429D01*
X259385319Y-60717095D02*
X258385319Y-60717095D01*
X259385319Y-61288523D02*
X258813890Y-60859952D01*
X258385319Y-61288523D02*
X258956747Y-60717095D01*
X202555319Y-93673762D02*
X201555319Y-93673762D01*
X201555319Y-93673762D02*
X201555319Y-93911857D01*
X201555319Y-93911857D02*
X201602938Y-94054714D01*
X201602938Y-94054714D02*
X201698176Y-94149952D01*
X201698176Y-94149952D02*
X201793414Y-94197571D01*
X201793414Y-94197571D02*
X201983890Y-94245190D01*
X201983890Y-94245190D02*
X202126747Y-94245190D01*
X202126747Y-94245190D02*
X202317223Y-94197571D01*
X202317223Y-94197571D02*
X202412461Y-94149952D01*
X202412461Y-94149952D02*
X202507700Y-94054714D01*
X202507700Y-94054714D02*
X202555319Y-93911857D01*
X202555319Y-93911857D02*
X202555319Y-93673762D01*
X202650557Y-94435667D02*
X202650557Y-95197571D01*
X201888652Y-95864238D02*
X202555319Y-95864238D01*
X201507700Y-95626143D02*
X202221985Y-95388048D01*
X202221985Y-95388048D02*
X202221985Y-96007095D01*
X202555319Y-96435667D02*
X202555319Y-96626143D01*
X202555319Y-96626143D02*
X202507700Y-96721381D01*
X202507700Y-96721381D02*
X202460080Y-96769000D01*
X202460080Y-96769000D02*
X202317223Y-96864238D01*
X202317223Y-96864238D02*
X202126747Y-96911857D01*
X202126747Y-96911857D02*
X201745795Y-96911857D01*
X201745795Y-96911857D02*
X201650557Y-96864238D01*
X201650557Y-96864238D02*
X201602938Y-96816619D01*
X201602938Y-96816619D02*
X201555319Y-96721381D01*
X201555319Y-96721381D02*
X201555319Y-96530905D01*
X201555319Y-96530905D02*
X201602938Y-96435667D01*
X201602938Y-96435667D02*
X201650557Y-96388048D01*
X201650557Y-96388048D02*
X201745795Y-96340429D01*
X201745795Y-96340429D02*
X201983890Y-96340429D01*
X201983890Y-96340429D02*
X202079128Y-96388048D01*
X202079128Y-96388048D02*
X202126747Y-96435667D01*
X202126747Y-96435667D02*
X202174366Y-96530905D01*
X202174366Y-96530905D02*
X202174366Y-96721381D01*
X202174366Y-96721381D02*
X202126747Y-96816619D01*
X202126747Y-96816619D02*
X202079128Y-96864238D01*
X202079128Y-96864238D02*
X201983890Y-96911857D01*
X202235319Y-98817095D02*
X201235319Y-98817095D01*
X202235319Y-99388523D02*
X201663890Y-98959952D01*
X201235319Y-99388523D02*
X201806747Y-98817095D01*
X50155319Y-36999952D02*
X49155319Y-36999952D01*
X49155319Y-36999952D02*
X49155319Y-37238047D01*
X49155319Y-37238047D02*
X49202938Y-37380904D01*
X49202938Y-37380904D02*
X49298176Y-37476142D01*
X49298176Y-37476142D02*
X49393414Y-37523761D01*
X49393414Y-37523761D02*
X49583890Y-37571380D01*
X49583890Y-37571380D02*
X49726747Y-37571380D01*
X49726747Y-37571380D02*
X49917223Y-37523761D01*
X49917223Y-37523761D02*
X50012461Y-37476142D01*
X50012461Y-37476142D02*
X50107700Y-37380904D01*
X50107700Y-37380904D02*
X50155319Y-37238047D01*
X50155319Y-37238047D02*
X50155319Y-36999952D01*
X50250557Y-37761857D02*
X50250557Y-38523761D01*
X49250557Y-38714238D02*
X49202938Y-38761857D01*
X49202938Y-38761857D02*
X49155319Y-38857095D01*
X49155319Y-38857095D02*
X49155319Y-39095190D01*
X49155319Y-39095190D02*
X49202938Y-39190428D01*
X49202938Y-39190428D02*
X49250557Y-39238047D01*
X49250557Y-39238047D02*
X49345795Y-39285666D01*
X49345795Y-39285666D02*
X49441033Y-39285666D01*
X49441033Y-39285666D02*
X49583890Y-39238047D01*
X49583890Y-39238047D02*
X50155319Y-38666619D01*
X50155319Y-38666619D02*
X50155319Y-39285666D01*
X49835319Y-41667095D02*
X48835319Y-41667095D01*
X49835319Y-42238523D02*
X49263890Y-41809952D01*
X48835319Y-42238523D02*
X49406747Y-41667095D01*
X88255319Y-36999952D02*
X87255319Y-36999952D01*
X87255319Y-36999952D02*
X87255319Y-37238047D01*
X87255319Y-37238047D02*
X87302938Y-37380904D01*
X87302938Y-37380904D02*
X87398176Y-37476142D01*
X87398176Y-37476142D02*
X87493414Y-37523761D01*
X87493414Y-37523761D02*
X87683890Y-37571380D01*
X87683890Y-37571380D02*
X87826747Y-37571380D01*
X87826747Y-37571380D02*
X88017223Y-37523761D01*
X88017223Y-37523761D02*
X88112461Y-37476142D01*
X88112461Y-37476142D02*
X88207700Y-37380904D01*
X88207700Y-37380904D02*
X88255319Y-37238047D01*
X88255319Y-37238047D02*
X88255319Y-36999952D01*
X88350557Y-37761857D02*
X88350557Y-38523761D01*
X87588652Y-39190428D02*
X88255319Y-39190428D01*
X87207700Y-38952333D02*
X87921985Y-38714238D01*
X87921985Y-38714238D02*
X87921985Y-39333285D01*
X87935319Y-41667095D02*
X86935319Y-41667095D01*
X87935319Y-42238523D02*
X87363890Y-41809952D01*
X86935319Y-42238523D02*
X87506747Y-41667095D01*
X50155319Y-74623762D02*
X49155319Y-74623762D01*
X49155319Y-74623762D02*
X49155319Y-74861857D01*
X49155319Y-74861857D02*
X49202938Y-75004714D01*
X49202938Y-75004714D02*
X49298176Y-75099952D01*
X49298176Y-75099952D02*
X49393414Y-75147571D01*
X49393414Y-75147571D02*
X49583890Y-75195190D01*
X49583890Y-75195190D02*
X49726747Y-75195190D01*
X49726747Y-75195190D02*
X49917223Y-75147571D01*
X49917223Y-75147571D02*
X50012461Y-75099952D01*
X50012461Y-75099952D02*
X50107700Y-75004714D01*
X50107700Y-75004714D02*
X50155319Y-74861857D01*
X50155319Y-74861857D02*
X50155319Y-74623762D01*
X50250557Y-75385667D02*
X50250557Y-76147571D01*
X49155319Y-76290429D02*
X49155319Y-76909476D01*
X49155319Y-76909476D02*
X49536271Y-76576143D01*
X49536271Y-76576143D02*
X49536271Y-76719000D01*
X49536271Y-76719000D02*
X49583890Y-76814238D01*
X49583890Y-76814238D02*
X49631509Y-76861857D01*
X49631509Y-76861857D02*
X49726747Y-76909476D01*
X49726747Y-76909476D02*
X49964842Y-76909476D01*
X49964842Y-76909476D02*
X50060080Y-76861857D01*
X50060080Y-76861857D02*
X50107700Y-76814238D01*
X50107700Y-76814238D02*
X50155319Y-76719000D01*
X50155319Y-76719000D02*
X50155319Y-76433286D01*
X50155319Y-76433286D02*
X50107700Y-76338048D01*
X50107700Y-76338048D02*
X50060080Y-76290429D01*
X50155319Y-77861857D02*
X50155319Y-77290429D01*
X50155319Y-77576143D02*
X49155319Y-77576143D01*
X49155319Y-77576143D02*
X49298176Y-77480905D01*
X49298176Y-77480905D02*
X49393414Y-77385667D01*
X49393414Y-77385667D02*
X49441033Y-77290429D01*
X49835319Y-79767095D02*
X48835319Y-79767095D01*
X49835319Y-80338523D02*
X49263890Y-79909952D01*
X48835319Y-80338523D02*
X49406747Y-79767095D01*
X88255319Y-93673762D02*
X87255319Y-93673762D01*
X87255319Y-93673762D02*
X87255319Y-93911857D01*
X87255319Y-93911857D02*
X87302938Y-94054714D01*
X87302938Y-94054714D02*
X87398176Y-94149952D01*
X87398176Y-94149952D02*
X87493414Y-94197571D01*
X87493414Y-94197571D02*
X87683890Y-94245190D01*
X87683890Y-94245190D02*
X87826747Y-94245190D01*
X87826747Y-94245190D02*
X88017223Y-94197571D01*
X88017223Y-94197571D02*
X88112461Y-94149952D01*
X88112461Y-94149952D02*
X88207700Y-94054714D01*
X88207700Y-94054714D02*
X88255319Y-93911857D01*
X88255319Y-93911857D02*
X88255319Y-93673762D01*
X88350557Y-94435667D02*
X88350557Y-95197571D01*
X87588652Y-95864238D02*
X88255319Y-95864238D01*
X87207700Y-95626143D02*
X87921985Y-95388048D01*
X87921985Y-95388048D02*
X87921985Y-96007095D01*
X87255319Y-96816619D02*
X87255319Y-96626143D01*
X87255319Y-96626143D02*
X87302938Y-96530905D01*
X87302938Y-96530905D02*
X87350557Y-96483286D01*
X87350557Y-96483286D02*
X87493414Y-96388048D01*
X87493414Y-96388048D02*
X87683890Y-96340429D01*
X87683890Y-96340429D02*
X88064842Y-96340429D01*
X88064842Y-96340429D02*
X88160080Y-96388048D01*
X88160080Y-96388048D02*
X88207700Y-96435667D01*
X88207700Y-96435667D02*
X88255319Y-96530905D01*
X88255319Y-96530905D02*
X88255319Y-96721381D01*
X88255319Y-96721381D02*
X88207700Y-96816619D01*
X88207700Y-96816619D02*
X88160080Y-96864238D01*
X88160080Y-96864238D02*
X88064842Y-96911857D01*
X88064842Y-96911857D02*
X87826747Y-96911857D01*
X87826747Y-96911857D02*
X87731509Y-96864238D01*
X87731509Y-96864238D02*
X87683890Y-96816619D01*
X87683890Y-96816619D02*
X87636271Y-96721381D01*
X87636271Y-96721381D02*
X87636271Y-96530905D01*
X87636271Y-96530905D02*
X87683890Y-96435667D01*
X87683890Y-96435667D02*
X87731509Y-96388048D01*
X87731509Y-96388048D02*
X87826747Y-96340429D01*
X87935319Y-98817095D02*
X86935319Y-98817095D01*
X87935319Y-99388523D02*
X87363890Y-98959952D01*
X86935319Y-99388523D02*
X87506747Y-98817095D01*
X297805319Y-74623762D02*
X296805319Y-74623762D01*
X296805319Y-74623762D02*
X296805319Y-74861857D01*
X296805319Y-74861857D02*
X296852938Y-75004714D01*
X296852938Y-75004714D02*
X296948176Y-75099952D01*
X296948176Y-75099952D02*
X297043414Y-75147571D01*
X297043414Y-75147571D02*
X297233890Y-75195190D01*
X297233890Y-75195190D02*
X297376747Y-75195190D01*
X297376747Y-75195190D02*
X297567223Y-75147571D01*
X297567223Y-75147571D02*
X297662461Y-75099952D01*
X297662461Y-75099952D02*
X297757700Y-75004714D01*
X297757700Y-75004714D02*
X297805319Y-74861857D01*
X297805319Y-74861857D02*
X297805319Y-74623762D01*
X297900557Y-75385667D02*
X297900557Y-76147571D01*
X297138652Y-76814238D02*
X297805319Y-76814238D01*
X296757700Y-76576143D02*
X297471985Y-76338048D01*
X297471985Y-76338048D02*
X297471985Y-76957095D01*
X297805319Y-77861857D02*
X297805319Y-77290429D01*
X297805319Y-77576143D02*
X296805319Y-77576143D01*
X296805319Y-77576143D02*
X296948176Y-77480905D01*
X296948176Y-77480905D02*
X297043414Y-77385667D01*
X297043414Y-77385667D02*
X297091033Y-77290429D01*
X297485319Y-79767095D02*
X296485319Y-79767095D01*
X297485319Y-80338523D02*
X296913890Y-79909952D01*
X296485319Y-80338523D02*
X297056747Y-79767095D01*
X278755319Y-55573762D02*
X277755319Y-55573762D01*
X277755319Y-55573762D02*
X277755319Y-55811857D01*
X277755319Y-55811857D02*
X277802938Y-55954714D01*
X277802938Y-55954714D02*
X277898176Y-56049952D01*
X277898176Y-56049952D02*
X277993414Y-56097571D01*
X277993414Y-56097571D02*
X278183890Y-56145190D01*
X278183890Y-56145190D02*
X278326747Y-56145190D01*
X278326747Y-56145190D02*
X278517223Y-56097571D01*
X278517223Y-56097571D02*
X278612461Y-56049952D01*
X278612461Y-56049952D02*
X278707700Y-55954714D01*
X278707700Y-55954714D02*
X278755319Y-55811857D01*
X278755319Y-55811857D02*
X278755319Y-55573762D01*
X278850557Y-56335667D02*
X278850557Y-57097571D01*
X277850557Y-57288048D02*
X277802938Y-57335667D01*
X277802938Y-57335667D02*
X277755319Y-57430905D01*
X277755319Y-57430905D02*
X277755319Y-57669000D01*
X277755319Y-57669000D02*
X277802938Y-57764238D01*
X277802938Y-57764238D02*
X277850557Y-57811857D01*
X277850557Y-57811857D02*
X277945795Y-57859476D01*
X277945795Y-57859476D02*
X278041033Y-57859476D01*
X278041033Y-57859476D02*
X278183890Y-57811857D01*
X278183890Y-57811857D02*
X278755319Y-57240429D01*
X278755319Y-57240429D02*
X278755319Y-57859476D01*
X277755319Y-58716619D02*
X277755319Y-58526143D01*
X277755319Y-58526143D02*
X277802938Y-58430905D01*
X277802938Y-58430905D02*
X277850557Y-58383286D01*
X277850557Y-58383286D02*
X277993414Y-58288048D01*
X277993414Y-58288048D02*
X278183890Y-58240429D01*
X278183890Y-58240429D02*
X278564842Y-58240429D01*
X278564842Y-58240429D02*
X278660080Y-58288048D01*
X278660080Y-58288048D02*
X278707700Y-58335667D01*
X278707700Y-58335667D02*
X278755319Y-58430905D01*
X278755319Y-58430905D02*
X278755319Y-58621381D01*
X278755319Y-58621381D02*
X278707700Y-58716619D01*
X278707700Y-58716619D02*
X278660080Y-58764238D01*
X278660080Y-58764238D02*
X278564842Y-58811857D01*
X278564842Y-58811857D02*
X278326747Y-58811857D01*
X278326747Y-58811857D02*
X278231509Y-58764238D01*
X278231509Y-58764238D02*
X278183890Y-58716619D01*
X278183890Y-58716619D02*
X278136271Y-58621381D01*
X278136271Y-58621381D02*
X278136271Y-58430905D01*
X278136271Y-58430905D02*
X278183890Y-58335667D01*
X278183890Y-58335667D02*
X278231509Y-58288048D01*
X278231509Y-58288048D02*
X278326747Y-58240429D01*
X278435319Y-60717095D02*
X277435319Y-60717095D01*
X278435319Y-61288523D02*
X277863890Y-60859952D01*
X277435319Y-61288523D02*
X278006747Y-60717095D01*
X69205319Y-36999952D02*
X68205319Y-36999952D01*
X68205319Y-36999952D02*
X68205319Y-37238047D01*
X68205319Y-37238047D02*
X68252938Y-37380904D01*
X68252938Y-37380904D02*
X68348176Y-37476142D01*
X68348176Y-37476142D02*
X68443414Y-37523761D01*
X68443414Y-37523761D02*
X68633890Y-37571380D01*
X68633890Y-37571380D02*
X68776747Y-37571380D01*
X68776747Y-37571380D02*
X68967223Y-37523761D01*
X68967223Y-37523761D02*
X69062461Y-37476142D01*
X69062461Y-37476142D02*
X69157700Y-37380904D01*
X69157700Y-37380904D02*
X69205319Y-37238047D01*
X69205319Y-37238047D02*
X69205319Y-36999952D01*
X69300557Y-37761857D02*
X69300557Y-38523761D01*
X68205319Y-38666619D02*
X68205319Y-39285666D01*
X68205319Y-39285666D02*
X68586271Y-38952333D01*
X68586271Y-38952333D02*
X68586271Y-39095190D01*
X68586271Y-39095190D02*
X68633890Y-39190428D01*
X68633890Y-39190428D02*
X68681509Y-39238047D01*
X68681509Y-39238047D02*
X68776747Y-39285666D01*
X68776747Y-39285666D02*
X69014842Y-39285666D01*
X69014842Y-39285666D02*
X69110080Y-39238047D01*
X69110080Y-39238047D02*
X69157700Y-39190428D01*
X69157700Y-39190428D02*
X69205319Y-39095190D01*
X69205319Y-39095190D02*
X69205319Y-38809476D01*
X69205319Y-38809476D02*
X69157700Y-38714238D01*
X69157700Y-38714238D02*
X69110080Y-38666619D01*
X68885319Y-41667095D02*
X67885319Y-41667095D01*
X68885319Y-42238523D02*
X68313890Y-41809952D01*
X67885319Y-42238523D02*
X68456747Y-41667095D01*
X221605319Y-74623762D02*
X220605319Y-74623762D01*
X220605319Y-74623762D02*
X220605319Y-74861857D01*
X220605319Y-74861857D02*
X220652938Y-75004714D01*
X220652938Y-75004714D02*
X220748176Y-75099952D01*
X220748176Y-75099952D02*
X220843414Y-75147571D01*
X220843414Y-75147571D02*
X221033890Y-75195190D01*
X221033890Y-75195190D02*
X221176747Y-75195190D01*
X221176747Y-75195190D02*
X221367223Y-75147571D01*
X221367223Y-75147571D02*
X221462461Y-75099952D01*
X221462461Y-75099952D02*
X221557700Y-75004714D01*
X221557700Y-75004714D02*
X221605319Y-74861857D01*
X221605319Y-74861857D02*
X221605319Y-74623762D01*
X221700557Y-75385667D02*
X221700557Y-76147571D01*
X220605319Y-76290429D02*
X220605319Y-76909476D01*
X220605319Y-76909476D02*
X220986271Y-76576143D01*
X220986271Y-76576143D02*
X220986271Y-76719000D01*
X220986271Y-76719000D02*
X221033890Y-76814238D01*
X221033890Y-76814238D02*
X221081509Y-76861857D01*
X221081509Y-76861857D02*
X221176747Y-76909476D01*
X221176747Y-76909476D02*
X221414842Y-76909476D01*
X221414842Y-76909476D02*
X221510080Y-76861857D01*
X221510080Y-76861857D02*
X221557700Y-76814238D01*
X221557700Y-76814238D02*
X221605319Y-76719000D01*
X221605319Y-76719000D02*
X221605319Y-76433286D01*
X221605319Y-76433286D02*
X221557700Y-76338048D01*
X221557700Y-76338048D02*
X221510080Y-76290429D01*
X220605319Y-77242810D02*
X220605319Y-77909476D01*
X220605319Y-77909476D02*
X221605319Y-77480905D01*
X221285319Y-79767095D02*
X220285319Y-79767095D01*
X221285319Y-80338523D02*
X220713890Y-79909952D01*
X220285319Y-80338523D02*
X220856747Y-79767095D01*
X278755319Y-74623762D02*
X277755319Y-74623762D01*
X277755319Y-74623762D02*
X277755319Y-74861857D01*
X277755319Y-74861857D02*
X277802938Y-75004714D01*
X277802938Y-75004714D02*
X277898176Y-75099952D01*
X277898176Y-75099952D02*
X277993414Y-75147571D01*
X277993414Y-75147571D02*
X278183890Y-75195190D01*
X278183890Y-75195190D02*
X278326747Y-75195190D01*
X278326747Y-75195190D02*
X278517223Y-75147571D01*
X278517223Y-75147571D02*
X278612461Y-75099952D01*
X278612461Y-75099952D02*
X278707700Y-75004714D01*
X278707700Y-75004714D02*
X278755319Y-74861857D01*
X278755319Y-74861857D02*
X278755319Y-74623762D01*
X278850557Y-75385667D02*
X278850557Y-76147571D01*
X278088652Y-76814238D02*
X278755319Y-76814238D01*
X277707700Y-76576143D02*
X278421985Y-76338048D01*
X278421985Y-76338048D02*
X278421985Y-76957095D01*
X277755319Y-77528524D02*
X277755319Y-77623762D01*
X277755319Y-77623762D02*
X277802938Y-77719000D01*
X277802938Y-77719000D02*
X277850557Y-77766619D01*
X277850557Y-77766619D02*
X277945795Y-77814238D01*
X277945795Y-77814238D02*
X278136271Y-77861857D01*
X278136271Y-77861857D02*
X278374366Y-77861857D01*
X278374366Y-77861857D02*
X278564842Y-77814238D01*
X278564842Y-77814238D02*
X278660080Y-77766619D01*
X278660080Y-77766619D02*
X278707700Y-77719000D01*
X278707700Y-77719000D02*
X278755319Y-77623762D01*
X278755319Y-77623762D02*
X278755319Y-77528524D01*
X278755319Y-77528524D02*
X278707700Y-77433286D01*
X278707700Y-77433286D02*
X278660080Y-77385667D01*
X278660080Y-77385667D02*
X278564842Y-77338048D01*
X278564842Y-77338048D02*
X278374366Y-77290429D01*
X278374366Y-77290429D02*
X278136271Y-77290429D01*
X278136271Y-77290429D02*
X277945795Y-77338048D01*
X277945795Y-77338048D02*
X277850557Y-77385667D01*
X277850557Y-77385667D02*
X277802938Y-77433286D01*
X277802938Y-77433286D02*
X277755319Y-77528524D01*
X278435319Y-79767095D02*
X277435319Y-79767095D01*
X278435319Y-80338523D02*
X277863890Y-79909952D01*
X277435319Y-80338523D02*
X278006747Y-79767095D01*
X314474069Y-93673762D02*
X313474069Y-93673762D01*
X313474069Y-93673762D02*
X313474069Y-93911857D01*
X313474069Y-93911857D02*
X313521688Y-94054714D01*
X313521688Y-94054714D02*
X313616926Y-94149952D01*
X313616926Y-94149952D02*
X313712164Y-94197571D01*
X313712164Y-94197571D02*
X313902640Y-94245190D01*
X313902640Y-94245190D02*
X314045497Y-94245190D01*
X314045497Y-94245190D02*
X314235973Y-94197571D01*
X314235973Y-94197571D02*
X314331211Y-94149952D01*
X314331211Y-94149952D02*
X314426450Y-94054714D01*
X314426450Y-94054714D02*
X314474069Y-93911857D01*
X314474069Y-93911857D02*
X314474069Y-93673762D01*
X314569307Y-94435667D02*
X314569307Y-95197571D01*
X313474069Y-95911857D02*
X313474069Y-95435667D01*
X313474069Y-95435667D02*
X313950259Y-95388048D01*
X313950259Y-95388048D02*
X313902640Y-95435667D01*
X313902640Y-95435667D02*
X313855021Y-95530905D01*
X313855021Y-95530905D02*
X313855021Y-95769000D01*
X313855021Y-95769000D02*
X313902640Y-95864238D01*
X313902640Y-95864238D02*
X313950259Y-95911857D01*
X313950259Y-95911857D02*
X314045497Y-95959476D01*
X314045497Y-95959476D02*
X314283592Y-95959476D01*
X314283592Y-95959476D02*
X314378830Y-95911857D01*
X314378830Y-95911857D02*
X314426450Y-95864238D01*
X314426450Y-95864238D02*
X314474069Y-95769000D01*
X314474069Y-95769000D02*
X314474069Y-95530905D01*
X314474069Y-95530905D02*
X314426450Y-95435667D01*
X314426450Y-95435667D02*
X314378830Y-95388048D01*
X313807402Y-96816619D02*
X314474069Y-96816619D01*
X313426450Y-96578524D02*
X314140735Y-96340429D01*
X314140735Y-96340429D02*
X314140735Y-96959476D01*
X314154069Y-98817095D02*
X313154069Y-98817095D01*
X314154069Y-99388523D02*
X313582640Y-98959952D01*
X313154069Y-99388523D02*
X313725497Y-98817095D01*
X221605319Y-36999952D02*
X220605319Y-36999952D01*
X220605319Y-36999952D02*
X220605319Y-37238047D01*
X220605319Y-37238047D02*
X220652938Y-37380904D01*
X220652938Y-37380904D02*
X220748176Y-37476142D01*
X220748176Y-37476142D02*
X220843414Y-37523761D01*
X220843414Y-37523761D02*
X221033890Y-37571380D01*
X221033890Y-37571380D02*
X221176747Y-37571380D01*
X221176747Y-37571380D02*
X221367223Y-37523761D01*
X221367223Y-37523761D02*
X221462461Y-37476142D01*
X221462461Y-37476142D02*
X221557700Y-37380904D01*
X221557700Y-37380904D02*
X221605319Y-37238047D01*
X221605319Y-37238047D02*
X221605319Y-36999952D01*
X221700557Y-37761857D02*
X221700557Y-38523761D01*
X221033890Y-38904714D02*
X220986271Y-38809476D01*
X220986271Y-38809476D02*
X220938652Y-38761857D01*
X220938652Y-38761857D02*
X220843414Y-38714238D01*
X220843414Y-38714238D02*
X220795795Y-38714238D01*
X220795795Y-38714238D02*
X220700557Y-38761857D01*
X220700557Y-38761857D02*
X220652938Y-38809476D01*
X220652938Y-38809476D02*
X220605319Y-38904714D01*
X220605319Y-38904714D02*
X220605319Y-39095190D01*
X220605319Y-39095190D02*
X220652938Y-39190428D01*
X220652938Y-39190428D02*
X220700557Y-39238047D01*
X220700557Y-39238047D02*
X220795795Y-39285666D01*
X220795795Y-39285666D02*
X220843414Y-39285666D01*
X220843414Y-39285666D02*
X220938652Y-39238047D01*
X220938652Y-39238047D02*
X220986271Y-39190428D01*
X220986271Y-39190428D02*
X221033890Y-39095190D01*
X221033890Y-39095190D02*
X221033890Y-38904714D01*
X221033890Y-38904714D02*
X221081509Y-38809476D01*
X221081509Y-38809476D02*
X221129128Y-38761857D01*
X221129128Y-38761857D02*
X221224366Y-38714238D01*
X221224366Y-38714238D02*
X221414842Y-38714238D01*
X221414842Y-38714238D02*
X221510080Y-38761857D01*
X221510080Y-38761857D02*
X221557700Y-38809476D01*
X221557700Y-38809476D02*
X221605319Y-38904714D01*
X221605319Y-38904714D02*
X221605319Y-39095190D01*
X221605319Y-39095190D02*
X221557700Y-39190428D01*
X221557700Y-39190428D02*
X221510080Y-39238047D01*
X221510080Y-39238047D02*
X221414842Y-39285666D01*
X221414842Y-39285666D02*
X221224366Y-39285666D01*
X221224366Y-39285666D02*
X221129128Y-39238047D01*
X221129128Y-39238047D02*
X221081509Y-39190428D01*
X221081509Y-39190428D02*
X221033890Y-39095190D01*
X221285319Y-41667095D02*
X220285319Y-41667095D01*
X221285319Y-42238523D02*
X220713890Y-41809952D01*
X220285319Y-42238523D02*
X220856747Y-41667095D01*
X31105319Y-36999952D02*
X30105319Y-36999952D01*
X30105319Y-36999952D02*
X30105319Y-37238047D01*
X30105319Y-37238047D02*
X30152938Y-37380904D01*
X30152938Y-37380904D02*
X30248176Y-37476142D01*
X30248176Y-37476142D02*
X30343414Y-37523761D01*
X30343414Y-37523761D02*
X30533890Y-37571380D01*
X30533890Y-37571380D02*
X30676747Y-37571380D01*
X30676747Y-37571380D02*
X30867223Y-37523761D01*
X30867223Y-37523761D02*
X30962461Y-37476142D01*
X30962461Y-37476142D02*
X31057700Y-37380904D01*
X31057700Y-37380904D02*
X31105319Y-37238047D01*
X31105319Y-37238047D02*
X31105319Y-36999952D01*
X31200557Y-37761857D02*
X31200557Y-38523761D01*
X31105319Y-39285666D02*
X31105319Y-38714238D01*
X31105319Y-38999952D02*
X30105319Y-38999952D01*
X30105319Y-38999952D02*
X30248176Y-38904714D01*
X30248176Y-38904714D02*
X30343414Y-38809476D01*
X30343414Y-38809476D02*
X30391033Y-38714238D01*
X30785319Y-41667095D02*
X29785319Y-41667095D01*
X30785319Y-42238523D02*
X30213890Y-41809952D01*
X29785319Y-42238523D02*
X30356747Y-41667095D01*
X90636569Y-112723762D02*
X89636569Y-112723762D01*
X89636569Y-112723762D02*
X89636569Y-112961857D01*
X89636569Y-112961857D02*
X89684188Y-113104714D01*
X89684188Y-113104714D02*
X89779426Y-113199952D01*
X89779426Y-113199952D02*
X89874664Y-113247571D01*
X89874664Y-113247571D02*
X90065140Y-113295190D01*
X90065140Y-113295190D02*
X90207997Y-113295190D01*
X90207997Y-113295190D02*
X90398473Y-113247571D01*
X90398473Y-113247571D02*
X90493711Y-113199952D01*
X90493711Y-113199952D02*
X90588950Y-113104714D01*
X90588950Y-113104714D02*
X90636569Y-112961857D01*
X90636569Y-112961857D02*
X90636569Y-112723762D01*
X90731807Y-113485667D02*
X90731807Y-114247571D01*
X89636569Y-114961857D02*
X89636569Y-114485667D01*
X89636569Y-114485667D02*
X90112759Y-114438048D01*
X90112759Y-114438048D02*
X90065140Y-114485667D01*
X90065140Y-114485667D02*
X90017521Y-114580905D01*
X90017521Y-114580905D02*
X90017521Y-114819000D01*
X90017521Y-114819000D02*
X90065140Y-114914238D01*
X90065140Y-114914238D02*
X90112759Y-114961857D01*
X90112759Y-114961857D02*
X90207997Y-115009476D01*
X90207997Y-115009476D02*
X90446092Y-115009476D01*
X90446092Y-115009476D02*
X90541330Y-114961857D01*
X90541330Y-114961857D02*
X90588950Y-114914238D01*
X90588950Y-114914238D02*
X90636569Y-114819000D01*
X90636569Y-114819000D02*
X90636569Y-114580905D01*
X90636569Y-114580905D02*
X90588950Y-114485667D01*
X90588950Y-114485667D02*
X90541330Y-114438048D01*
X90065140Y-115580905D02*
X90017521Y-115485667D01*
X90017521Y-115485667D02*
X89969902Y-115438048D01*
X89969902Y-115438048D02*
X89874664Y-115390429D01*
X89874664Y-115390429D02*
X89827045Y-115390429D01*
X89827045Y-115390429D02*
X89731807Y-115438048D01*
X89731807Y-115438048D02*
X89684188Y-115485667D01*
X89684188Y-115485667D02*
X89636569Y-115580905D01*
X89636569Y-115580905D02*
X89636569Y-115771381D01*
X89636569Y-115771381D02*
X89684188Y-115866619D01*
X89684188Y-115866619D02*
X89731807Y-115914238D01*
X89731807Y-115914238D02*
X89827045Y-115961857D01*
X89827045Y-115961857D02*
X89874664Y-115961857D01*
X89874664Y-115961857D02*
X89969902Y-115914238D01*
X89969902Y-115914238D02*
X90017521Y-115866619D01*
X90017521Y-115866619D02*
X90065140Y-115771381D01*
X90065140Y-115771381D02*
X90065140Y-115580905D01*
X90065140Y-115580905D02*
X90112759Y-115485667D01*
X90112759Y-115485667D02*
X90160378Y-115438048D01*
X90160378Y-115438048D02*
X90255616Y-115390429D01*
X90255616Y-115390429D02*
X90446092Y-115390429D01*
X90446092Y-115390429D02*
X90541330Y-115438048D01*
X90541330Y-115438048D02*
X90588950Y-115485667D01*
X90588950Y-115485667D02*
X90636569Y-115580905D01*
X90636569Y-115580905D02*
X90636569Y-115771381D01*
X90636569Y-115771381D02*
X90588950Y-115866619D01*
X90588950Y-115866619D02*
X90541330Y-115914238D01*
X90541330Y-115914238D02*
X90446092Y-115961857D01*
X90446092Y-115961857D02*
X90255616Y-115961857D01*
X90255616Y-115961857D02*
X90160378Y-115914238D01*
X90160378Y-115914238D02*
X90112759Y-115866619D01*
X90112759Y-115866619D02*
X90065140Y-115771381D01*
X90316569Y-117867095D02*
X89316569Y-117867095D01*
X90316569Y-118438523D02*
X89745140Y-118009952D01*
X89316569Y-118438523D02*
X89887997Y-117867095D01*
X338845237Y-50324819D02*
X338845237Y-49324819D01*
X338845237Y-49324819D02*
X338607142Y-49324819D01*
X338607142Y-49324819D02*
X338464285Y-49372438D01*
X338464285Y-49372438D02*
X338369047Y-49467676D01*
X338369047Y-49467676D02*
X338321428Y-49562914D01*
X338321428Y-49562914D02*
X338273809Y-49753390D01*
X338273809Y-49753390D02*
X338273809Y-49896247D01*
X338273809Y-49896247D02*
X338321428Y-50086723D01*
X338321428Y-50086723D02*
X338369047Y-50181961D01*
X338369047Y-50181961D02*
X338464285Y-50277200D01*
X338464285Y-50277200D02*
X338607142Y-50324819D01*
X338607142Y-50324819D02*
X338845237Y-50324819D01*
X338083333Y-50420057D02*
X337321428Y-50420057D01*
X336559523Y-50324819D02*
X337130951Y-50324819D01*
X336845237Y-50324819D02*
X336845237Y-49324819D01*
X336845237Y-49324819D02*
X336940475Y-49467676D01*
X336940475Y-49467676D02*
X337035713Y-49562914D01*
X337035713Y-49562914D02*
X337130951Y-49610533D01*
X335654761Y-49324819D02*
X336130951Y-49324819D01*
X336130951Y-49324819D02*
X336178570Y-49801009D01*
X336178570Y-49801009D02*
X336130951Y-49753390D01*
X336130951Y-49753390D02*
X336035713Y-49705771D01*
X336035713Y-49705771D02*
X335797618Y-49705771D01*
X335797618Y-49705771D02*
X335702380Y-49753390D01*
X335702380Y-49753390D02*
X335654761Y-49801009D01*
X335654761Y-49801009D02*
X335607142Y-49896247D01*
X335607142Y-49896247D02*
X335607142Y-50134342D01*
X335607142Y-50134342D02*
X335654761Y-50229580D01*
X335654761Y-50229580D02*
X335702380Y-50277200D01*
X335702380Y-50277200D02*
X335797618Y-50324819D01*
X335797618Y-50324819D02*
X336035713Y-50324819D01*
X336035713Y-50324819D02*
X336130951Y-50277200D01*
X336130951Y-50277200D02*
X336178570Y-50229580D01*
X333701904Y-50004819D02*
X333701904Y-49004819D01*
X333130476Y-50004819D02*
X333559047Y-49433390D01*
X333130476Y-49004819D02*
X333701904Y-49576247D01*
X259705319Y-93673762D02*
X258705319Y-93673762D01*
X258705319Y-93673762D02*
X258705319Y-93911857D01*
X258705319Y-93911857D02*
X258752938Y-94054714D01*
X258752938Y-94054714D02*
X258848176Y-94149952D01*
X258848176Y-94149952D02*
X258943414Y-94197571D01*
X258943414Y-94197571D02*
X259133890Y-94245190D01*
X259133890Y-94245190D02*
X259276747Y-94245190D01*
X259276747Y-94245190D02*
X259467223Y-94197571D01*
X259467223Y-94197571D02*
X259562461Y-94149952D01*
X259562461Y-94149952D02*
X259657700Y-94054714D01*
X259657700Y-94054714D02*
X259705319Y-93911857D01*
X259705319Y-93911857D02*
X259705319Y-93673762D01*
X259800557Y-94435667D02*
X259800557Y-95197571D01*
X258705319Y-95911857D02*
X258705319Y-95435667D01*
X258705319Y-95435667D02*
X259181509Y-95388048D01*
X259181509Y-95388048D02*
X259133890Y-95435667D01*
X259133890Y-95435667D02*
X259086271Y-95530905D01*
X259086271Y-95530905D02*
X259086271Y-95769000D01*
X259086271Y-95769000D02*
X259133890Y-95864238D01*
X259133890Y-95864238D02*
X259181509Y-95911857D01*
X259181509Y-95911857D02*
X259276747Y-95959476D01*
X259276747Y-95959476D02*
X259514842Y-95959476D01*
X259514842Y-95959476D02*
X259610080Y-95911857D01*
X259610080Y-95911857D02*
X259657700Y-95864238D01*
X259657700Y-95864238D02*
X259705319Y-95769000D01*
X259705319Y-95769000D02*
X259705319Y-95530905D01*
X259705319Y-95530905D02*
X259657700Y-95435667D01*
X259657700Y-95435667D02*
X259610080Y-95388048D01*
X258800557Y-96340429D02*
X258752938Y-96388048D01*
X258752938Y-96388048D02*
X258705319Y-96483286D01*
X258705319Y-96483286D02*
X258705319Y-96721381D01*
X258705319Y-96721381D02*
X258752938Y-96816619D01*
X258752938Y-96816619D02*
X258800557Y-96864238D01*
X258800557Y-96864238D02*
X258895795Y-96911857D01*
X258895795Y-96911857D02*
X258991033Y-96911857D01*
X258991033Y-96911857D02*
X259133890Y-96864238D01*
X259133890Y-96864238D02*
X259705319Y-96292810D01*
X259705319Y-96292810D02*
X259705319Y-96911857D01*
X259385319Y-98817095D02*
X258385319Y-98817095D01*
X259385319Y-99388523D02*
X258813890Y-98959952D01*
X258385319Y-99388523D02*
X258956747Y-98817095D01*
X324595237Y-107324819D02*
X324595237Y-106324819D01*
X324595237Y-106324819D02*
X324357142Y-106324819D01*
X324357142Y-106324819D02*
X324214285Y-106372438D01*
X324214285Y-106372438D02*
X324119047Y-106467676D01*
X324119047Y-106467676D02*
X324071428Y-106562914D01*
X324071428Y-106562914D02*
X324023809Y-106753390D01*
X324023809Y-106753390D02*
X324023809Y-106896247D01*
X324023809Y-106896247D02*
X324071428Y-107086723D01*
X324071428Y-107086723D02*
X324119047Y-107181961D01*
X324119047Y-107181961D02*
X324214285Y-107277200D01*
X324214285Y-107277200D02*
X324357142Y-107324819D01*
X324357142Y-107324819D02*
X324595237Y-107324819D01*
X323833333Y-107420057D02*
X323071428Y-107420057D01*
X322404761Y-106324819D02*
X322595237Y-106324819D01*
X322595237Y-106324819D02*
X322690475Y-106372438D01*
X322690475Y-106372438D02*
X322738094Y-106420057D01*
X322738094Y-106420057D02*
X322833332Y-106562914D01*
X322833332Y-106562914D02*
X322880951Y-106753390D01*
X322880951Y-106753390D02*
X322880951Y-107134342D01*
X322880951Y-107134342D02*
X322833332Y-107229580D01*
X322833332Y-107229580D02*
X322785713Y-107277200D01*
X322785713Y-107277200D02*
X322690475Y-107324819D01*
X322690475Y-107324819D02*
X322499999Y-107324819D01*
X322499999Y-107324819D02*
X322404761Y-107277200D01*
X322404761Y-107277200D02*
X322357142Y-107229580D01*
X322357142Y-107229580D02*
X322309523Y-107134342D01*
X322309523Y-107134342D02*
X322309523Y-106896247D01*
X322309523Y-106896247D02*
X322357142Y-106801009D01*
X322357142Y-106801009D02*
X322404761Y-106753390D01*
X322404761Y-106753390D02*
X322499999Y-106705771D01*
X322499999Y-106705771D02*
X322690475Y-106705771D01*
X322690475Y-106705771D02*
X322785713Y-106753390D01*
X322785713Y-106753390D02*
X322833332Y-106801009D01*
X322833332Y-106801009D02*
X322880951Y-106896247D01*
X321738094Y-106753390D02*
X321833332Y-106705771D01*
X321833332Y-106705771D02*
X321880951Y-106658152D01*
X321880951Y-106658152D02*
X321928570Y-106562914D01*
X321928570Y-106562914D02*
X321928570Y-106515295D01*
X321928570Y-106515295D02*
X321880951Y-106420057D01*
X321880951Y-106420057D02*
X321833332Y-106372438D01*
X321833332Y-106372438D02*
X321738094Y-106324819D01*
X321738094Y-106324819D02*
X321547618Y-106324819D01*
X321547618Y-106324819D02*
X321452380Y-106372438D01*
X321452380Y-106372438D02*
X321404761Y-106420057D01*
X321404761Y-106420057D02*
X321357142Y-106515295D01*
X321357142Y-106515295D02*
X321357142Y-106562914D01*
X321357142Y-106562914D02*
X321404761Y-106658152D01*
X321404761Y-106658152D02*
X321452380Y-106705771D01*
X321452380Y-106705771D02*
X321547618Y-106753390D01*
X321547618Y-106753390D02*
X321738094Y-106753390D01*
X321738094Y-106753390D02*
X321833332Y-106801009D01*
X321833332Y-106801009D02*
X321880951Y-106848628D01*
X321880951Y-106848628D02*
X321928570Y-106943866D01*
X321928570Y-106943866D02*
X321928570Y-107134342D01*
X321928570Y-107134342D02*
X321880951Y-107229580D01*
X321880951Y-107229580D02*
X321833332Y-107277200D01*
X321833332Y-107277200D02*
X321738094Y-107324819D01*
X321738094Y-107324819D02*
X321547618Y-107324819D01*
X321547618Y-107324819D02*
X321452380Y-107277200D01*
X321452380Y-107277200D02*
X321404761Y-107229580D01*
X321404761Y-107229580D02*
X321357142Y-107134342D01*
X321357142Y-107134342D02*
X321357142Y-106943866D01*
X321357142Y-106943866D02*
X321404761Y-106848628D01*
X321404761Y-106848628D02*
X321452380Y-106801009D01*
X321452380Y-106801009D02*
X321547618Y-106753390D01*
X319451904Y-107004819D02*
X319451904Y-106004819D01*
X318880476Y-107004819D02*
X319309047Y-106433390D01*
X318880476Y-106004819D02*
X319451904Y-106576247D01*
X240655319Y-55573762D02*
X239655319Y-55573762D01*
X239655319Y-55573762D02*
X239655319Y-55811857D01*
X239655319Y-55811857D02*
X239702938Y-55954714D01*
X239702938Y-55954714D02*
X239798176Y-56049952D01*
X239798176Y-56049952D02*
X239893414Y-56097571D01*
X239893414Y-56097571D02*
X240083890Y-56145190D01*
X240083890Y-56145190D02*
X240226747Y-56145190D01*
X240226747Y-56145190D02*
X240417223Y-56097571D01*
X240417223Y-56097571D02*
X240512461Y-56049952D01*
X240512461Y-56049952D02*
X240607700Y-55954714D01*
X240607700Y-55954714D02*
X240655319Y-55811857D01*
X240655319Y-55811857D02*
X240655319Y-55573762D01*
X240750557Y-56335667D02*
X240750557Y-57097571D01*
X239750557Y-57288048D02*
X239702938Y-57335667D01*
X239702938Y-57335667D02*
X239655319Y-57430905D01*
X239655319Y-57430905D02*
X239655319Y-57669000D01*
X239655319Y-57669000D02*
X239702938Y-57764238D01*
X239702938Y-57764238D02*
X239750557Y-57811857D01*
X239750557Y-57811857D02*
X239845795Y-57859476D01*
X239845795Y-57859476D02*
X239941033Y-57859476D01*
X239941033Y-57859476D02*
X240083890Y-57811857D01*
X240083890Y-57811857D02*
X240655319Y-57240429D01*
X240655319Y-57240429D02*
X240655319Y-57859476D01*
X239988652Y-58716619D02*
X240655319Y-58716619D01*
X239607700Y-58478524D02*
X240321985Y-58240429D01*
X240321985Y-58240429D02*
X240321985Y-58859476D01*
X240335319Y-60717095D02*
X239335319Y-60717095D01*
X240335319Y-61288523D02*
X239763890Y-60859952D01*
X239335319Y-61288523D02*
X239906747Y-60717095D01*
X321617819Y-112723762D02*
X320617819Y-112723762D01*
X320617819Y-112723762D02*
X320617819Y-112961857D01*
X320617819Y-112961857D02*
X320665438Y-113104714D01*
X320665438Y-113104714D02*
X320760676Y-113199952D01*
X320760676Y-113199952D02*
X320855914Y-113247571D01*
X320855914Y-113247571D02*
X321046390Y-113295190D01*
X321046390Y-113295190D02*
X321189247Y-113295190D01*
X321189247Y-113295190D02*
X321379723Y-113247571D01*
X321379723Y-113247571D02*
X321474961Y-113199952D01*
X321474961Y-113199952D02*
X321570200Y-113104714D01*
X321570200Y-113104714D02*
X321617819Y-112961857D01*
X321617819Y-112961857D02*
X321617819Y-112723762D01*
X321713057Y-113485667D02*
X321713057Y-114247571D01*
X320617819Y-114914238D02*
X320617819Y-114723762D01*
X320617819Y-114723762D02*
X320665438Y-114628524D01*
X320665438Y-114628524D02*
X320713057Y-114580905D01*
X320713057Y-114580905D02*
X320855914Y-114485667D01*
X320855914Y-114485667D02*
X321046390Y-114438048D01*
X321046390Y-114438048D02*
X321427342Y-114438048D01*
X321427342Y-114438048D02*
X321522580Y-114485667D01*
X321522580Y-114485667D02*
X321570200Y-114533286D01*
X321570200Y-114533286D02*
X321617819Y-114628524D01*
X321617819Y-114628524D02*
X321617819Y-114819000D01*
X321617819Y-114819000D02*
X321570200Y-114914238D01*
X321570200Y-114914238D02*
X321522580Y-114961857D01*
X321522580Y-114961857D02*
X321427342Y-115009476D01*
X321427342Y-115009476D02*
X321189247Y-115009476D01*
X321189247Y-115009476D02*
X321094009Y-114961857D01*
X321094009Y-114961857D02*
X321046390Y-114914238D01*
X321046390Y-114914238D02*
X320998771Y-114819000D01*
X320998771Y-114819000D02*
X320998771Y-114628524D01*
X320998771Y-114628524D02*
X321046390Y-114533286D01*
X321046390Y-114533286D02*
X321094009Y-114485667D01*
X321094009Y-114485667D02*
X321189247Y-114438048D01*
X320617819Y-115342810D02*
X320617819Y-116009476D01*
X320617819Y-116009476D02*
X321617819Y-115580905D01*
X321297819Y-117867095D02*
X320297819Y-117867095D01*
X321297819Y-118438523D02*
X320726390Y-118009952D01*
X320297819Y-118438523D02*
X320869247Y-117867095D01*
X259705319Y-36523762D02*
X258705319Y-36523762D01*
X258705319Y-36523762D02*
X258705319Y-36761857D01*
X258705319Y-36761857D02*
X258752938Y-36904714D01*
X258752938Y-36904714D02*
X258848176Y-36999952D01*
X258848176Y-36999952D02*
X258943414Y-37047571D01*
X258943414Y-37047571D02*
X259133890Y-37095190D01*
X259133890Y-37095190D02*
X259276747Y-37095190D01*
X259276747Y-37095190D02*
X259467223Y-37047571D01*
X259467223Y-37047571D02*
X259562461Y-36999952D01*
X259562461Y-36999952D02*
X259657700Y-36904714D01*
X259657700Y-36904714D02*
X259705319Y-36761857D01*
X259705319Y-36761857D02*
X259705319Y-36523762D01*
X259800557Y-37285667D02*
X259800557Y-38047571D01*
X259705319Y-38809476D02*
X259705319Y-38238048D01*
X259705319Y-38523762D02*
X258705319Y-38523762D01*
X258705319Y-38523762D02*
X258848176Y-38428524D01*
X258848176Y-38428524D02*
X258943414Y-38333286D01*
X258943414Y-38333286D02*
X258991033Y-38238048D01*
X258705319Y-39428524D02*
X258705319Y-39523762D01*
X258705319Y-39523762D02*
X258752938Y-39619000D01*
X258752938Y-39619000D02*
X258800557Y-39666619D01*
X258800557Y-39666619D02*
X258895795Y-39714238D01*
X258895795Y-39714238D02*
X259086271Y-39761857D01*
X259086271Y-39761857D02*
X259324366Y-39761857D01*
X259324366Y-39761857D02*
X259514842Y-39714238D01*
X259514842Y-39714238D02*
X259610080Y-39666619D01*
X259610080Y-39666619D02*
X259657700Y-39619000D01*
X259657700Y-39619000D02*
X259705319Y-39523762D01*
X259705319Y-39523762D02*
X259705319Y-39428524D01*
X259705319Y-39428524D02*
X259657700Y-39333286D01*
X259657700Y-39333286D02*
X259610080Y-39285667D01*
X259610080Y-39285667D02*
X259514842Y-39238048D01*
X259514842Y-39238048D02*
X259324366Y-39190429D01*
X259324366Y-39190429D02*
X259086271Y-39190429D01*
X259086271Y-39190429D02*
X258895795Y-39238048D01*
X258895795Y-39238048D02*
X258800557Y-39285667D01*
X258800557Y-39285667D02*
X258752938Y-39333286D01*
X258752938Y-39333286D02*
X258705319Y-39428524D01*
X259385319Y-41667095D02*
X258385319Y-41667095D01*
X259385319Y-42238523D02*
X258813890Y-41809952D01*
X258385319Y-42238523D02*
X258956747Y-41667095D01*
X107305319Y-93673762D02*
X106305319Y-93673762D01*
X106305319Y-93673762D02*
X106305319Y-93911857D01*
X106305319Y-93911857D02*
X106352938Y-94054714D01*
X106352938Y-94054714D02*
X106448176Y-94149952D01*
X106448176Y-94149952D02*
X106543414Y-94197571D01*
X106543414Y-94197571D02*
X106733890Y-94245190D01*
X106733890Y-94245190D02*
X106876747Y-94245190D01*
X106876747Y-94245190D02*
X107067223Y-94197571D01*
X107067223Y-94197571D02*
X107162461Y-94149952D01*
X107162461Y-94149952D02*
X107257700Y-94054714D01*
X107257700Y-94054714D02*
X107305319Y-93911857D01*
X107305319Y-93911857D02*
X107305319Y-93673762D01*
X107400557Y-94435667D02*
X107400557Y-95197571D01*
X106638652Y-95864238D02*
X107305319Y-95864238D01*
X106257700Y-95626143D02*
X106971985Y-95388048D01*
X106971985Y-95388048D02*
X106971985Y-96007095D01*
X106305319Y-96292810D02*
X106305319Y-96959476D01*
X106305319Y-96959476D02*
X107305319Y-96530905D01*
X106985319Y-98817095D02*
X105985319Y-98817095D01*
X106985319Y-99388523D02*
X106413890Y-98959952D01*
X105985319Y-99388523D02*
X106556747Y-98817095D01*
X297805319Y-55573762D02*
X296805319Y-55573762D01*
X296805319Y-55573762D02*
X296805319Y-55811857D01*
X296805319Y-55811857D02*
X296852938Y-55954714D01*
X296852938Y-55954714D02*
X296948176Y-56049952D01*
X296948176Y-56049952D02*
X297043414Y-56097571D01*
X297043414Y-56097571D02*
X297233890Y-56145190D01*
X297233890Y-56145190D02*
X297376747Y-56145190D01*
X297376747Y-56145190D02*
X297567223Y-56097571D01*
X297567223Y-56097571D02*
X297662461Y-56049952D01*
X297662461Y-56049952D02*
X297757700Y-55954714D01*
X297757700Y-55954714D02*
X297805319Y-55811857D01*
X297805319Y-55811857D02*
X297805319Y-55573762D01*
X297900557Y-56335667D02*
X297900557Y-57097571D01*
X296900557Y-57288048D02*
X296852938Y-57335667D01*
X296852938Y-57335667D02*
X296805319Y-57430905D01*
X296805319Y-57430905D02*
X296805319Y-57669000D01*
X296805319Y-57669000D02*
X296852938Y-57764238D01*
X296852938Y-57764238D02*
X296900557Y-57811857D01*
X296900557Y-57811857D02*
X296995795Y-57859476D01*
X296995795Y-57859476D02*
X297091033Y-57859476D01*
X297091033Y-57859476D02*
X297233890Y-57811857D01*
X297233890Y-57811857D02*
X297805319Y-57240429D01*
X297805319Y-57240429D02*
X297805319Y-57859476D01*
X296805319Y-58192810D02*
X296805319Y-58859476D01*
X296805319Y-58859476D02*
X297805319Y-58430905D01*
X297485319Y-60717095D02*
X296485319Y-60717095D01*
X297485319Y-61288523D02*
X296913890Y-60859952D01*
X296485319Y-61288523D02*
X297056747Y-60717095D01*
X126355319Y-74623762D02*
X125355319Y-74623762D01*
X125355319Y-74623762D02*
X125355319Y-74861857D01*
X125355319Y-74861857D02*
X125402938Y-75004714D01*
X125402938Y-75004714D02*
X125498176Y-75099952D01*
X125498176Y-75099952D02*
X125593414Y-75147571D01*
X125593414Y-75147571D02*
X125783890Y-75195190D01*
X125783890Y-75195190D02*
X125926747Y-75195190D01*
X125926747Y-75195190D02*
X126117223Y-75147571D01*
X126117223Y-75147571D02*
X126212461Y-75099952D01*
X126212461Y-75099952D02*
X126307700Y-75004714D01*
X126307700Y-75004714D02*
X126355319Y-74861857D01*
X126355319Y-74861857D02*
X126355319Y-74623762D01*
X126450557Y-75385667D02*
X126450557Y-76147571D01*
X125355319Y-76290429D02*
X125355319Y-76909476D01*
X125355319Y-76909476D02*
X125736271Y-76576143D01*
X125736271Y-76576143D02*
X125736271Y-76719000D01*
X125736271Y-76719000D02*
X125783890Y-76814238D01*
X125783890Y-76814238D02*
X125831509Y-76861857D01*
X125831509Y-76861857D02*
X125926747Y-76909476D01*
X125926747Y-76909476D02*
X126164842Y-76909476D01*
X126164842Y-76909476D02*
X126260080Y-76861857D01*
X126260080Y-76861857D02*
X126307700Y-76814238D01*
X126307700Y-76814238D02*
X126355319Y-76719000D01*
X126355319Y-76719000D02*
X126355319Y-76433286D01*
X126355319Y-76433286D02*
X126307700Y-76338048D01*
X126307700Y-76338048D02*
X126260080Y-76290429D01*
X125355319Y-77814238D02*
X125355319Y-77338048D01*
X125355319Y-77338048D02*
X125831509Y-77290429D01*
X125831509Y-77290429D02*
X125783890Y-77338048D01*
X125783890Y-77338048D02*
X125736271Y-77433286D01*
X125736271Y-77433286D02*
X125736271Y-77671381D01*
X125736271Y-77671381D02*
X125783890Y-77766619D01*
X125783890Y-77766619D02*
X125831509Y-77814238D01*
X125831509Y-77814238D02*
X125926747Y-77861857D01*
X125926747Y-77861857D02*
X126164842Y-77861857D01*
X126164842Y-77861857D02*
X126260080Y-77814238D01*
X126260080Y-77814238D02*
X126307700Y-77766619D01*
X126307700Y-77766619D02*
X126355319Y-77671381D01*
X126355319Y-77671381D02*
X126355319Y-77433286D01*
X126355319Y-77433286D02*
X126307700Y-77338048D01*
X126307700Y-77338048D02*
X126260080Y-77290429D01*
X126035319Y-79767095D02*
X125035319Y-79767095D01*
X126035319Y-80338523D02*
X125463890Y-79909952D01*
X125035319Y-80338523D02*
X125606747Y-79767095D01*
X69205319Y-74623762D02*
X68205319Y-74623762D01*
X68205319Y-74623762D02*
X68205319Y-74861857D01*
X68205319Y-74861857D02*
X68252938Y-75004714D01*
X68252938Y-75004714D02*
X68348176Y-75099952D01*
X68348176Y-75099952D02*
X68443414Y-75147571D01*
X68443414Y-75147571D02*
X68633890Y-75195190D01*
X68633890Y-75195190D02*
X68776747Y-75195190D01*
X68776747Y-75195190D02*
X68967223Y-75147571D01*
X68967223Y-75147571D02*
X69062461Y-75099952D01*
X69062461Y-75099952D02*
X69157700Y-75004714D01*
X69157700Y-75004714D02*
X69205319Y-74861857D01*
X69205319Y-74861857D02*
X69205319Y-74623762D01*
X69300557Y-75385667D02*
X69300557Y-76147571D01*
X68205319Y-76290429D02*
X68205319Y-76909476D01*
X68205319Y-76909476D02*
X68586271Y-76576143D01*
X68586271Y-76576143D02*
X68586271Y-76719000D01*
X68586271Y-76719000D02*
X68633890Y-76814238D01*
X68633890Y-76814238D02*
X68681509Y-76861857D01*
X68681509Y-76861857D02*
X68776747Y-76909476D01*
X68776747Y-76909476D02*
X69014842Y-76909476D01*
X69014842Y-76909476D02*
X69110080Y-76861857D01*
X69110080Y-76861857D02*
X69157700Y-76814238D01*
X69157700Y-76814238D02*
X69205319Y-76719000D01*
X69205319Y-76719000D02*
X69205319Y-76433286D01*
X69205319Y-76433286D02*
X69157700Y-76338048D01*
X69157700Y-76338048D02*
X69110080Y-76290429D01*
X68300557Y-77290429D02*
X68252938Y-77338048D01*
X68252938Y-77338048D02*
X68205319Y-77433286D01*
X68205319Y-77433286D02*
X68205319Y-77671381D01*
X68205319Y-77671381D02*
X68252938Y-77766619D01*
X68252938Y-77766619D02*
X68300557Y-77814238D01*
X68300557Y-77814238D02*
X68395795Y-77861857D01*
X68395795Y-77861857D02*
X68491033Y-77861857D01*
X68491033Y-77861857D02*
X68633890Y-77814238D01*
X68633890Y-77814238D02*
X69205319Y-77242810D01*
X69205319Y-77242810D02*
X69205319Y-77861857D01*
X68885319Y-79767095D02*
X67885319Y-79767095D01*
X68885319Y-80338523D02*
X68313890Y-79909952D01*
X67885319Y-80338523D02*
X68456747Y-79767095D01*
X209699069Y-112723762D02*
X208699069Y-112723762D01*
X208699069Y-112723762D02*
X208699069Y-112961857D01*
X208699069Y-112961857D02*
X208746688Y-113104714D01*
X208746688Y-113104714D02*
X208841926Y-113199952D01*
X208841926Y-113199952D02*
X208937164Y-113247571D01*
X208937164Y-113247571D02*
X209127640Y-113295190D01*
X209127640Y-113295190D02*
X209270497Y-113295190D01*
X209270497Y-113295190D02*
X209460973Y-113247571D01*
X209460973Y-113247571D02*
X209556211Y-113199952D01*
X209556211Y-113199952D02*
X209651450Y-113104714D01*
X209651450Y-113104714D02*
X209699069Y-112961857D01*
X209699069Y-112961857D02*
X209699069Y-112723762D01*
X209794307Y-113485667D02*
X209794307Y-114247571D01*
X208699069Y-114914238D02*
X208699069Y-114723762D01*
X208699069Y-114723762D02*
X208746688Y-114628524D01*
X208746688Y-114628524D02*
X208794307Y-114580905D01*
X208794307Y-114580905D02*
X208937164Y-114485667D01*
X208937164Y-114485667D02*
X209127640Y-114438048D01*
X209127640Y-114438048D02*
X209508592Y-114438048D01*
X209508592Y-114438048D02*
X209603830Y-114485667D01*
X209603830Y-114485667D02*
X209651450Y-114533286D01*
X209651450Y-114533286D02*
X209699069Y-114628524D01*
X209699069Y-114628524D02*
X209699069Y-114819000D01*
X209699069Y-114819000D02*
X209651450Y-114914238D01*
X209651450Y-114914238D02*
X209603830Y-114961857D01*
X209603830Y-114961857D02*
X209508592Y-115009476D01*
X209508592Y-115009476D02*
X209270497Y-115009476D01*
X209270497Y-115009476D02*
X209175259Y-114961857D01*
X209175259Y-114961857D02*
X209127640Y-114914238D01*
X209127640Y-114914238D02*
X209080021Y-114819000D01*
X209080021Y-114819000D02*
X209080021Y-114628524D01*
X209080021Y-114628524D02*
X209127640Y-114533286D01*
X209127640Y-114533286D02*
X209175259Y-114485667D01*
X209175259Y-114485667D02*
X209270497Y-114438048D01*
X208794307Y-115390429D02*
X208746688Y-115438048D01*
X208746688Y-115438048D02*
X208699069Y-115533286D01*
X208699069Y-115533286D02*
X208699069Y-115771381D01*
X208699069Y-115771381D02*
X208746688Y-115866619D01*
X208746688Y-115866619D02*
X208794307Y-115914238D01*
X208794307Y-115914238D02*
X208889545Y-115961857D01*
X208889545Y-115961857D02*
X208984783Y-115961857D01*
X208984783Y-115961857D02*
X209127640Y-115914238D01*
X209127640Y-115914238D02*
X209699069Y-115342810D01*
X209699069Y-115342810D02*
X209699069Y-115961857D01*
X209379069Y-117867095D02*
X208379069Y-117867095D01*
X209379069Y-118438523D02*
X208807640Y-118009952D01*
X208379069Y-118438523D02*
X208950497Y-117867095D01*
X259705319Y-74623762D02*
X258705319Y-74623762D01*
X258705319Y-74623762D02*
X258705319Y-74861857D01*
X258705319Y-74861857D02*
X258752938Y-75004714D01*
X258752938Y-75004714D02*
X258848176Y-75099952D01*
X258848176Y-75099952D02*
X258943414Y-75147571D01*
X258943414Y-75147571D02*
X259133890Y-75195190D01*
X259133890Y-75195190D02*
X259276747Y-75195190D01*
X259276747Y-75195190D02*
X259467223Y-75147571D01*
X259467223Y-75147571D02*
X259562461Y-75099952D01*
X259562461Y-75099952D02*
X259657700Y-75004714D01*
X259657700Y-75004714D02*
X259705319Y-74861857D01*
X259705319Y-74861857D02*
X259705319Y-74623762D01*
X259800557Y-75385667D02*
X259800557Y-76147571D01*
X258705319Y-76290429D02*
X258705319Y-76909476D01*
X258705319Y-76909476D02*
X259086271Y-76576143D01*
X259086271Y-76576143D02*
X259086271Y-76719000D01*
X259086271Y-76719000D02*
X259133890Y-76814238D01*
X259133890Y-76814238D02*
X259181509Y-76861857D01*
X259181509Y-76861857D02*
X259276747Y-76909476D01*
X259276747Y-76909476D02*
X259514842Y-76909476D01*
X259514842Y-76909476D02*
X259610080Y-76861857D01*
X259610080Y-76861857D02*
X259657700Y-76814238D01*
X259657700Y-76814238D02*
X259705319Y-76719000D01*
X259705319Y-76719000D02*
X259705319Y-76433286D01*
X259705319Y-76433286D02*
X259657700Y-76338048D01*
X259657700Y-76338048D02*
X259610080Y-76290429D01*
X259705319Y-77385667D02*
X259705319Y-77576143D01*
X259705319Y-77576143D02*
X259657700Y-77671381D01*
X259657700Y-77671381D02*
X259610080Y-77719000D01*
X259610080Y-77719000D02*
X259467223Y-77814238D01*
X259467223Y-77814238D02*
X259276747Y-77861857D01*
X259276747Y-77861857D02*
X258895795Y-77861857D01*
X258895795Y-77861857D02*
X258800557Y-77814238D01*
X258800557Y-77814238D02*
X258752938Y-77766619D01*
X258752938Y-77766619D02*
X258705319Y-77671381D01*
X258705319Y-77671381D02*
X258705319Y-77480905D01*
X258705319Y-77480905D02*
X258752938Y-77385667D01*
X258752938Y-77385667D02*
X258800557Y-77338048D01*
X258800557Y-77338048D02*
X258895795Y-77290429D01*
X258895795Y-77290429D02*
X259133890Y-77290429D01*
X259133890Y-77290429D02*
X259229128Y-77338048D01*
X259229128Y-77338048D02*
X259276747Y-77385667D01*
X259276747Y-77385667D02*
X259324366Y-77480905D01*
X259324366Y-77480905D02*
X259324366Y-77671381D01*
X259324366Y-77671381D02*
X259276747Y-77766619D01*
X259276747Y-77766619D02*
X259229128Y-77814238D01*
X259229128Y-77814238D02*
X259133890Y-77861857D01*
X259385319Y-79767095D02*
X258385319Y-79767095D01*
X259385319Y-80338523D02*
X258813890Y-79909952D01*
X258385319Y-80338523D02*
X258956747Y-79767095D01*
X283517819Y-112723762D02*
X282517819Y-112723762D01*
X282517819Y-112723762D02*
X282517819Y-112961857D01*
X282517819Y-112961857D02*
X282565438Y-113104714D01*
X282565438Y-113104714D02*
X282660676Y-113199952D01*
X282660676Y-113199952D02*
X282755914Y-113247571D01*
X282755914Y-113247571D02*
X282946390Y-113295190D01*
X282946390Y-113295190D02*
X283089247Y-113295190D01*
X283089247Y-113295190D02*
X283279723Y-113247571D01*
X283279723Y-113247571D02*
X283374961Y-113199952D01*
X283374961Y-113199952D02*
X283470200Y-113104714D01*
X283470200Y-113104714D02*
X283517819Y-112961857D01*
X283517819Y-112961857D02*
X283517819Y-112723762D01*
X283613057Y-113485667D02*
X283613057Y-114247571D01*
X282517819Y-114914238D02*
X282517819Y-114723762D01*
X282517819Y-114723762D02*
X282565438Y-114628524D01*
X282565438Y-114628524D02*
X282613057Y-114580905D01*
X282613057Y-114580905D02*
X282755914Y-114485667D01*
X282755914Y-114485667D02*
X282946390Y-114438048D01*
X282946390Y-114438048D02*
X283327342Y-114438048D01*
X283327342Y-114438048D02*
X283422580Y-114485667D01*
X283422580Y-114485667D02*
X283470200Y-114533286D01*
X283470200Y-114533286D02*
X283517819Y-114628524D01*
X283517819Y-114628524D02*
X283517819Y-114819000D01*
X283517819Y-114819000D02*
X283470200Y-114914238D01*
X283470200Y-114914238D02*
X283422580Y-114961857D01*
X283422580Y-114961857D02*
X283327342Y-115009476D01*
X283327342Y-115009476D02*
X283089247Y-115009476D01*
X283089247Y-115009476D02*
X282994009Y-114961857D01*
X282994009Y-114961857D02*
X282946390Y-114914238D01*
X282946390Y-114914238D02*
X282898771Y-114819000D01*
X282898771Y-114819000D02*
X282898771Y-114628524D01*
X282898771Y-114628524D02*
X282946390Y-114533286D01*
X282946390Y-114533286D02*
X282994009Y-114485667D01*
X282994009Y-114485667D02*
X283089247Y-114438048D01*
X282517819Y-115914238D02*
X282517819Y-115438048D01*
X282517819Y-115438048D02*
X282994009Y-115390429D01*
X282994009Y-115390429D02*
X282946390Y-115438048D01*
X282946390Y-115438048D02*
X282898771Y-115533286D01*
X282898771Y-115533286D02*
X282898771Y-115771381D01*
X282898771Y-115771381D02*
X282946390Y-115866619D01*
X282946390Y-115866619D02*
X282994009Y-115914238D01*
X282994009Y-115914238D02*
X283089247Y-115961857D01*
X283089247Y-115961857D02*
X283327342Y-115961857D01*
X283327342Y-115961857D02*
X283422580Y-115914238D01*
X283422580Y-115914238D02*
X283470200Y-115866619D01*
X283470200Y-115866619D02*
X283517819Y-115771381D01*
X283517819Y-115771381D02*
X283517819Y-115533286D01*
X283517819Y-115533286D02*
X283470200Y-115438048D01*
X283470200Y-115438048D02*
X283422580Y-115390429D01*
X283197819Y-117867095D02*
X282197819Y-117867095D01*
X283197819Y-118438523D02*
X282626390Y-118009952D01*
X282197819Y-118438523D02*
X282769247Y-117867095D01*
X238274069Y-112723762D02*
X237274069Y-112723762D01*
X237274069Y-112723762D02*
X237274069Y-112961857D01*
X237274069Y-112961857D02*
X237321688Y-113104714D01*
X237321688Y-113104714D02*
X237416926Y-113199952D01*
X237416926Y-113199952D02*
X237512164Y-113247571D01*
X237512164Y-113247571D02*
X237702640Y-113295190D01*
X237702640Y-113295190D02*
X237845497Y-113295190D01*
X237845497Y-113295190D02*
X238035973Y-113247571D01*
X238035973Y-113247571D02*
X238131211Y-113199952D01*
X238131211Y-113199952D02*
X238226450Y-113104714D01*
X238226450Y-113104714D02*
X238274069Y-112961857D01*
X238274069Y-112961857D02*
X238274069Y-112723762D01*
X238369307Y-113485667D02*
X238369307Y-114247571D01*
X237274069Y-114914238D02*
X237274069Y-114723762D01*
X237274069Y-114723762D02*
X237321688Y-114628524D01*
X237321688Y-114628524D02*
X237369307Y-114580905D01*
X237369307Y-114580905D02*
X237512164Y-114485667D01*
X237512164Y-114485667D02*
X237702640Y-114438048D01*
X237702640Y-114438048D02*
X238083592Y-114438048D01*
X238083592Y-114438048D02*
X238178830Y-114485667D01*
X238178830Y-114485667D02*
X238226450Y-114533286D01*
X238226450Y-114533286D02*
X238274069Y-114628524D01*
X238274069Y-114628524D02*
X238274069Y-114819000D01*
X238274069Y-114819000D02*
X238226450Y-114914238D01*
X238226450Y-114914238D02*
X238178830Y-114961857D01*
X238178830Y-114961857D02*
X238083592Y-115009476D01*
X238083592Y-115009476D02*
X237845497Y-115009476D01*
X237845497Y-115009476D02*
X237750259Y-114961857D01*
X237750259Y-114961857D02*
X237702640Y-114914238D01*
X237702640Y-114914238D02*
X237655021Y-114819000D01*
X237655021Y-114819000D02*
X237655021Y-114628524D01*
X237655021Y-114628524D02*
X237702640Y-114533286D01*
X237702640Y-114533286D02*
X237750259Y-114485667D01*
X237750259Y-114485667D02*
X237845497Y-114438048D01*
X237274069Y-115342810D02*
X237274069Y-115961857D01*
X237274069Y-115961857D02*
X237655021Y-115628524D01*
X237655021Y-115628524D02*
X237655021Y-115771381D01*
X237655021Y-115771381D02*
X237702640Y-115866619D01*
X237702640Y-115866619D02*
X237750259Y-115914238D01*
X237750259Y-115914238D02*
X237845497Y-115961857D01*
X237845497Y-115961857D02*
X238083592Y-115961857D01*
X238083592Y-115961857D02*
X238178830Y-115914238D01*
X238178830Y-115914238D02*
X238226450Y-115866619D01*
X238226450Y-115866619D02*
X238274069Y-115771381D01*
X238274069Y-115771381D02*
X238274069Y-115485667D01*
X238274069Y-115485667D02*
X238226450Y-115390429D01*
X238226450Y-115390429D02*
X238178830Y-115342810D01*
X237954069Y-117867095D02*
X236954069Y-117867095D01*
X237954069Y-118438523D02*
X237382640Y-118009952D01*
X236954069Y-118438523D02*
X237525497Y-117867095D01*
X240655319Y-74623762D02*
X239655319Y-74623762D01*
X239655319Y-74623762D02*
X239655319Y-74861857D01*
X239655319Y-74861857D02*
X239702938Y-75004714D01*
X239702938Y-75004714D02*
X239798176Y-75099952D01*
X239798176Y-75099952D02*
X239893414Y-75147571D01*
X239893414Y-75147571D02*
X240083890Y-75195190D01*
X240083890Y-75195190D02*
X240226747Y-75195190D01*
X240226747Y-75195190D02*
X240417223Y-75147571D01*
X240417223Y-75147571D02*
X240512461Y-75099952D01*
X240512461Y-75099952D02*
X240607700Y-75004714D01*
X240607700Y-75004714D02*
X240655319Y-74861857D01*
X240655319Y-74861857D02*
X240655319Y-74623762D01*
X240750557Y-75385667D02*
X240750557Y-76147571D01*
X239655319Y-76290429D02*
X239655319Y-76909476D01*
X239655319Y-76909476D02*
X240036271Y-76576143D01*
X240036271Y-76576143D02*
X240036271Y-76719000D01*
X240036271Y-76719000D02*
X240083890Y-76814238D01*
X240083890Y-76814238D02*
X240131509Y-76861857D01*
X240131509Y-76861857D02*
X240226747Y-76909476D01*
X240226747Y-76909476D02*
X240464842Y-76909476D01*
X240464842Y-76909476D02*
X240560080Y-76861857D01*
X240560080Y-76861857D02*
X240607700Y-76814238D01*
X240607700Y-76814238D02*
X240655319Y-76719000D01*
X240655319Y-76719000D02*
X240655319Y-76433286D01*
X240655319Y-76433286D02*
X240607700Y-76338048D01*
X240607700Y-76338048D02*
X240560080Y-76290429D01*
X240083890Y-77480905D02*
X240036271Y-77385667D01*
X240036271Y-77385667D02*
X239988652Y-77338048D01*
X239988652Y-77338048D02*
X239893414Y-77290429D01*
X239893414Y-77290429D02*
X239845795Y-77290429D01*
X239845795Y-77290429D02*
X239750557Y-77338048D01*
X239750557Y-77338048D02*
X239702938Y-77385667D01*
X239702938Y-77385667D02*
X239655319Y-77480905D01*
X239655319Y-77480905D02*
X239655319Y-77671381D01*
X239655319Y-77671381D02*
X239702938Y-77766619D01*
X239702938Y-77766619D02*
X239750557Y-77814238D01*
X239750557Y-77814238D02*
X239845795Y-77861857D01*
X239845795Y-77861857D02*
X239893414Y-77861857D01*
X239893414Y-77861857D02*
X239988652Y-77814238D01*
X239988652Y-77814238D02*
X240036271Y-77766619D01*
X240036271Y-77766619D02*
X240083890Y-77671381D01*
X240083890Y-77671381D02*
X240083890Y-77480905D01*
X240083890Y-77480905D02*
X240131509Y-77385667D01*
X240131509Y-77385667D02*
X240179128Y-77338048D01*
X240179128Y-77338048D02*
X240274366Y-77290429D01*
X240274366Y-77290429D02*
X240464842Y-77290429D01*
X240464842Y-77290429D02*
X240560080Y-77338048D01*
X240560080Y-77338048D02*
X240607700Y-77385667D01*
X240607700Y-77385667D02*
X240655319Y-77480905D01*
X240655319Y-77480905D02*
X240655319Y-77671381D01*
X240655319Y-77671381D02*
X240607700Y-77766619D01*
X240607700Y-77766619D02*
X240560080Y-77814238D01*
X240560080Y-77814238D02*
X240464842Y-77861857D01*
X240464842Y-77861857D02*
X240274366Y-77861857D01*
X240274366Y-77861857D02*
X240179128Y-77814238D01*
X240179128Y-77814238D02*
X240131509Y-77766619D01*
X240131509Y-77766619D02*
X240083890Y-77671381D01*
X240335319Y-79767095D02*
X239335319Y-79767095D01*
X240335319Y-80338523D02*
X239763890Y-79909952D01*
X239335319Y-80338523D02*
X239906747Y-79767095D01*
X202555319Y-74623762D02*
X201555319Y-74623762D01*
X201555319Y-74623762D02*
X201555319Y-74861857D01*
X201555319Y-74861857D02*
X201602938Y-75004714D01*
X201602938Y-75004714D02*
X201698176Y-75099952D01*
X201698176Y-75099952D02*
X201793414Y-75147571D01*
X201793414Y-75147571D02*
X201983890Y-75195190D01*
X201983890Y-75195190D02*
X202126747Y-75195190D01*
X202126747Y-75195190D02*
X202317223Y-75147571D01*
X202317223Y-75147571D02*
X202412461Y-75099952D01*
X202412461Y-75099952D02*
X202507700Y-75004714D01*
X202507700Y-75004714D02*
X202555319Y-74861857D01*
X202555319Y-74861857D02*
X202555319Y-74623762D01*
X202650557Y-75385667D02*
X202650557Y-76147571D01*
X201555319Y-76290429D02*
X201555319Y-76909476D01*
X201555319Y-76909476D02*
X201936271Y-76576143D01*
X201936271Y-76576143D02*
X201936271Y-76719000D01*
X201936271Y-76719000D02*
X201983890Y-76814238D01*
X201983890Y-76814238D02*
X202031509Y-76861857D01*
X202031509Y-76861857D02*
X202126747Y-76909476D01*
X202126747Y-76909476D02*
X202364842Y-76909476D01*
X202364842Y-76909476D02*
X202460080Y-76861857D01*
X202460080Y-76861857D02*
X202507700Y-76814238D01*
X202507700Y-76814238D02*
X202555319Y-76719000D01*
X202555319Y-76719000D02*
X202555319Y-76433286D01*
X202555319Y-76433286D02*
X202507700Y-76338048D01*
X202507700Y-76338048D02*
X202460080Y-76290429D01*
X201555319Y-77766619D02*
X201555319Y-77576143D01*
X201555319Y-77576143D02*
X201602938Y-77480905D01*
X201602938Y-77480905D02*
X201650557Y-77433286D01*
X201650557Y-77433286D02*
X201793414Y-77338048D01*
X201793414Y-77338048D02*
X201983890Y-77290429D01*
X201983890Y-77290429D02*
X202364842Y-77290429D01*
X202364842Y-77290429D02*
X202460080Y-77338048D01*
X202460080Y-77338048D02*
X202507700Y-77385667D01*
X202507700Y-77385667D02*
X202555319Y-77480905D01*
X202555319Y-77480905D02*
X202555319Y-77671381D01*
X202555319Y-77671381D02*
X202507700Y-77766619D01*
X202507700Y-77766619D02*
X202460080Y-77814238D01*
X202460080Y-77814238D02*
X202364842Y-77861857D01*
X202364842Y-77861857D02*
X202126747Y-77861857D01*
X202126747Y-77861857D02*
X202031509Y-77814238D01*
X202031509Y-77814238D02*
X201983890Y-77766619D01*
X201983890Y-77766619D02*
X201936271Y-77671381D01*
X201936271Y-77671381D02*
X201936271Y-77480905D01*
X201936271Y-77480905D02*
X201983890Y-77385667D01*
X201983890Y-77385667D02*
X202031509Y-77338048D01*
X202031509Y-77338048D02*
X202126747Y-77290429D01*
X202235319Y-79767095D02*
X201235319Y-79767095D01*
X202235319Y-80338523D02*
X201663890Y-79909952D01*
X201235319Y-80338523D02*
X201806747Y-79767095D01*
X88255319Y-74623762D02*
X87255319Y-74623762D01*
X87255319Y-74623762D02*
X87255319Y-74861857D01*
X87255319Y-74861857D02*
X87302938Y-75004714D01*
X87302938Y-75004714D02*
X87398176Y-75099952D01*
X87398176Y-75099952D02*
X87493414Y-75147571D01*
X87493414Y-75147571D02*
X87683890Y-75195190D01*
X87683890Y-75195190D02*
X87826747Y-75195190D01*
X87826747Y-75195190D02*
X88017223Y-75147571D01*
X88017223Y-75147571D02*
X88112461Y-75099952D01*
X88112461Y-75099952D02*
X88207700Y-75004714D01*
X88207700Y-75004714D02*
X88255319Y-74861857D01*
X88255319Y-74861857D02*
X88255319Y-74623762D01*
X88350557Y-75385667D02*
X88350557Y-76147571D01*
X87255319Y-76290429D02*
X87255319Y-76909476D01*
X87255319Y-76909476D02*
X87636271Y-76576143D01*
X87636271Y-76576143D02*
X87636271Y-76719000D01*
X87636271Y-76719000D02*
X87683890Y-76814238D01*
X87683890Y-76814238D02*
X87731509Y-76861857D01*
X87731509Y-76861857D02*
X87826747Y-76909476D01*
X87826747Y-76909476D02*
X88064842Y-76909476D01*
X88064842Y-76909476D02*
X88160080Y-76861857D01*
X88160080Y-76861857D02*
X88207700Y-76814238D01*
X88207700Y-76814238D02*
X88255319Y-76719000D01*
X88255319Y-76719000D02*
X88255319Y-76433286D01*
X88255319Y-76433286D02*
X88207700Y-76338048D01*
X88207700Y-76338048D02*
X88160080Y-76290429D01*
X87255319Y-77242810D02*
X87255319Y-77861857D01*
X87255319Y-77861857D02*
X87636271Y-77528524D01*
X87636271Y-77528524D02*
X87636271Y-77671381D01*
X87636271Y-77671381D02*
X87683890Y-77766619D01*
X87683890Y-77766619D02*
X87731509Y-77814238D01*
X87731509Y-77814238D02*
X87826747Y-77861857D01*
X87826747Y-77861857D02*
X88064842Y-77861857D01*
X88064842Y-77861857D02*
X88160080Y-77814238D01*
X88160080Y-77814238D02*
X88207700Y-77766619D01*
X88207700Y-77766619D02*
X88255319Y-77671381D01*
X88255319Y-77671381D02*
X88255319Y-77385667D01*
X88255319Y-77385667D02*
X88207700Y-77290429D01*
X88207700Y-77290429D02*
X88160080Y-77242810D01*
X87935319Y-79767095D02*
X86935319Y-79767095D01*
X87935319Y-80338523D02*
X87363890Y-79909952D01*
X86935319Y-80338523D02*
X87506747Y-79767095D01*
X69205319Y-55573762D02*
X68205319Y-55573762D01*
X68205319Y-55573762D02*
X68205319Y-55811857D01*
X68205319Y-55811857D02*
X68252938Y-55954714D01*
X68252938Y-55954714D02*
X68348176Y-56049952D01*
X68348176Y-56049952D02*
X68443414Y-56097571D01*
X68443414Y-56097571D02*
X68633890Y-56145190D01*
X68633890Y-56145190D02*
X68776747Y-56145190D01*
X68776747Y-56145190D02*
X68967223Y-56097571D01*
X68967223Y-56097571D02*
X69062461Y-56049952D01*
X69062461Y-56049952D02*
X69157700Y-55954714D01*
X69157700Y-55954714D02*
X69205319Y-55811857D01*
X69205319Y-55811857D02*
X69205319Y-55573762D01*
X69300557Y-56335667D02*
X69300557Y-57097571D01*
X69205319Y-57859476D02*
X69205319Y-57288048D01*
X69205319Y-57573762D02*
X68205319Y-57573762D01*
X68205319Y-57573762D02*
X68348176Y-57478524D01*
X68348176Y-57478524D02*
X68443414Y-57383286D01*
X68443414Y-57383286D02*
X68491033Y-57288048D01*
X68633890Y-58430905D02*
X68586271Y-58335667D01*
X68586271Y-58335667D02*
X68538652Y-58288048D01*
X68538652Y-58288048D02*
X68443414Y-58240429D01*
X68443414Y-58240429D02*
X68395795Y-58240429D01*
X68395795Y-58240429D02*
X68300557Y-58288048D01*
X68300557Y-58288048D02*
X68252938Y-58335667D01*
X68252938Y-58335667D02*
X68205319Y-58430905D01*
X68205319Y-58430905D02*
X68205319Y-58621381D01*
X68205319Y-58621381D02*
X68252938Y-58716619D01*
X68252938Y-58716619D02*
X68300557Y-58764238D01*
X68300557Y-58764238D02*
X68395795Y-58811857D01*
X68395795Y-58811857D02*
X68443414Y-58811857D01*
X68443414Y-58811857D02*
X68538652Y-58764238D01*
X68538652Y-58764238D02*
X68586271Y-58716619D01*
X68586271Y-58716619D02*
X68633890Y-58621381D01*
X68633890Y-58621381D02*
X68633890Y-58430905D01*
X68633890Y-58430905D02*
X68681509Y-58335667D01*
X68681509Y-58335667D02*
X68729128Y-58288048D01*
X68729128Y-58288048D02*
X68824366Y-58240429D01*
X68824366Y-58240429D02*
X69014842Y-58240429D01*
X69014842Y-58240429D02*
X69110080Y-58288048D01*
X69110080Y-58288048D02*
X69157700Y-58335667D01*
X69157700Y-58335667D02*
X69205319Y-58430905D01*
X69205319Y-58430905D02*
X69205319Y-58621381D01*
X69205319Y-58621381D02*
X69157700Y-58716619D01*
X69157700Y-58716619D02*
X69110080Y-58764238D01*
X69110080Y-58764238D02*
X69014842Y-58811857D01*
X69014842Y-58811857D02*
X68824366Y-58811857D01*
X68824366Y-58811857D02*
X68729128Y-58764238D01*
X68729128Y-58764238D02*
X68681509Y-58716619D01*
X68681509Y-58716619D02*
X68633890Y-58621381D01*
X68885319Y-60717095D02*
X67885319Y-60717095D01*
X68885319Y-61288523D02*
X68313890Y-60859952D01*
X67885319Y-61288523D02*
X68456747Y-60717095D01*
X107305319Y-74623762D02*
X106305319Y-74623762D01*
X106305319Y-74623762D02*
X106305319Y-74861857D01*
X106305319Y-74861857D02*
X106352938Y-75004714D01*
X106352938Y-75004714D02*
X106448176Y-75099952D01*
X106448176Y-75099952D02*
X106543414Y-75147571D01*
X106543414Y-75147571D02*
X106733890Y-75195190D01*
X106733890Y-75195190D02*
X106876747Y-75195190D01*
X106876747Y-75195190D02*
X107067223Y-75147571D01*
X107067223Y-75147571D02*
X107162461Y-75099952D01*
X107162461Y-75099952D02*
X107257700Y-75004714D01*
X107257700Y-75004714D02*
X107305319Y-74861857D01*
X107305319Y-74861857D02*
X107305319Y-74623762D01*
X107400557Y-75385667D02*
X107400557Y-76147571D01*
X106305319Y-76290429D02*
X106305319Y-76909476D01*
X106305319Y-76909476D02*
X106686271Y-76576143D01*
X106686271Y-76576143D02*
X106686271Y-76719000D01*
X106686271Y-76719000D02*
X106733890Y-76814238D01*
X106733890Y-76814238D02*
X106781509Y-76861857D01*
X106781509Y-76861857D02*
X106876747Y-76909476D01*
X106876747Y-76909476D02*
X107114842Y-76909476D01*
X107114842Y-76909476D02*
X107210080Y-76861857D01*
X107210080Y-76861857D02*
X107257700Y-76814238D01*
X107257700Y-76814238D02*
X107305319Y-76719000D01*
X107305319Y-76719000D02*
X107305319Y-76433286D01*
X107305319Y-76433286D02*
X107257700Y-76338048D01*
X107257700Y-76338048D02*
X107210080Y-76290429D01*
X106638652Y-77766619D02*
X107305319Y-77766619D01*
X106257700Y-77528524D02*
X106971985Y-77290429D01*
X106971985Y-77290429D02*
X106971985Y-77909476D01*
X106985319Y-79767095D02*
X105985319Y-79767095D01*
X106985319Y-80338523D02*
X106413890Y-79909952D01*
X105985319Y-80338523D02*
X106556747Y-79767095D01*
X316855319Y-36523762D02*
X315855319Y-36523762D01*
X315855319Y-36523762D02*
X315855319Y-36761857D01*
X315855319Y-36761857D02*
X315902938Y-36904714D01*
X315902938Y-36904714D02*
X315998176Y-36999952D01*
X315998176Y-36999952D02*
X316093414Y-37047571D01*
X316093414Y-37047571D02*
X316283890Y-37095190D01*
X316283890Y-37095190D02*
X316426747Y-37095190D01*
X316426747Y-37095190D02*
X316617223Y-37047571D01*
X316617223Y-37047571D02*
X316712461Y-36999952D01*
X316712461Y-36999952D02*
X316807700Y-36904714D01*
X316807700Y-36904714D02*
X316855319Y-36761857D01*
X316855319Y-36761857D02*
X316855319Y-36523762D01*
X316950557Y-37285667D02*
X316950557Y-38047571D01*
X316855319Y-38809476D02*
X316855319Y-38238048D01*
X316855319Y-38523762D02*
X315855319Y-38523762D01*
X315855319Y-38523762D02*
X315998176Y-38428524D01*
X315998176Y-38428524D02*
X316093414Y-38333286D01*
X316093414Y-38333286D02*
X316141033Y-38238048D01*
X315855319Y-39142810D02*
X315855319Y-39761857D01*
X315855319Y-39761857D02*
X316236271Y-39428524D01*
X316236271Y-39428524D02*
X316236271Y-39571381D01*
X316236271Y-39571381D02*
X316283890Y-39666619D01*
X316283890Y-39666619D02*
X316331509Y-39714238D01*
X316331509Y-39714238D02*
X316426747Y-39761857D01*
X316426747Y-39761857D02*
X316664842Y-39761857D01*
X316664842Y-39761857D02*
X316760080Y-39714238D01*
X316760080Y-39714238D02*
X316807700Y-39666619D01*
X316807700Y-39666619D02*
X316855319Y-39571381D01*
X316855319Y-39571381D02*
X316855319Y-39285667D01*
X316855319Y-39285667D02*
X316807700Y-39190429D01*
X316807700Y-39190429D02*
X316760080Y-39142810D01*
X316535319Y-41667095D02*
X315535319Y-41667095D01*
X316535319Y-42238523D02*
X315963890Y-41809952D01*
X315535319Y-42238523D02*
X316106747Y-41667095D01*
X19199069Y-93673762D02*
X18199069Y-93673762D01*
X18199069Y-93673762D02*
X18199069Y-93911857D01*
X18199069Y-93911857D02*
X18246688Y-94054714D01*
X18246688Y-94054714D02*
X18341926Y-94149952D01*
X18341926Y-94149952D02*
X18437164Y-94197571D01*
X18437164Y-94197571D02*
X18627640Y-94245190D01*
X18627640Y-94245190D02*
X18770497Y-94245190D01*
X18770497Y-94245190D02*
X18960973Y-94197571D01*
X18960973Y-94197571D02*
X19056211Y-94149952D01*
X19056211Y-94149952D02*
X19151450Y-94054714D01*
X19151450Y-94054714D02*
X19199069Y-93911857D01*
X19199069Y-93911857D02*
X19199069Y-93673762D01*
X19294307Y-94435667D02*
X19294307Y-95197571D01*
X18532402Y-95864238D02*
X19199069Y-95864238D01*
X18151450Y-95626143D02*
X18865735Y-95388048D01*
X18865735Y-95388048D02*
X18865735Y-96007095D01*
X18199069Y-96292810D02*
X18199069Y-96911857D01*
X18199069Y-96911857D02*
X18580021Y-96578524D01*
X18580021Y-96578524D02*
X18580021Y-96721381D01*
X18580021Y-96721381D02*
X18627640Y-96816619D01*
X18627640Y-96816619D02*
X18675259Y-96864238D01*
X18675259Y-96864238D02*
X18770497Y-96911857D01*
X18770497Y-96911857D02*
X19008592Y-96911857D01*
X19008592Y-96911857D02*
X19103830Y-96864238D01*
X19103830Y-96864238D02*
X19151450Y-96816619D01*
X19151450Y-96816619D02*
X19199069Y-96721381D01*
X19199069Y-96721381D02*
X19199069Y-96435667D01*
X19199069Y-96435667D02*
X19151450Y-96340429D01*
X19151450Y-96340429D02*
X19103830Y-96292810D01*
X18879069Y-98817095D02*
X17879069Y-98817095D01*
X18879069Y-99388523D02*
X18307640Y-98959952D01*
X17879069Y-99388523D02*
X18450497Y-98817095D01*
X126355319Y-36999952D02*
X125355319Y-36999952D01*
X125355319Y-36999952D02*
X125355319Y-37238047D01*
X125355319Y-37238047D02*
X125402938Y-37380904D01*
X125402938Y-37380904D02*
X125498176Y-37476142D01*
X125498176Y-37476142D02*
X125593414Y-37523761D01*
X125593414Y-37523761D02*
X125783890Y-37571380D01*
X125783890Y-37571380D02*
X125926747Y-37571380D01*
X125926747Y-37571380D02*
X126117223Y-37523761D01*
X126117223Y-37523761D02*
X126212461Y-37476142D01*
X126212461Y-37476142D02*
X126307700Y-37380904D01*
X126307700Y-37380904D02*
X126355319Y-37238047D01*
X126355319Y-37238047D02*
X126355319Y-36999952D01*
X126450557Y-37761857D02*
X126450557Y-38523761D01*
X125355319Y-39190428D02*
X125355319Y-38999952D01*
X125355319Y-38999952D02*
X125402938Y-38904714D01*
X125402938Y-38904714D02*
X125450557Y-38857095D01*
X125450557Y-38857095D02*
X125593414Y-38761857D01*
X125593414Y-38761857D02*
X125783890Y-38714238D01*
X125783890Y-38714238D02*
X126164842Y-38714238D01*
X126164842Y-38714238D02*
X126260080Y-38761857D01*
X126260080Y-38761857D02*
X126307700Y-38809476D01*
X126307700Y-38809476D02*
X126355319Y-38904714D01*
X126355319Y-38904714D02*
X126355319Y-39095190D01*
X126355319Y-39095190D02*
X126307700Y-39190428D01*
X126307700Y-39190428D02*
X126260080Y-39238047D01*
X126260080Y-39238047D02*
X126164842Y-39285666D01*
X126164842Y-39285666D02*
X125926747Y-39285666D01*
X125926747Y-39285666D02*
X125831509Y-39238047D01*
X125831509Y-39238047D02*
X125783890Y-39190428D01*
X125783890Y-39190428D02*
X125736271Y-39095190D01*
X125736271Y-39095190D02*
X125736271Y-38904714D01*
X125736271Y-38904714D02*
X125783890Y-38809476D01*
X125783890Y-38809476D02*
X125831509Y-38761857D01*
X125831509Y-38761857D02*
X125926747Y-38714238D01*
X126035319Y-41667095D02*
X125035319Y-41667095D01*
X126035319Y-42238523D02*
X125463890Y-41809952D01*
X125035319Y-42238523D02*
X125606747Y-41667095D01*
X126355319Y-93673762D02*
X125355319Y-93673762D01*
X125355319Y-93673762D02*
X125355319Y-93911857D01*
X125355319Y-93911857D02*
X125402938Y-94054714D01*
X125402938Y-94054714D02*
X125498176Y-94149952D01*
X125498176Y-94149952D02*
X125593414Y-94197571D01*
X125593414Y-94197571D02*
X125783890Y-94245190D01*
X125783890Y-94245190D02*
X125926747Y-94245190D01*
X125926747Y-94245190D02*
X126117223Y-94197571D01*
X126117223Y-94197571D02*
X126212461Y-94149952D01*
X126212461Y-94149952D02*
X126307700Y-94054714D01*
X126307700Y-94054714D02*
X126355319Y-93911857D01*
X126355319Y-93911857D02*
X126355319Y-93673762D01*
X126450557Y-94435667D02*
X126450557Y-95197571D01*
X125688652Y-95864238D02*
X126355319Y-95864238D01*
X125307700Y-95626143D02*
X126021985Y-95388048D01*
X126021985Y-95388048D02*
X126021985Y-96007095D01*
X125783890Y-96530905D02*
X125736271Y-96435667D01*
X125736271Y-96435667D02*
X125688652Y-96388048D01*
X125688652Y-96388048D02*
X125593414Y-96340429D01*
X125593414Y-96340429D02*
X125545795Y-96340429D01*
X125545795Y-96340429D02*
X125450557Y-96388048D01*
X125450557Y-96388048D02*
X125402938Y-96435667D01*
X125402938Y-96435667D02*
X125355319Y-96530905D01*
X125355319Y-96530905D02*
X125355319Y-96721381D01*
X125355319Y-96721381D02*
X125402938Y-96816619D01*
X125402938Y-96816619D02*
X125450557Y-96864238D01*
X125450557Y-96864238D02*
X125545795Y-96911857D01*
X125545795Y-96911857D02*
X125593414Y-96911857D01*
X125593414Y-96911857D02*
X125688652Y-96864238D01*
X125688652Y-96864238D02*
X125736271Y-96816619D01*
X125736271Y-96816619D02*
X125783890Y-96721381D01*
X125783890Y-96721381D02*
X125783890Y-96530905D01*
X125783890Y-96530905D02*
X125831509Y-96435667D01*
X125831509Y-96435667D02*
X125879128Y-96388048D01*
X125879128Y-96388048D02*
X125974366Y-96340429D01*
X125974366Y-96340429D02*
X126164842Y-96340429D01*
X126164842Y-96340429D02*
X126260080Y-96388048D01*
X126260080Y-96388048D02*
X126307700Y-96435667D01*
X126307700Y-96435667D02*
X126355319Y-96530905D01*
X126355319Y-96530905D02*
X126355319Y-96721381D01*
X126355319Y-96721381D02*
X126307700Y-96816619D01*
X126307700Y-96816619D02*
X126260080Y-96864238D01*
X126260080Y-96864238D02*
X126164842Y-96911857D01*
X126164842Y-96911857D02*
X125974366Y-96911857D01*
X125974366Y-96911857D02*
X125879128Y-96864238D01*
X125879128Y-96864238D02*
X125831509Y-96816619D01*
X125831509Y-96816619D02*
X125783890Y-96721381D01*
X126035319Y-98817095D02*
X125035319Y-98817095D01*
X126035319Y-99388523D02*
X125463890Y-98959952D01*
X125035319Y-99388523D02*
X125606747Y-98817095D01*
X262086569Y-112723762D02*
X261086569Y-112723762D01*
X261086569Y-112723762D02*
X261086569Y-112961857D01*
X261086569Y-112961857D02*
X261134188Y-113104714D01*
X261134188Y-113104714D02*
X261229426Y-113199952D01*
X261229426Y-113199952D02*
X261324664Y-113247571D01*
X261324664Y-113247571D02*
X261515140Y-113295190D01*
X261515140Y-113295190D02*
X261657997Y-113295190D01*
X261657997Y-113295190D02*
X261848473Y-113247571D01*
X261848473Y-113247571D02*
X261943711Y-113199952D01*
X261943711Y-113199952D02*
X262038950Y-113104714D01*
X262038950Y-113104714D02*
X262086569Y-112961857D01*
X262086569Y-112961857D02*
X262086569Y-112723762D01*
X262181807Y-113485667D02*
X262181807Y-114247571D01*
X261086569Y-114914238D02*
X261086569Y-114723762D01*
X261086569Y-114723762D02*
X261134188Y-114628524D01*
X261134188Y-114628524D02*
X261181807Y-114580905D01*
X261181807Y-114580905D02*
X261324664Y-114485667D01*
X261324664Y-114485667D02*
X261515140Y-114438048D01*
X261515140Y-114438048D02*
X261896092Y-114438048D01*
X261896092Y-114438048D02*
X261991330Y-114485667D01*
X261991330Y-114485667D02*
X262038950Y-114533286D01*
X262038950Y-114533286D02*
X262086569Y-114628524D01*
X262086569Y-114628524D02*
X262086569Y-114819000D01*
X262086569Y-114819000D02*
X262038950Y-114914238D01*
X262038950Y-114914238D02*
X261991330Y-114961857D01*
X261991330Y-114961857D02*
X261896092Y-115009476D01*
X261896092Y-115009476D02*
X261657997Y-115009476D01*
X261657997Y-115009476D02*
X261562759Y-114961857D01*
X261562759Y-114961857D02*
X261515140Y-114914238D01*
X261515140Y-114914238D02*
X261467521Y-114819000D01*
X261467521Y-114819000D02*
X261467521Y-114628524D01*
X261467521Y-114628524D02*
X261515140Y-114533286D01*
X261515140Y-114533286D02*
X261562759Y-114485667D01*
X261562759Y-114485667D02*
X261657997Y-114438048D01*
X261419902Y-115866619D02*
X262086569Y-115866619D01*
X261038950Y-115628524D02*
X261753235Y-115390429D01*
X261753235Y-115390429D02*
X261753235Y-116009476D01*
X261766569Y-117867095D02*
X260766569Y-117867095D01*
X261766569Y-118438523D02*
X261195140Y-118009952D01*
X260766569Y-118438523D02*
X261337997Y-117867095D01*
X240655319Y-36999952D02*
X239655319Y-36999952D01*
X239655319Y-36999952D02*
X239655319Y-37238047D01*
X239655319Y-37238047D02*
X239702938Y-37380904D01*
X239702938Y-37380904D02*
X239798176Y-37476142D01*
X239798176Y-37476142D02*
X239893414Y-37523761D01*
X239893414Y-37523761D02*
X240083890Y-37571380D01*
X240083890Y-37571380D02*
X240226747Y-37571380D01*
X240226747Y-37571380D02*
X240417223Y-37523761D01*
X240417223Y-37523761D02*
X240512461Y-37476142D01*
X240512461Y-37476142D02*
X240607700Y-37380904D01*
X240607700Y-37380904D02*
X240655319Y-37238047D01*
X240655319Y-37238047D02*
X240655319Y-36999952D01*
X240750557Y-37761857D02*
X240750557Y-38523761D01*
X240655319Y-38809476D02*
X240655319Y-38999952D01*
X240655319Y-38999952D02*
X240607700Y-39095190D01*
X240607700Y-39095190D02*
X240560080Y-39142809D01*
X240560080Y-39142809D02*
X240417223Y-39238047D01*
X240417223Y-39238047D02*
X240226747Y-39285666D01*
X240226747Y-39285666D02*
X239845795Y-39285666D01*
X239845795Y-39285666D02*
X239750557Y-39238047D01*
X239750557Y-39238047D02*
X239702938Y-39190428D01*
X239702938Y-39190428D02*
X239655319Y-39095190D01*
X239655319Y-39095190D02*
X239655319Y-38904714D01*
X239655319Y-38904714D02*
X239702938Y-38809476D01*
X239702938Y-38809476D02*
X239750557Y-38761857D01*
X239750557Y-38761857D02*
X239845795Y-38714238D01*
X239845795Y-38714238D02*
X240083890Y-38714238D01*
X240083890Y-38714238D02*
X240179128Y-38761857D01*
X240179128Y-38761857D02*
X240226747Y-38809476D01*
X240226747Y-38809476D02*
X240274366Y-38904714D01*
X240274366Y-38904714D02*
X240274366Y-39095190D01*
X240274366Y-39095190D02*
X240226747Y-39190428D01*
X240226747Y-39190428D02*
X240179128Y-39238047D01*
X240179128Y-39238047D02*
X240083890Y-39285666D01*
X240335319Y-41667095D02*
X239335319Y-41667095D01*
X240335319Y-42238523D02*
X239763890Y-41809952D01*
X239335319Y-42238523D02*
X239906747Y-41667095D01*
X119211569Y-112723762D02*
X118211569Y-112723762D01*
X118211569Y-112723762D02*
X118211569Y-112961857D01*
X118211569Y-112961857D02*
X118259188Y-113104714D01*
X118259188Y-113104714D02*
X118354426Y-113199952D01*
X118354426Y-113199952D02*
X118449664Y-113247571D01*
X118449664Y-113247571D02*
X118640140Y-113295190D01*
X118640140Y-113295190D02*
X118782997Y-113295190D01*
X118782997Y-113295190D02*
X118973473Y-113247571D01*
X118973473Y-113247571D02*
X119068711Y-113199952D01*
X119068711Y-113199952D02*
X119163950Y-113104714D01*
X119163950Y-113104714D02*
X119211569Y-112961857D01*
X119211569Y-112961857D02*
X119211569Y-112723762D01*
X119306807Y-113485667D02*
X119306807Y-114247571D01*
X118211569Y-114961857D02*
X118211569Y-114485667D01*
X118211569Y-114485667D02*
X118687759Y-114438048D01*
X118687759Y-114438048D02*
X118640140Y-114485667D01*
X118640140Y-114485667D02*
X118592521Y-114580905D01*
X118592521Y-114580905D02*
X118592521Y-114819000D01*
X118592521Y-114819000D02*
X118640140Y-114914238D01*
X118640140Y-114914238D02*
X118687759Y-114961857D01*
X118687759Y-114961857D02*
X118782997Y-115009476D01*
X118782997Y-115009476D02*
X119021092Y-115009476D01*
X119021092Y-115009476D02*
X119116330Y-114961857D01*
X119116330Y-114961857D02*
X119163950Y-114914238D01*
X119163950Y-114914238D02*
X119211569Y-114819000D01*
X119211569Y-114819000D02*
X119211569Y-114580905D01*
X119211569Y-114580905D02*
X119163950Y-114485667D01*
X119163950Y-114485667D02*
X119116330Y-114438048D01*
X119211569Y-115485667D02*
X119211569Y-115676143D01*
X119211569Y-115676143D02*
X119163950Y-115771381D01*
X119163950Y-115771381D02*
X119116330Y-115819000D01*
X119116330Y-115819000D02*
X118973473Y-115914238D01*
X118973473Y-115914238D02*
X118782997Y-115961857D01*
X118782997Y-115961857D02*
X118402045Y-115961857D01*
X118402045Y-115961857D02*
X118306807Y-115914238D01*
X118306807Y-115914238D02*
X118259188Y-115866619D01*
X118259188Y-115866619D02*
X118211569Y-115771381D01*
X118211569Y-115771381D02*
X118211569Y-115580905D01*
X118211569Y-115580905D02*
X118259188Y-115485667D01*
X118259188Y-115485667D02*
X118306807Y-115438048D01*
X118306807Y-115438048D02*
X118402045Y-115390429D01*
X118402045Y-115390429D02*
X118640140Y-115390429D01*
X118640140Y-115390429D02*
X118735378Y-115438048D01*
X118735378Y-115438048D02*
X118782997Y-115485667D01*
X118782997Y-115485667D02*
X118830616Y-115580905D01*
X118830616Y-115580905D02*
X118830616Y-115771381D01*
X118830616Y-115771381D02*
X118782997Y-115866619D01*
X118782997Y-115866619D02*
X118735378Y-115914238D01*
X118735378Y-115914238D02*
X118640140Y-115961857D01*
X118891569Y-117867095D02*
X117891569Y-117867095D01*
X118891569Y-118438523D02*
X118320140Y-118009952D01*
X117891569Y-118438523D02*
X118462997Y-117867095D01*
X278755319Y-36523762D02*
X277755319Y-36523762D01*
X277755319Y-36523762D02*
X277755319Y-36761857D01*
X277755319Y-36761857D02*
X277802938Y-36904714D01*
X277802938Y-36904714D02*
X277898176Y-36999952D01*
X277898176Y-36999952D02*
X277993414Y-37047571D01*
X277993414Y-37047571D02*
X278183890Y-37095190D01*
X278183890Y-37095190D02*
X278326747Y-37095190D01*
X278326747Y-37095190D02*
X278517223Y-37047571D01*
X278517223Y-37047571D02*
X278612461Y-36999952D01*
X278612461Y-36999952D02*
X278707700Y-36904714D01*
X278707700Y-36904714D02*
X278755319Y-36761857D01*
X278755319Y-36761857D02*
X278755319Y-36523762D01*
X278850557Y-37285667D02*
X278850557Y-38047571D01*
X278755319Y-38809476D02*
X278755319Y-38238048D01*
X278755319Y-38523762D02*
X277755319Y-38523762D01*
X277755319Y-38523762D02*
X277898176Y-38428524D01*
X277898176Y-38428524D02*
X277993414Y-38333286D01*
X277993414Y-38333286D02*
X278041033Y-38238048D01*
X278755319Y-39761857D02*
X278755319Y-39190429D01*
X278755319Y-39476143D02*
X277755319Y-39476143D01*
X277755319Y-39476143D02*
X277898176Y-39380905D01*
X277898176Y-39380905D02*
X277993414Y-39285667D01*
X277993414Y-39285667D02*
X278041033Y-39190429D01*
X278435319Y-41667095D02*
X277435319Y-41667095D01*
X278435319Y-42238523D02*
X277863890Y-41809952D01*
X277435319Y-42238523D02*
X278006747Y-41667095D01*
X297805319Y-36523762D02*
X296805319Y-36523762D01*
X296805319Y-36523762D02*
X296805319Y-36761857D01*
X296805319Y-36761857D02*
X296852938Y-36904714D01*
X296852938Y-36904714D02*
X296948176Y-36999952D01*
X296948176Y-36999952D02*
X297043414Y-37047571D01*
X297043414Y-37047571D02*
X297233890Y-37095190D01*
X297233890Y-37095190D02*
X297376747Y-37095190D01*
X297376747Y-37095190D02*
X297567223Y-37047571D01*
X297567223Y-37047571D02*
X297662461Y-36999952D01*
X297662461Y-36999952D02*
X297757700Y-36904714D01*
X297757700Y-36904714D02*
X297805319Y-36761857D01*
X297805319Y-36761857D02*
X297805319Y-36523762D01*
X297900557Y-37285667D02*
X297900557Y-38047571D01*
X297805319Y-38809476D02*
X297805319Y-38238048D01*
X297805319Y-38523762D02*
X296805319Y-38523762D01*
X296805319Y-38523762D02*
X296948176Y-38428524D01*
X296948176Y-38428524D02*
X297043414Y-38333286D01*
X297043414Y-38333286D02*
X297091033Y-38238048D01*
X296900557Y-39190429D02*
X296852938Y-39238048D01*
X296852938Y-39238048D02*
X296805319Y-39333286D01*
X296805319Y-39333286D02*
X296805319Y-39571381D01*
X296805319Y-39571381D02*
X296852938Y-39666619D01*
X296852938Y-39666619D02*
X296900557Y-39714238D01*
X296900557Y-39714238D02*
X296995795Y-39761857D01*
X296995795Y-39761857D02*
X297091033Y-39761857D01*
X297091033Y-39761857D02*
X297233890Y-39714238D01*
X297233890Y-39714238D02*
X297805319Y-39142810D01*
X297805319Y-39142810D02*
X297805319Y-39761857D01*
X297485319Y-41667095D02*
X296485319Y-41667095D01*
X297485319Y-42238523D02*
X296913890Y-41809952D01*
X296485319Y-42238523D02*
X297056747Y-41667095D01*
X19199069Y-112723762D02*
X18199069Y-112723762D01*
X18199069Y-112723762D02*
X18199069Y-112961857D01*
X18199069Y-112961857D02*
X18246688Y-113104714D01*
X18246688Y-113104714D02*
X18341926Y-113199952D01*
X18341926Y-113199952D02*
X18437164Y-113247571D01*
X18437164Y-113247571D02*
X18627640Y-113295190D01*
X18627640Y-113295190D02*
X18770497Y-113295190D01*
X18770497Y-113295190D02*
X18960973Y-113247571D01*
X18960973Y-113247571D02*
X19056211Y-113199952D01*
X19056211Y-113199952D02*
X19151450Y-113104714D01*
X19151450Y-113104714D02*
X19199069Y-112961857D01*
X19199069Y-112961857D02*
X19199069Y-112723762D01*
X19294307Y-113485667D02*
X19294307Y-114247571D01*
X18199069Y-114961857D02*
X18199069Y-114485667D01*
X18199069Y-114485667D02*
X18675259Y-114438048D01*
X18675259Y-114438048D02*
X18627640Y-114485667D01*
X18627640Y-114485667D02*
X18580021Y-114580905D01*
X18580021Y-114580905D02*
X18580021Y-114819000D01*
X18580021Y-114819000D02*
X18627640Y-114914238D01*
X18627640Y-114914238D02*
X18675259Y-114961857D01*
X18675259Y-114961857D02*
X18770497Y-115009476D01*
X18770497Y-115009476D02*
X19008592Y-115009476D01*
X19008592Y-115009476D02*
X19103830Y-114961857D01*
X19103830Y-114961857D02*
X19151450Y-114914238D01*
X19151450Y-114914238D02*
X19199069Y-114819000D01*
X19199069Y-114819000D02*
X19199069Y-114580905D01*
X19199069Y-114580905D02*
X19151450Y-114485667D01*
X19151450Y-114485667D02*
X19103830Y-114438048D01*
X18199069Y-115914238D02*
X18199069Y-115438048D01*
X18199069Y-115438048D02*
X18675259Y-115390429D01*
X18675259Y-115390429D02*
X18627640Y-115438048D01*
X18627640Y-115438048D02*
X18580021Y-115533286D01*
X18580021Y-115533286D02*
X18580021Y-115771381D01*
X18580021Y-115771381D02*
X18627640Y-115866619D01*
X18627640Y-115866619D02*
X18675259Y-115914238D01*
X18675259Y-115914238D02*
X18770497Y-115961857D01*
X18770497Y-115961857D02*
X19008592Y-115961857D01*
X19008592Y-115961857D02*
X19103830Y-115914238D01*
X19103830Y-115914238D02*
X19151450Y-115866619D01*
X19151450Y-115866619D02*
X19199069Y-115771381D01*
X19199069Y-115771381D02*
X19199069Y-115533286D01*
X19199069Y-115533286D02*
X19151450Y-115438048D01*
X19151450Y-115438048D02*
X19103830Y-115390429D01*
X18879069Y-117867095D02*
X17879069Y-117867095D01*
X18879069Y-118438523D02*
X18307640Y-118009952D01*
X17879069Y-118438523D02*
X18450497Y-117867095D01*
X202555319Y-55573762D02*
X201555319Y-55573762D01*
X201555319Y-55573762D02*
X201555319Y-55811857D01*
X201555319Y-55811857D02*
X201602938Y-55954714D01*
X201602938Y-55954714D02*
X201698176Y-56049952D01*
X201698176Y-56049952D02*
X201793414Y-56097571D01*
X201793414Y-56097571D02*
X201983890Y-56145190D01*
X201983890Y-56145190D02*
X202126747Y-56145190D01*
X202126747Y-56145190D02*
X202317223Y-56097571D01*
X202317223Y-56097571D02*
X202412461Y-56049952D01*
X202412461Y-56049952D02*
X202507700Y-55954714D01*
X202507700Y-55954714D02*
X202555319Y-55811857D01*
X202555319Y-55811857D02*
X202555319Y-55573762D01*
X202650557Y-56335667D02*
X202650557Y-57097571D01*
X201650557Y-57288048D02*
X201602938Y-57335667D01*
X201602938Y-57335667D02*
X201555319Y-57430905D01*
X201555319Y-57430905D02*
X201555319Y-57669000D01*
X201555319Y-57669000D02*
X201602938Y-57764238D01*
X201602938Y-57764238D02*
X201650557Y-57811857D01*
X201650557Y-57811857D02*
X201745795Y-57859476D01*
X201745795Y-57859476D02*
X201841033Y-57859476D01*
X201841033Y-57859476D02*
X201983890Y-57811857D01*
X201983890Y-57811857D02*
X202555319Y-57240429D01*
X202555319Y-57240429D02*
X202555319Y-57859476D01*
X201650557Y-58240429D02*
X201602938Y-58288048D01*
X201602938Y-58288048D02*
X201555319Y-58383286D01*
X201555319Y-58383286D02*
X201555319Y-58621381D01*
X201555319Y-58621381D02*
X201602938Y-58716619D01*
X201602938Y-58716619D02*
X201650557Y-58764238D01*
X201650557Y-58764238D02*
X201745795Y-58811857D01*
X201745795Y-58811857D02*
X201841033Y-58811857D01*
X201841033Y-58811857D02*
X201983890Y-58764238D01*
X201983890Y-58764238D02*
X202555319Y-58192810D01*
X202555319Y-58192810D02*
X202555319Y-58811857D01*
X202235319Y-60717095D02*
X201235319Y-60717095D01*
X202235319Y-61288523D02*
X201663890Y-60859952D01*
X201235319Y-61288523D02*
X201806747Y-60717095D01*
X328761569Y-74623762D02*
X327761569Y-74623762D01*
X327761569Y-74623762D02*
X327761569Y-74861857D01*
X327761569Y-74861857D02*
X327809188Y-75004714D01*
X327809188Y-75004714D02*
X327904426Y-75099952D01*
X327904426Y-75099952D02*
X327999664Y-75147571D01*
X327999664Y-75147571D02*
X328190140Y-75195190D01*
X328190140Y-75195190D02*
X328332997Y-75195190D01*
X328332997Y-75195190D02*
X328523473Y-75147571D01*
X328523473Y-75147571D02*
X328618711Y-75099952D01*
X328618711Y-75099952D02*
X328713950Y-75004714D01*
X328713950Y-75004714D02*
X328761569Y-74861857D01*
X328761569Y-74861857D02*
X328761569Y-74623762D01*
X328856807Y-75385667D02*
X328856807Y-76147571D01*
X328094902Y-76814238D02*
X328761569Y-76814238D01*
X327713950Y-76576143D02*
X328428235Y-76338048D01*
X328428235Y-76338048D02*
X328428235Y-76957095D01*
X327856807Y-77290429D02*
X327809188Y-77338048D01*
X327809188Y-77338048D02*
X327761569Y-77433286D01*
X327761569Y-77433286D02*
X327761569Y-77671381D01*
X327761569Y-77671381D02*
X327809188Y-77766619D01*
X327809188Y-77766619D02*
X327856807Y-77814238D01*
X327856807Y-77814238D02*
X327952045Y-77861857D01*
X327952045Y-77861857D02*
X328047283Y-77861857D01*
X328047283Y-77861857D02*
X328190140Y-77814238D01*
X328190140Y-77814238D02*
X328761569Y-77242810D01*
X328761569Y-77242810D02*
X328761569Y-77861857D01*
X328441569Y-79767095D02*
X327441569Y-79767095D01*
X328441569Y-80338523D02*
X327870140Y-79909952D01*
X327441569Y-80338523D02*
X328012997Y-79767095D01*
X69205319Y-93673762D02*
X68205319Y-93673762D01*
X68205319Y-93673762D02*
X68205319Y-93911857D01*
X68205319Y-93911857D02*
X68252938Y-94054714D01*
X68252938Y-94054714D02*
X68348176Y-94149952D01*
X68348176Y-94149952D02*
X68443414Y-94197571D01*
X68443414Y-94197571D02*
X68633890Y-94245190D01*
X68633890Y-94245190D02*
X68776747Y-94245190D01*
X68776747Y-94245190D02*
X68967223Y-94197571D01*
X68967223Y-94197571D02*
X69062461Y-94149952D01*
X69062461Y-94149952D02*
X69157700Y-94054714D01*
X69157700Y-94054714D02*
X69205319Y-93911857D01*
X69205319Y-93911857D02*
X69205319Y-93673762D01*
X69300557Y-94435667D02*
X69300557Y-95197571D01*
X68538652Y-95864238D02*
X69205319Y-95864238D01*
X68157700Y-95626143D02*
X68871985Y-95388048D01*
X68871985Y-95388048D02*
X68871985Y-96007095D01*
X68205319Y-96864238D02*
X68205319Y-96388048D01*
X68205319Y-96388048D02*
X68681509Y-96340429D01*
X68681509Y-96340429D02*
X68633890Y-96388048D01*
X68633890Y-96388048D02*
X68586271Y-96483286D01*
X68586271Y-96483286D02*
X68586271Y-96721381D01*
X68586271Y-96721381D02*
X68633890Y-96816619D01*
X68633890Y-96816619D02*
X68681509Y-96864238D01*
X68681509Y-96864238D02*
X68776747Y-96911857D01*
X68776747Y-96911857D02*
X69014842Y-96911857D01*
X69014842Y-96911857D02*
X69110080Y-96864238D01*
X69110080Y-96864238D02*
X69157700Y-96816619D01*
X69157700Y-96816619D02*
X69205319Y-96721381D01*
X69205319Y-96721381D02*
X69205319Y-96483286D01*
X69205319Y-96483286D02*
X69157700Y-96388048D01*
X69157700Y-96388048D02*
X69110080Y-96340429D01*
X68885319Y-98817095D02*
X67885319Y-98817095D01*
X68885319Y-99388523D02*
X68313890Y-98959952D01*
X67885319Y-99388523D02*
X68456747Y-98817095D01*
D10*
X156535355Y-63189645D02*
X156550000Y-63225000D01*
X156550000Y-67229630D01*
X156720738Y-67269184D01*
X157555855Y-67503173D01*
X158379457Y-67774929D01*
X159189836Y-68083890D01*
X159399593Y-68175000D01*
X169500000Y-68175000D01*
X169535355Y-68189645D01*
X169550000Y-68225000D01*
X169550000Y-78324694D01*
X169800203Y-78938595D01*
X170090636Y-79755797D01*
X170343574Y-80585372D01*
X170558493Y-81425598D01*
X170734945Y-82274736D01*
X170872567Y-83131025D01*
X170971073Y-83992691D01*
X171030258Y-84857947D01*
X171050000Y-85725000D01*
X171030258Y-86592053D01*
X170971073Y-87457309D01*
X170872567Y-88318975D01*
X170734945Y-89175264D01*
X170558493Y-90024402D01*
X170343574Y-90864628D01*
X170090636Y-91694203D01*
X169800203Y-92511405D01*
X169550000Y-93125306D01*
X169550000Y-103225000D01*
X169535355Y-103260355D01*
X169500000Y-103275000D01*
X159399593Y-103275000D01*
X159189836Y-103366110D01*
X158379457Y-103675071D01*
X157555855Y-103946827D01*
X156720738Y-104180816D01*
X155875837Y-104376552D01*
X155022903Y-104533630D01*
X154163703Y-104651724D01*
X153300018Y-104730590D01*
X152433639Y-104770064D01*
X151566361Y-104770064D01*
X150699982Y-104730590D01*
X149836297Y-104651724D01*
X148977097Y-104533630D01*
X148124163Y-104376552D01*
X147279262Y-104180816D01*
X146444145Y-103946827D01*
X145620543Y-103675071D01*
X144810164Y-103366110D01*
X144600407Y-103275000D01*
X134500000Y-103275000D01*
X134464645Y-103260355D01*
X134450000Y-103225000D01*
X134450000Y-93125306D01*
X134199797Y-92511405D01*
X133909364Y-91694203D01*
X133656426Y-90864628D01*
X133441507Y-90024402D01*
X133265055Y-89175264D01*
X133127433Y-88318975D01*
X133028927Y-87457309D01*
X132969742Y-86592053D01*
X132950000Y-85725000D01*
X132969742Y-84857947D01*
X133028927Y-83992691D01*
X133127433Y-83131025D01*
X133265055Y-82274736D01*
X133441507Y-81425598D01*
X133656426Y-80585372D01*
X133909364Y-79755797D01*
X134199797Y-78938595D01*
X134450000Y-78324694D01*
X134450000Y-68225000D01*
X134464645Y-68189645D01*
X134500000Y-68175000D01*
X144600407Y-68175000D01*
X144810164Y-68083890D01*
X145620543Y-67774929D01*
X146444145Y-67503173D01*
X147279262Y-67269184D01*
X147450000Y-67229630D01*
X147450000Y-63225000D01*
X147464645Y-63189645D01*
X147500000Y-63175000D01*
X156500000Y-63175000D01*
X156535355Y-63189645D01*
D12*
X105850500Y-35999000D02*
X105850500Y-40239000D01*
X105850500Y-39519000D02*
X103610500Y-39519000D01*
X105850500Y-39639000D02*
X103610500Y-39639000D01*
X103610500Y-35999000D02*
X105850500Y-35999000D01*
X105850500Y-39399000D02*
X103610500Y-39399000D01*
X104730500Y-40889000D02*
X104730500Y-40239000D01*
X105850500Y-40239000D02*
X103610500Y-40239000D01*
X103610500Y-40239000D02*
X103610500Y-35999000D01*
X104730500Y-35349000D02*
X104730500Y-35999000D01*
X220150500Y-93149000D02*
X220150500Y-97389000D01*
X220150500Y-96669000D02*
X217910500Y-96669000D01*
X220150500Y-96789000D02*
X217910500Y-96789000D01*
X217910500Y-93149000D02*
X220150500Y-93149000D01*
X220150500Y-96549000D02*
X217910500Y-96549000D01*
X219030500Y-98039000D02*
X219030500Y-97389000D01*
X220150500Y-97389000D02*
X217910500Y-97389000D01*
X217910500Y-97389000D02*
X217910500Y-93149000D01*
X219030500Y-92499000D02*
X219030500Y-93149000D01*
X124900500Y-55049000D02*
X124900500Y-59289000D01*
X124900500Y-58569000D02*
X122660500Y-58569000D01*
X124900500Y-58689000D02*
X122660500Y-58689000D01*
X122660500Y-55049000D02*
X124900500Y-55049000D01*
X124900500Y-58449000D02*
X122660500Y-58449000D01*
X123780500Y-59939000D02*
X123780500Y-59289000D01*
X124900500Y-59289000D02*
X122660500Y-59289000D01*
X122660500Y-59289000D02*
X122660500Y-55049000D01*
X123780500Y-54399000D02*
X123780500Y-55049000D01*
X315400500Y-55049000D02*
X315400500Y-59289000D01*
X315400500Y-58569000D02*
X313160500Y-58569000D01*
X315400500Y-58689000D02*
X313160500Y-58689000D01*
X313160500Y-55049000D02*
X315400500Y-55049000D01*
X315400500Y-58449000D02*
X313160500Y-58449000D01*
X314280500Y-59939000D02*
X314280500Y-59289000D01*
X315400500Y-59289000D02*
X313160500Y-59289000D01*
X313160500Y-59289000D02*
X313160500Y-55049000D01*
X314280500Y-54399000D02*
X314280500Y-55049000D01*
X334450500Y-35999000D02*
X334450500Y-40239000D01*
X334450500Y-39519000D02*
X332210500Y-39519000D01*
X334450500Y-39639000D02*
X332210500Y-39639000D01*
X332210500Y-35999000D02*
X334450500Y-35999000D01*
X334450500Y-39399000D02*
X332210500Y-39399000D01*
X333330500Y-40889000D02*
X333330500Y-40239000D01*
X334450500Y-40239000D02*
X332210500Y-40239000D01*
X332210500Y-40239000D02*
X332210500Y-35999000D01*
X333330500Y-35349000D02*
X333330500Y-35999000D01*
X86800500Y-55049000D02*
X86800500Y-59289000D01*
X86800500Y-58569000D02*
X84560500Y-58569000D01*
X86800500Y-58689000D02*
X84560500Y-58689000D01*
X84560500Y-55049000D02*
X86800500Y-55049000D01*
X86800500Y-58449000D02*
X84560500Y-58449000D01*
X85680500Y-59939000D02*
X85680500Y-59289000D01*
X86800500Y-59289000D02*
X84560500Y-59289000D01*
X84560500Y-59289000D02*
X84560500Y-55049000D01*
X85680500Y-54399000D02*
X85680500Y-55049000D01*
X201100500Y-35999000D02*
X201100500Y-40239000D01*
X201100500Y-39519000D02*
X198860500Y-39519000D01*
X201100500Y-39639000D02*
X198860500Y-39639000D01*
X198860500Y-35999000D02*
X201100500Y-35999000D01*
X201100500Y-39399000D02*
X198860500Y-39399000D01*
X199980500Y-40889000D02*
X199980500Y-40239000D01*
X201100500Y-40239000D02*
X198860500Y-40239000D01*
X198860500Y-40239000D02*
X198860500Y-35999000D01*
X199980500Y-35349000D02*
X199980500Y-35999000D01*
X48700500Y-93149000D02*
X48700500Y-97389000D01*
X48700500Y-96669000D02*
X46460500Y-96669000D01*
X48700500Y-96789000D02*
X46460500Y-96789000D01*
X46460500Y-93149000D02*
X48700500Y-93149000D01*
X48700500Y-96549000D02*
X46460500Y-96549000D01*
X47580500Y-98039000D02*
X47580500Y-97389000D01*
X48700500Y-97389000D02*
X46460500Y-97389000D01*
X46460500Y-97389000D02*
X46460500Y-93149000D01*
X47580500Y-92499000D02*
X47580500Y-93149000D01*
X41556750Y-112199000D02*
X41556750Y-116439000D01*
X41556750Y-115719000D02*
X39316750Y-115719000D01*
X41556750Y-115839000D02*
X39316750Y-115839000D01*
X39316750Y-112199000D02*
X41556750Y-112199000D01*
X41556750Y-115599000D02*
X39316750Y-115599000D01*
X40436750Y-117089000D02*
X40436750Y-116439000D01*
X41556750Y-116439000D02*
X39316750Y-116439000D01*
X39316750Y-116439000D02*
X39316750Y-112199000D01*
X40436750Y-111549000D02*
X40436750Y-112199000D01*
X48700500Y-55049000D02*
X48700500Y-59289000D01*
X48700500Y-58569000D02*
X46460500Y-58569000D01*
X48700500Y-58689000D02*
X46460500Y-58689000D01*
X46460500Y-55049000D02*
X48700500Y-55049000D01*
X48700500Y-58449000D02*
X46460500Y-58449000D01*
X47580500Y-59939000D02*
X47580500Y-59289000D01*
X48700500Y-59289000D02*
X46460500Y-59289000D01*
X46460500Y-59289000D02*
X46460500Y-55049000D01*
X47580500Y-54399000D02*
X47580500Y-55049000D01*
X277300500Y-93149000D02*
X277300500Y-97389000D01*
X277300500Y-96669000D02*
X275060500Y-96669000D01*
X277300500Y-96789000D02*
X275060500Y-96789000D01*
X275060500Y-93149000D02*
X277300500Y-93149000D01*
X277300500Y-96549000D02*
X275060500Y-96549000D01*
X276180500Y-98039000D02*
X276180500Y-97389000D01*
X277300500Y-97389000D02*
X275060500Y-97389000D01*
X275060500Y-97389000D02*
X275060500Y-93149000D01*
X276180500Y-92499000D02*
X276180500Y-93149000D01*
X220150500Y-55049000D02*
X220150500Y-59289000D01*
X220150500Y-58569000D02*
X217910500Y-58569000D01*
X220150500Y-58689000D02*
X217910500Y-58689000D01*
X217910500Y-55049000D02*
X220150500Y-55049000D01*
X220150500Y-58449000D02*
X217910500Y-58449000D01*
X219030500Y-59939000D02*
X219030500Y-59289000D01*
X220150500Y-59289000D02*
X217910500Y-59289000D01*
X217910500Y-59289000D02*
X217910500Y-55049000D01*
X219030500Y-54399000D02*
X219030500Y-55049000D01*
X239200500Y-93149000D02*
X239200500Y-97389000D01*
X239200500Y-96669000D02*
X236960500Y-96669000D01*
X239200500Y-96789000D02*
X236960500Y-96789000D01*
X236960500Y-93149000D02*
X239200500Y-93149000D01*
X239200500Y-96549000D02*
X236960500Y-96549000D01*
X238080500Y-98039000D02*
X238080500Y-97389000D01*
X239200500Y-97389000D02*
X236960500Y-97389000D01*
X236960500Y-97389000D02*
X236960500Y-93149000D01*
X238080500Y-92499000D02*
X238080500Y-93149000D01*
X339213000Y-55049000D02*
X339213000Y-59289000D01*
X339213000Y-58569000D02*
X336973000Y-58569000D01*
X339213000Y-58689000D02*
X336973000Y-58689000D01*
X336973000Y-55049000D02*
X339213000Y-55049000D01*
X339213000Y-58449000D02*
X336973000Y-58449000D01*
X338093000Y-59939000D02*
X338093000Y-59289000D01*
X339213000Y-59289000D02*
X336973000Y-59289000D01*
X336973000Y-59289000D02*
X336973000Y-55049000D01*
X338093000Y-54399000D02*
X338093000Y-55049000D01*
X24888000Y-55049000D02*
X24888000Y-59289000D01*
X24888000Y-58569000D02*
X22648000Y-58569000D01*
X24888000Y-58689000D02*
X22648000Y-58689000D01*
X22648000Y-55049000D02*
X24888000Y-55049000D01*
X24888000Y-58449000D02*
X22648000Y-58449000D01*
X23768000Y-59939000D02*
X23768000Y-59289000D01*
X24888000Y-59289000D02*
X22648000Y-59289000D01*
X22648000Y-59289000D02*
X22648000Y-55049000D01*
X23768000Y-54399000D02*
X23768000Y-55049000D01*
X105850500Y-55049000D02*
X105850500Y-59289000D01*
X105850500Y-58569000D02*
X103610500Y-58569000D01*
X105850500Y-58689000D02*
X103610500Y-58689000D01*
X103610500Y-55049000D02*
X105850500Y-55049000D01*
X105850500Y-58449000D02*
X103610500Y-58449000D01*
X104730500Y-59939000D02*
X104730500Y-59289000D01*
X105850500Y-59289000D02*
X103610500Y-59289000D01*
X103610500Y-59289000D02*
X103610500Y-55049000D01*
X104730500Y-54399000D02*
X104730500Y-55049000D01*
X22506750Y-74099000D02*
X22506750Y-78339000D01*
X22506750Y-77619000D02*
X20266750Y-77619000D01*
X22506750Y-77739000D02*
X20266750Y-77739000D01*
X20266750Y-74099000D02*
X22506750Y-74099000D01*
X22506750Y-77499000D02*
X20266750Y-77499000D01*
X21386750Y-78989000D02*
X21386750Y-78339000D01*
X22506750Y-78339000D02*
X20266750Y-78339000D01*
X20266750Y-78339000D02*
X20266750Y-74099000D01*
X21386750Y-73449000D02*
X21386750Y-74099000D01*
X301113000Y-112199000D02*
X301113000Y-116439000D01*
X301113000Y-115719000D02*
X298873000Y-115719000D01*
X301113000Y-115839000D02*
X298873000Y-115839000D01*
X298873000Y-112199000D02*
X301113000Y-112199000D01*
X301113000Y-115599000D02*
X298873000Y-115599000D01*
X299993000Y-117089000D02*
X299993000Y-116439000D01*
X301113000Y-116439000D02*
X298873000Y-116439000D01*
X298873000Y-116439000D02*
X298873000Y-112199000D01*
X299993000Y-111549000D02*
X299993000Y-112199000D01*
X65369250Y-112199000D02*
X65369250Y-116439000D01*
X65369250Y-115719000D02*
X63129250Y-115719000D01*
X65369250Y-115839000D02*
X63129250Y-115839000D01*
X63129250Y-112199000D02*
X65369250Y-112199000D01*
X65369250Y-115599000D02*
X63129250Y-115599000D01*
X64249250Y-117089000D02*
X64249250Y-116439000D01*
X65369250Y-116439000D02*
X63129250Y-116439000D01*
X63129250Y-116439000D02*
X63129250Y-112199000D01*
X64249250Y-111549000D02*
X64249250Y-112199000D01*
X258250500Y-55049000D02*
X258250500Y-59289000D01*
X258250500Y-58569000D02*
X256010500Y-58569000D01*
X258250500Y-58689000D02*
X256010500Y-58689000D01*
X256010500Y-55049000D02*
X258250500Y-55049000D01*
X258250500Y-58449000D02*
X256010500Y-58449000D01*
X257130500Y-59939000D02*
X257130500Y-59289000D01*
X258250500Y-59289000D02*
X256010500Y-59289000D01*
X256010500Y-59289000D02*
X256010500Y-55049000D01*
X257130500Y-54399000D02*
X257130500Y-55049000D01*
X201100500Y-93149000D02*
X201100500Y-97389000D01*
X201100500Y-96669000D02*
X198860500Y-96669000D01*
X201100500Y-96789000D02*
X198860500Y-96789000D01*
X198860500Y-93149000D02*
X201100500Y-93149000D01*
X201100500Y-96549000D02*
X198860500Y-96549000D01*
X199980500Y-98039000D02*
X199980500Y-97389000D01*
X201100500Y-97389000D02*
X198860500Y-97389000D01*
X198860500Y-97389000D02*
X198860500Y-93149000D01*
X199980500Y-92499000D02*
X199980500Y-93149000D01*
X48700500Y-35999000D02*
X48700500Y-40239000D01*
X48700500Y-39519000D02*
X46460500Y-39519000D01*
X48700500Y-39639000D02*
X46460500Y-39639000D01*
X46460500Y-35999000D02*
X48700500Y-35999000D01*
X48700500Y-39399000D02*
X46460500Y-39399000D01*
X47580500Y-40889000D02*
X47580500Y-40239000D01*
X48700500Y-40239000D02*
X46460500Y-40239000D01*
X46460500Y-40239000D02*
X46460500Y-35999000D01*
X47580500Y-35349000D02*
X47580500Y-35999000D01*
X86800500Y-35999000D02*
X86800500Y-40239000D01*
X86800500Y-39519000D02*
X84560500Y-39519000D01*
X86800500Y-39639000D02*
X84560500Y-39639000D01*
X84560500Y-35999000D02*
X86800500Y-35999000D01*
X86800500Y-39399000D02*
X84560500Y-39399000D01*
X85680500Y-40889000D02*
X85680500Y-40239000D01*
X86800500Y-40239000D02*
X84560500Y-40239000D01*
X84560500Y-40239000D02*
X84560500Y-35999000D01*
X85680500Y-35349000D02*
X85680500Y-35999000D01*
X48700500Y-74099000D02*
X48700500Y-78339000D01*
X48700500Y-77619000D02*
X46460500Y-77619000D01*
X48700500Y-77739000D02*
X46460500Y-77739000D01*
X46460500Y-74099000D02*
X48700500Y-74099000D01*
X48700500Y-77499000D02*
X46460500Y-77499000D01*
X47580500Y-78989000D02*
X47580500Y-78339000D01*
X48700500Y-78339000D02*
X46460500Y-78339000D01*
X46460500Y-78339000D02*
X46460500Y-74099000D01*
X47580500Y-73449000D02*
X47580500Y-74099000D01*
X86800500Y-93149000D02*
X86800500Y-97389000D01*
X86800500Y-96669000D02*
X84560500Y-96669000D01*
X86800500Y-96789000D02*
X84560500Y-96789000D01*
X84560500Y-93149000D02*
X86800500Y-93149000D01*
X86800500Y-96549000D02*
X84560500Y-96549000D01*
X85680500Y-98039000D02*
X85680500Y-97389000D01*
X86800500Y-97389000D02*
X84560500Y-97389000D01*
X84560500Y-97389000D02*
X84560500Y-93149000D01*
X85680500Y-92499000D02*
X85680500Y-93149000D01*
X296350500Y-74099000D02*
X296350500Y-78339000D01*
X296350500Y-77619000D02*
X294110500Y-77619000D01*
X296350500Y-77739000D02*
X294110500Y-77739000D01*
X294110500Y-74099000D02*
X296350500Y-74099000D01*
X296350500Y-77499000D02*
X294110500Y-77499000D01*
X295230500Y-78989000D02*
X295230500Y-78339000D01*
X296350500Y-78339000D02*
X294110500Y-78339000D01*
X294110500Y-78339000D02*
X294110500Y-74099000D01*
X295230500Y-73449000D02*
X295230500Y-74099000D01*
X277300500Y-55049000D02*
X277300500Y-59289000D01*
X277300500Y-58569000D02*
X275060500Y-58569000D01*
X277300500Y-58689000D02*
X275060500Y-58689000D01*
X275060500Y-55049000D02*
X277300500Y-55049000D01*
X277300500Y-58449000D02*
X275060500Y-58449000D01*
X276180500Y-59939000D02*
X276180500Y-59289000D01*
X277300500Y-59289000D02*
X275060500Y-59289000D01*
X275060500Y-59289000D02*
X275060500Y-55049000D01*
X276180500Y-54399000D02*
X276180500Y-55049000D01*
X67750500Y-35999000D02*
X67750500Y-40239000D01*
X67750500Y-39519000D02*
X65510500Y-39519000D01*
X67750500Y-39639000D02*
X65510500Y-39639000D01*
X65510500Y-35999000D02*
X67750500Y-35999000D01*
X67750500Y-39399000D02*
X65510500Y-39399000D01*
X66630500Y-40889000D02*
X66630500Y-40239000D01*
X67750500Y-40239000D02*
X65510500Y-40239000D01*
X65510500Y-40239000D02*
X65510500Y-35999000D01*
X66630500Y-35349000D02*
X66630500Y-35999000D01*
X220150500Y-74099000D02*
X220150500Y-78339000D01*
X220150500Y-77619000D02*
X217910500Y-77619000D01*
X220150500Y-77739000D02*
X217910500Y-77739000D01*
X217910500Y-74099000D02*
X220150500Y-74099000D01*
X220150500Y-77499000D02*
X217910500Y-77499000D01*
X219030500Y-78989000D02*
X219030500Y-78339000D01*
X220150500Y-78339000D02*
X217910500Y-78339000D01*
X217910500Y-78339000D02*
X217910500Y-74099000D01*
X219030500Y-73449000D02*
X219030500Y-74099000D01*
X277300500Y-74099000D02*
X277300500Y-78339000D01*
X277300500Y-77619000D02*
X275060500Y-77619000D01*
X277300500Y-77739000D02*
X275060500Y-77739000D01*
X275060500Y-74099000D02*
X277300500Y-74099000D01*
X277300500Y-77499000D02*
X275060500Y-77499000D01*
X276180500Y-78989000D02*
X276180500Y-78339000D01*
X277300500Y-78339000D02*
X275060500Y-78339000D01*
X275060500Y-78339000D02*
X275060500Y-74099000D01*
X276180500Y-73449000D02*
X276180500Y-74099000D01*
X313019250Y-93149000D02*
X313019250Y-97389000D01*
X313019250Y-96669000D02*
X310779250Y-96669000D01*
X313019250Y-96789000D02*
X310779250Y-96789000D01*
X310779250Y-93149000D02*
X313019250Y-93149000D01*
X313019250Y-96549000D02*
X310779250Y-96549000D01*
X311899250Y-98039000D02*
X311899250Y-97389000D01*
X313019250Y-97389000D02*
X310779250Y-97389000D01*
X310779250Y-97389000D02*
X310779250Y-93149000D01*
X311899250Y-92499000D02*
X311899250Y-93149000D01*
X220150500Y-35999000D02*
X220150500Y-40239000D01*
X220150500Y-39519000D02*
X217910500Y-39519000D01*
X220150500Y-39639000D02*
X217910500Y-39639000D01*
X217910500Y-35999000D02*
X220150500Y-35999000D01*
X220150500Y-39399000D02*
X217910500Y-39399000D01*
X219030500Y-40889000D02*
X219030500Y-40239000D01*
X220150500Y-40239000D02*
X217910500Y-40239000D01*
X217910500Y-40239000D02*
X217910500Y-35999000D01*
X219030500Y-35349000D02*
X219030500Y-35999000D01*
X29650500Y-35999000D02*
X29650500Y-40239000D01*
X29650500Y-39519000D02*
X27410500Y-39519000D01*
X29650500Y-39639000D02*
X27410500Y-39639000D01*
X27410500Y-35999000D02*
X29650500Y-35999000D01*
X29650500Y-39399000D02*
X27410500Y-39399000D01*
X28530500Y-40889000D02*
X28530500Y-40239000D01*
X29650500Y-40239000D02*
X27410500Y-40239000D01*
X27410500Y-40239000D02*
X27410500Y-35999000D01*
X28530500Y-35349000D02*
X28530500Y-35999000D01*
X89181750Y-112199000D02*
X89181750Y-116439000D01*
X89181750Y-115719000D02*
X86941750Y-115719000D01*
X89181750Y-115839000D02*
X86941750Y-115839000D01*
X86941750Y-112199000D02*
X89181750Y-112199000D01*
X89181750Y-115599000D02*
X86941750Y-115599000D01*
X88061750Y-117089000D02*
X88061750Y-116439000D01*
X89181750Y-116439000D02*
X86941750Y-116439000D01*
X86941750Y-116439000D02*
X86941750Y-112199000D01*
X88061750Y-111549000D02*
X88061750Y-112199000D01*
X339370000Y-48870000D02*
X335130000Y-48870000D01*
X335850000Y-48870000D02*
X335850000Y-46630000D01*
X335730000Y-48870000D02*
X335730000Y-46630000D01*
X339370000Y-46630000D02*
X339370000Y-48870000D01*
X335970000Y-48870000D02*
X335970000Y-46630000D01*
X334480000Y-47750000D02*
X335130000Y-47750000D01*
X335130000Y-48870000D02*
X335130000Y-46630000D01*
X335130000Y-46630000D02*
X339370000Y-46630000D01*
X340020000Y-47750000D02*
X339370000Y-47750000D01*
X258250500Y-93149000D02*
X258250500Y-97389000D01*
X258250500Y-96669000D02*
X256010500Y-96669000D01*
X258250500Y-96789000D02*
X256010500Y-96789000D01*
X256010500Y-93149000D02*
X258250500Y-93149000D01*
X258250500Y-96549000D02*
X256010500Y-96549000D01*
X257130500Y-98039000D02*
X257130500Y-97389000D01*
X258250500Y-97389000D02*
X256010500Y-97389000D01*
X256010500Y-97389000D02*
X256010500Y-93149000D01*
X257130500Y-92499000D02*
X257130500Y-93149000D01*
X325770000Y-104750000D02*
X325120000Y-104750000D01*
X320880000Y-103630000D02*
X325120000Y-103630000D01*
X320880000Y-105870000D02*
X320880000Y-103630000D01*
X320230000Y-104750000D02*
X320880000Y-104750000D01*
X321720000Y-105870000D02*
X321720000Y-103630000D01*
X325120000Y-103630000D02*
X325120000Y-105870000D01*
X321480000Y-105870000D02*
X321480000Y-103630000D01*
X321600000Y-105870000D02*
X321600000Y-103630000D01*
X325120000Y-105870000D02*
X320880000Y-105870000D01*
X239200500Y-55049000D02*
X239200500Y-59289000D01*
X239200500Y-58569000D02*
X236960500Y-58569000D01*
X239200500Y-58689000D02*
X236960500Y-58689000D01*
X236960500Y-55049000D02*
X239200500Y-55049000D01*
X239200500Y-58449000D02*
X236960500Y-58449000D01*
X238080500Y-59939000D02*
X238080500Y-59289000D01*
X239200500Y-59289000D02*
X236960500Y-59289000D01*
X236960500Y-59289000D02*
X236960500Y-55049000D01*
X238080500Y-54399000D02*
X238080500Y-55049000D01*
X320163000Y-112199000D02*
X320163000Y-116439000D01*
X320163000Y-115719000D02*
X317923000Y-115719000D01*
X320163000Y-115839000D02*
X317923000Y-115839000D01*
X317923000Y-112199000D02*
X320163000Y-112199000D01*
X320163000Y-115599000D02*
X317923000Y-115599000D01*
X319043000Y-117089000D02*
X319043000Y-116439000D01*
X320163000Y-116439000D02*
X317923000Y-116439000D01*
X317923000Y-116439000D02*
X317923000Y-112199000D01*
X319043000Y-111549000D02*
X319043000Y-112199000D01*
X258250500Y-35999000D02*
X258250500Y-40239000D01*
X258250500Y-39519000D02*
X256010500Y-39519000D01*
X258250500Y-39639000D02*
X256010500Y-39639000D01*
X256010500Y-35999000D02*
X258250500Y-35999000D01*
X258250500Y-39399000D02*
X256010500Y-39399000D01*
X257130500Y-40889000D02*
X257130500Y-40239000D01*
X258250500Y-40239000D02*
X256010500Y-40239000D01*
X256010500Y-40239000D02*
X256010500Y-35999000D01*
X257130500Y-35349000D02*
X257130500Y-35999000D01*
X105850500Y-93149000D02*
X105850500Y-97389000D01*
X105850500Y-96669000D02*
X103610500Y-96669000D01*
X105850500Y-96789000D02*
X103610500Y-96789000D01*
X103610500Y-93149000D02*
X105850500Y-93149000D01*
X105850500Y-96549000D02*
X103610500Y-96549000D01*
X104730500Y-98039000D02*
X104730500Y-97389000D01*
X105850500Y-97389000D02*
X103610500Y-97389000D01*
X103610500Y-97389000D02*
X103610500Y-93149000D01*
X104730500Y-92499000D02*
X104730500Y-93149000D01*
X296350500Y-55049000D02*
X296350500Y-59289000D01*
X296350500Y-58569000D02*
X294110500Y-58569000D01*
X296350500Y-58689000D02*
X294110500Y-58689000D01*
X294110500Y-55049000D02*
X296350500Y-55049000D01*
X296350500Y-58449000D02*
X294110500Y-58449000D01*
X295230500Y-59939000D02*
X295230500Y-59289000D01*
X296350500Y-59289000D02*
X294110500Y-59289000D01*
X294110500Y-59289000D02*
X294110500Y-55049000D01*
X295230500Y-54399000D02*
X295230500Y-55049000D01*
X124900500Y-74099000D02*
X124900500Y-78339000D01*
X124900500Y-77619000D02*
X122660500Y-77619000D01*
X124900500Y-77739000D02*
X122660500Y-77739000D01*
X122660500Y-74099000D02*
X124900500Y-74099000D01*
X124900500Y-77499000D02*
X122660500Y-77499000D01*
X123780500Y-78989000D02*
X123780500Y-78339000D01*
X124900500Y-78339000D02*
X122660500Y-78339000D01*
X122660500Y-78339000D02*
X122660500Y-74099000D01*
X123780500Y-73449000D02*
X123780500Y-74099000D01*
X67750500Y-74099000D02*
X67750500Y-78339000D01*
X67750500Y-77619000D02*
X65510500Y-77619000D01*
X67750500Y-77739000D02*
X65510500Y-77739000D01*
X65510500Y-74099000D02*
X67750500Y-74099000D01*
X67750500Y-77499000D02*
X65510500Y-77499000D01*
X66630500Y-78989000D02*
X66630500Y-78339000D01*
X67750500Y-78339000D02*
X65510500Y-78339000D01*
X65510500Y-78339000D02*
X65510500Y-74099000D01*
X66630500Y-73449000D02*
X66630500Y-74099000D01*
X208244250Y-112199000D02*
X208244250Y-116439000D01*
X208244250Y-115719000D02*
X206004250Y-115719000D01*
X208244250Y-115839000D02*
X206004250Y-115839000D01*
X206004250Y-112199000D02*
X208244250Y-112199000D01*
X208244250Y-115599000D02*
X206004250Y-115599000D01*
X207124250Y-117089000D02*
X207124250Y-116439000D01*
X208244250Y-116439000D02*
X206004250Y-116439000D01*
X206004250Y-116439000D02*
X206004250Y-112199000D01*
X207124250Y-111549000D02*
X207124250Y-112199000D01*
X258250500Y-74099000D02*
X258250500Y-78339000D01*
X258250500Y-77619000D02*
X256010500Y-77619000D01*
X258250500Y-77739000D02*
X256010500Y-77739000D01*
X256010500Y-74099000D02*
X258250500Y-74099000D01*
X258250500Y-77499000D02*
X256010500Y-77499000D01*
X257130500Y-78989000D02*
X257130500Y-78339000D01*
X258250500Y-78339000D02*
X256010500Y-78339000D01*
X256010500Y-78339000D02*
X256010500Y-74099000D01*
X257130500Y-73449000D02*
X257130500Y-74099000D01*
X282063000Y-112199000D02*
X282063000Y-116439000D01*
X282063000Y-115719000D02*
X279823000Y-115719000D01*
X282063000Y-115839000D02*
X279823000Y-115839000D01*
X279823000Y-112199000D02*
X282063000Y-112199000D01*
X282063000Y-115599000D02*
X279823000Y-115599000D01*
X280943000Y-117089000D02*
X280943000Y-116439000D01*
X282063000Y-116439000D02*
X279823000Y-116439000D01*
X279823000Y-116439000D02*
X279823000Y-112199000D01*
X280943000Y-111549000D02*
X280943000Y-112199000D01*
X236819250Y-112199000D02*
X236819250Y-116439000D01*
X236819250Y-115719000D02*
X234579250Y-115719000D01*
X236819250Y-115839000D02*
X234579250Y-115839000D01*
X234579250Y-112199000D02*
X236819250Y-112199000D01*
X236819250Y-115599000D02*
X234579250Y-115599000D01*
X235699250Y-117089000D02*
X235699250Y-116439000D01*
X236819250Y-116439000D02*
X234579250Y-116439000D01*
X234579250Y-116439000D02*
X234579250Y-112199000D01*
X235699250Y-111549000D02*
X235699250Y-112199000D01*
X239200500Y-74099000D02*
X239200500Y-78339000D01*
X239200500Y-77619000D02*
X236960500Y-77619000D01*
X239200500Y-77739000D02*
X236960500Y-77739000D01*
X236960500Y-74099000D02*
X239200500Y-74099000D01*
X239200500Y-77499000D02*
X236960500Y-77499000D01*
X238080500Y-78989000D02*
X238080500Y-78339000D01*
X239200500Y-78339000D02*
X236960500Y-78339000D01*
X236960500Y-78339000D02*
X236960500Y-74099000D01*
X238080500Y-73449000D02*
X238080500Y-74099000D01*
X201100500Y-74099000D02*
X201100500Y-78339000D01*
X201100500Y-77619000D02*
X198860500Y-77619000D01*
X201100500Y-77739000D02*
X198860500Y-77739000D01*
X198860500Y-74099000D02*
X201100500Y-74099000D01*
X201100500Y-77499000D02*
X198860500Y-77499000D01*
X199980500Y-78989000D02*
X199980500Y-78339000D01*
X201100500Y-78339000D02*
X198860500Y-78339000D01*
X198860500Y-78339000D02*
X198860500Y-74099000D01*
X199980500Y-73449000D02*
X199980500Y-74099000D01*
X86800500Y-74099000D02*
X86800500Y-78339000D01*
X86800500Y-77619000D02*
X84560500Y-77619000D01*
X86800500Y-77739000D02*
X84560500Y-77739000D01*
X84560500Y-74099000D02*
X86800500Y-74099000D01*
X86800500Y-77499000D02*
X84560500Y-77499000D01*
X85680500Y-78989000D02*
X85680500Y-78339000D01*
X86800500Y-78339000D02*
X84560500Y-78339000D01*
X84560500Y-78339000D02*
X84560500Y-74099000D01*
X85680500Y-73449000D02*
X85680500Y-74099000D01*
X67750500Y-55049000D02*
X67750500Y-59289000D01*
X67750500Y-58569000D02*
X65510500Y-58569000D01*
X67750500Y-58689000D02*
X65510500Y-58689000D01*
X65510500Y-55049000D02*
X67750500Y-55049000D01*
X67750500Y-58449000D02*
X65510500Y-58449000D01*
X66630500Y-59939000D02*
X66630500Y-59289000D01*
X67750500Y-59289000D02*
X65510500Y-59289000D01*
X65510500Y-59289000D02*
X65510500Y-55049000D01*
X66630500Y-54399000D02*
X66630500Y-55049000D01*
X105850500Y-74099000D02*
X105850500Y-78339000D01*
X105850500Y-77619000D02*
X103610500Y-77619000D01*
X105850500Y-77739000D02*
X103610500Y-77739000D01*
X103610500Y-74099000D02*
X105850500Y-74099000D01*
X105850500Y-77499000D02*
X103610500Y-77499000D01*
X104730500Y-78989000D02*
X104730500Y-78339000D01*
X105850500Y-78339000D02*
X103610500Y-78339000D01*
X103610500Y-78339000D02*
X103610500Y-74099000D01*
X104730500Y-73449000D02*
X104730500Y-74099000D01*
X315400500Y-35999000D02*
X315400500Y-40239000D01*
X315400500Y-39519000D02*
X313160500Y-39519000D01*
X315400500Y-39639000D02*
X313160500Y-39639000D01*
X313160500Y-35999000D02*
X315400500Y-35999000D01*
X315400500Y-39399000D02*
X313160500Y-39399000D01*
X314280500Y-40889000D02*
X314280500Y-40239000D01*
X315400500Y-40239000D02*
X313160500Y-40239000D01*
X313160500Y-40239000D02*
X313160500Y-35999000D01*
X314280500Y-35349000D02*
X314280500Y-35999000D01*
X17744250Y-93149000D02*
X17744250Y-97389000D01*
X17744250Y-96669000D02*
X15504250Y-96669000D01*
X17744250Y-96789000D02*
X15504250Y-96789000D01*
X15504250Y-93149000D02*
X17744250Y-93149000D01*
X17744250Y-96549000D02*
X15504250Y-96549000D01*
X16624250Y-98039000D02*
X16624250Y-97389000D01*
X17744250Y-97389000D02*
X15504250Y-97389000D01*
X15504250Y-97389000D02*
X15504250Y-93149000D01*
X16624250Y-92499000D02*
X16624250Y-93149000D01*
X124900500Y-35999000D02*
X124900500Y-40239000D01*
X124900500Y-39519000D02*
X122660500Y-39519000D01*
X124900500Y-39639000D02*
X122660500Y-39639000D01*
X122660500Y-35999000D02*
X124900500Y-35999000D01*
X124900500Y-39399000D02*
X122660500Y-39399000D01*
X123780500Y-40889000D02*
X123780500Y-40239000D01*
X124900500Y-40239000D02*
X122660500Y-40239000D01*
X122660500Y-40239000D02*
X122660500Y-35999000D01*
X123780500Y-35349000D02*
X123780500Y-35999000D01*
X124900500Y-93149000D02*
X124900500Y-97389000D01*
X124900500Y-96669000D02*
X122660500Y-96669000D01*
X124900500Y-96789000D02*
X122660500Y-96789000D01*
X122660500Y-93149000D02*
X124900500Y-93149000D01*
X124900500Y-96549000D02*
X122660500Y-96549000D01*
X123780500Y-98039000D02*
X123780500Y-97389000D01*
X124900500Y-97389000D02*
X122660500Y-97389000D01*
X122660500Y-97389000D02*
X122660500Y-93149000D01*
X123780500Y-92499000D02*
X123780500Y-93149000D01*
X260631750Y-112199000D02*
X260631750Y-116439000D01*
X260631750Y-115719000D02*
X258391750Y-115719000D01*
X260631750Y-115839000D02*
X258391750Y-115839000D01*
X258391750Y-112199000D02*
X260631750Y-112199000D01*
X260631750Y-115599000D02*
X258391750Y-115599000D01*
X259511750Y-117089000D02*
X259511750Y-116439000D01*
X260631750Y-116439000D02*
X258391750Y-116439000D01*
X258391750Y-116439000D02*
X258391750Y-112199000D01*
X259511750Y-111549000D02*
X259511750Y-112199000D01*
X239200500Y-35999000D02*
X239200500Y-40239000D01*
X239200500Y-39519000D02*
X236960500Y-39519000D01*
X239200500Y-39639000D02*
X236960500Y-39639000D01*
X236960500Y-35999000D02*
X239200500Y-35999000D01*
X239200500Y-39399000D02*
X236960500Y-39399000D01*
X238080500Y-40889000D02*
X238080500Y-40239000D01*
X239200500Y-40239000D02*
X236960500Y-40239000D01*
X236960500Y-40239000D02*
X236960500Y-35999000D01*
X238080500Y-35349000D02*
X238080500Y-35999000D01*
X117756750Y-112199000D02*
X117756750Y-116439000D01*
X117756750Y-115719000D02*
X115516750Y-115719000D01*
X117756750Y-115839000D02*
X115516750Y-115839000D01*
X115516750Y-112199000D02*
X117756750Y-112199000D01*
X117756750Y-115599000D02*
X115516750Y-115599000D01*
X116636750Y-117089000D02*
X116636750Y-116439000D01*
X117756750Y-116439000D02*
X115516750Y-116439000D01*
X115516750Y-116439000D02*
X115516750Y-112199000D01*
X116636750Y-111549000D02*
X116636750Y-112199000D01*
X277300500Y-35999000D02*
X277300500Y-40239000D01*
X277300500Y-39519000D02*
X275060500Y-39519000D01*
X277300500Y-39639000D02*
X275060500Y-39639000D01*
X275060500Y-35999000D02*
X277300500Y-35999000D01*
X277300500Y-39399000D02*
X275060500Y-39399000D01*
X276180500Y-40889000D02*
X276180500Y-40239000D01*
X277300500Y-40239000D02*
X275060500Y-40239000D01*
X275060500Y-40239000D02*
X275060500Y-35999000D01*
X276180500Y-35349000D02*
X276180500Y-35999000D01*
X296350500Y-35999000D02*
X296350500Y-40239000D01*
X296350500Y-39519000D02*
X294110500Y-39519000D01*
X296350500Y-39639000D02*
X294110500Y-39639000D01*
X294110500Y-35999000D02*
X296350500Y-35999000D01*
X296350500Y-39399000D02*
X294110500Y-39399000D01*
X295230500Y-40889000D02*
X295230500Y-40239000D01*
X296350500Y-40239000D02*
X294110500Y-40239000D01*
X294110500Y-40239000D02*
X294110500Y-35999000D01*
X295230500Y-35349000D02*
X295230500Y-35999000D01*
X17744250Y-112199000D02*
X17744250Y-116439000D01*
X17744250Y-115719000D02*
X15504250Y-115719000D01*
X17744250Y-115839000D02*
X15504250Y-115839000D01*
X15504250Y-112199000D02*
X17744250Y-112199000D01*
X17744250Y-115599000D02*
X15504250Y-115599000D01*
X16624250Y-117089000D02*
X16624250Y-116439000D01*
X17744250Y-116439000D02*
X15504250Y-116439000D01*
X15504250Y-116439000D02*
X15504250Y-112199000D01*
X16624250Y-111549000D02*
X16624250Y-112199000D01*
X201100500Y-55049000D02*
X201100500Y-59289000D01*
X201100500Y-58569000D02*
X198860500Y-58569000D01*
X201100500Y-58689000D02*
X198860500Y-58689000D01*
X198860500Y-55049000D02*
X201100500Y-55049000D01*
X201100500Y-58449000D02*
X198860500Y-58449000D01*
X199980500Y-59939000D02*
X199980500Y-59289000D01*
X201100500Y-59289000D02*
X198860500Y-59289000D01*
X198860500Y-59289000D02*
X198860500Y-55049000D01*
X199980500Y-54399000D02*
X199980500Y-55049000D01*
X327306750Y-74099000D02*
X327306750Y-78339000D01*
X327306750Y-77619000D02*
X325066750Y-77619000D01*
X327306750Y-77739000D02*
X325066750Y-77739000D01*
X325066750Y-74099000D02*
X327306750Y-74099000D01*
X327306750Y-77499000D02*
X325066750Y-77499000D01*
X326186750Y-78989000D02*
X326186750Y-78339000D01*
X327306750Y-78339000D02*
X325066750Y-78339000D01*
X325066750Y-78339000D02*
X325066750Y-74099000D01*
X326186750Y-73449000D02*
X326186750Y-74099000D01*
X67750500Y-93149000D02*
X67750500Y-97389000D01*
X67750500Y-96669000D02*
X65510500Y-96669000D01*
X67750500Y-96789000D02*
X65510500Y-96789000D01*
X65510500Y-93149000D02*
X67750500Y-93149000D01*
X67750500Y-96549000D02*
X65510500Y-96549000D01*
X66630500Y-98039000D02*
X66630500Y-97389000D01*
X67750500Y-97389000D02*
X65510500Y-97389000D01*
X65510500Y-97389000D02*
X65510500Y-93149000D01*
X66630500Y-92499000D02*
X66630500Y-93149000D01*
%LPC*%
D13*
X266700000Y-95250000D03*
D14*
X261620000Y-95250000D03*
X271780000Y-95250000D03*
D15*
X269240000Y-90170000D03*
X262890000Y-92710000D03*
D13*
X328612500Y-57150000D03*
D14*
X333692500Y-57150000D03*
X323532500Y-57150000D03*
D15*
X331152500Y-52070000D03*
X324802500Y-54610000D03*
D13*
X190500000Y-57150000D03*
D14*
X185420000Y-57150000D03*
X195580000Y-57150000D03*
D15*
X193040000Y-52070000D03*
X186690000Y-54610000D03*
D14*
X73501250Y-114300000D03*
D13*
X78581250Y-114300000D03*
D14*
X83661250Y-114300000D03*
D15*
X81121250Y-109220000D03*
X74771250Y-111760000D03*
D13*
X114300000Y-76200000D03*
D14*
X109220000Y-76200000D03*
X119380000Y-76200000D03*
D15*
X116840000Y-71120000D03*
X110490000Y-73660000D03*
D13*
X247650000Y-76200000D03*
D14*
X242570000Y-76200000D03*
X252730000Y-76200000D03*
D15*
X250190000Y-71120000D03*
X243840000Y-73660000D03*
D13*
X190500000Y-95250000D03*
D14*
X185420000Y-95250000D03*
X195580000Y-95250000D03*
D15*
X193040000Y-90170000D03*
X186690000Y-92710000D03*
D13*
X316706250Y-76200000D03*
X328606250Y-84440000D03*
D16*
X304806250Y-69200000D03*
D14*
X321786250Y-76200000D03*
X311626250Y-76200000D03*
D16*
X328606250Y-69200000D03*
D13*
X304806250Y-84440000D03*
D15*
X319246250Y-71120000D03*
X312896250Y-73660000D03*
D13*
X57150000Y-38100000D03*
D14*
X52070000Y-38100000D03*
X62230000Y-38100000D03*
D15*
X59690000Y-33020000D03*
X53340000Y-35560000D03*
D13*
X328612500Y-114300000D03*
D14*
X323532500Y-114300000D03*
X333692500Y-114300000D03*
D15*
X331152500Y-109220000D03*
X324802500Y-111760000D03*
D17*
X133350000Y-38100000D03*
D13*
X247650000Y-38100000D03*
D14*
X242570000Y-38100000D03*
X252730000Y-38100000D03*
D15*
X250190000Y-33020000D03*
X243840000Y-35560000D03*
D14*
X221138750Y-114300000D03*
D13*
X226218750Y-114300000D03*
D14*
X231298750Y-114300000D03*
D15*
X228758750Y-109220000D03*
X222408750Y-111760000D03*
D18*
X157162500Y-121410000D03*
D19*
X157162500Y-113790000D03*
D13*
X266700000Y-57150000D03*
D14*
X261620000Y-57150000D03*
X271780000Y-57150000D03*
D15*
X269240000Y-52070000D03*
X262890000Y-54610000D03*
D20*
X152400000Y-57805000D03*
D18*
X144780000Y-29865000D03*
D20*
X144780000Y-32405000D03*
X144780000Y-34945000D03*
X144780000Y-37485000D03*
X144780000Y-40025000D03*
X144780000Y-42565000D03*
X144780000Y-45105000D03*
X144780000Y-47645000D03*
X144780000Y-50185000D03*
X144780000Y-52725000D03*
X144780000Y-55265000D03*
X144780000Y-57805000D03*
X147320000Y-57805000D03*
X149860000Y-57805000D03*
X154940000Y-57805000D03*
X157480000Y-57805000D03*
X160020000Y-57805000D03*
X160020000Y-55265000D03*
X160020000Y-52725000D03*
X160020000Y-50185000D03*
X160020000Y-47645000D03*
X160020000Y-45105000D03*
X160020000Y-42565000D03*
X160020000Y-40025000D03*
X160020000Y-37485000D03*
X160020000Y-34945000D03*
X160020000Y-32405000D03*
X160020000Y-29865000D03*
X147320000Y-40025000D03*
X157480000Y-40025000D03*
D13*
X304800000Y-38100000D03*
D14*
X299720000Y-38100000D03*
X309880000Y-38100000D03*
D15*
X307340000Y-33020000D03*
X300990000Y-35560000D03*
D17*
X66675000Y-104775000D03*
D14*
X49688750Y-114300000D03*
D13*
X54768750Y-114300000D03*
D14*
X59848750Y-114300000D03*
D15*
X57308750Y-109220000D03*
X50958750Y-111760000D03*
D13*
X114300000Y-95250000D03*
D14*
X109220000Y-95250000D03*
X119380000Y-95250000D03*
D15*
X116840000Y-90170000D03*
X110490000Y-92710000D03*
D13*
X57150000Y-95250000D03*
D14*
X52070000Y-95250000D03*
X62230000Y-95250000D03*
D15*
X59690000Y-90170000D03*
X53340000Y-92710000D03*
D17*
X257175000Y-104775000D03*
D13*
X209550000Y-57150000D03*
D14*
X204470000Y-57150000D03*
X214630000Y-57150000D03*
D15*
X212090000Y-52070000D03*
X205740000Y-54610000D03*
D17*
X342900000Y-114300000D03*
D13*
X290518750Y-103490000D03*
X314318750Y-103490000D03*
X302418750Y-95250000D03*
D16*
X290518750Y-88250000D03*
D14*
X297338750Y-95250000D03*
D16*
X314318750Y-88250000D03*
D14*
X307498750Y-95250000D03*
D15*
X304958750Y-90170000D03*
X298608750Y-92710000D03*
D13*
X76200000Y-95250000D03*
D14*
X71120000Y-95250000D03*
X81280000Y-95250000D03*
D15*
X78740000Y-90170000D03*
X72390000Y-92710000D03*
D13*
X76200000Y-57150000D03*
D14*
X71120000Y-57150000D03*
X81280000Y-57150000D03*
D15*
X78740000Y-52070000D03*
X72390000Y-54610000D03*
D13*
X209550000Y-95250000D03*
D14*
X204470000Y-95250000D03*
X214630000Y-95250000D03*
D15*
X212090000Y-90170000D03*
X205740000Y-92710000D03*
D13*
X304800000Y-57150000D03*
D14*
X299720000Y-57150000D03*
X309880000Y-57150000D03*
D15*
X307340000Y-52070000D03*
X300990000Y-54610000D03*
D13*
X228600000Y-38100000D03*
D14*
X223520000Y-38100000D03*
X233680000Y-38100000D03*
D15*
X231140000Y-33020000D03*
X224790000Y-35560000D03*
D13*
X266700000Y-38100000D03*
D14*
X261620000Y-38100000D03*
X271780000Y-38100000D03*
D15*
X269240000Y-33020000D03*
X262890000Y-35560000D03*
D13*
X76200000Y-76200000D03*
D14*
X71120000Y-76200000D03*
X81280000Y-76200000D03*
D15*
X78740000Y-71120000D03*
X72390000Y-73660000D03*
D13*
X285750000Y-38100000D03*
D14*
X280670000Y-38100000D03*
X290830000Y-38100000D03*
D15*
X288290000Y-33020000D03*
X281940000Y-35560000D03*
D17*
X171450000Y-38100000D03*
D13*
X57150000Y-76200000D03*
D14*
X52070000Y-76200000D03*
X62230000Y-76200000D03*
D15*
X59690000Y-71120000D03*
X53340000Y-73660000D03*
D13*
X7143750Y-95250000D03*
X19043750Y-103490000D03*
D16*
X-4756250Y-88250000D03*
D14*
X12223750Y-95250000D03*
X2063750Y-95250000D03*
D16*
X19043750Y-88250000D03*
D13*
X-4756250Y-103490000D03*
D15*
X9683750Y-90170000D03*
X3333750Y-92710000D03*
D13*
X171450000Y-114300000D03*
D14*
X166370000Y-114300000D03*
X176530000Y-114300000D03*
D15*
X173990000Y-109220000D03*
X167640000Y-111760000D03*
D13*
X95250000Y-95250000D03*
D14*
X90170000Y-95250000D03*
X100330000Y-95250000D03*
D15*
X97790000Y-90170000D03*
X91440000Y-92710000D03*
D13*
X190500000Y-76200000D03*
D14*
X185420000Y-76200000D03*
X195580000Y-76200000D03*
D15*
X193040000Y-71120000D03*
X186690000Y-73660000D03*
D13*
X114300000Y-38100000D03*
D14*
X109220000Y-38100000D03*
X119380000Y-38100000D03*
D15*
X116840000Y-33020000D03*
X110490000Y-35560000D03*
D13*
X323850000Y-38100000D03*
D14*
X318770000Y-38100000D03*
X328930000Y-38100000D03*
D15*
X326390000Y-33020000D03*
X320040000Y-35560000D03*
D14*
X25876250Y-114300000D03*
D13*
X30956250Y-114300000D03*
D14*
X36036250Y-114300000D03*
D15*
X33496250Y-109220000D03*
X27146250Y-111760000D03*
D13*
X38100000Y-76200000D03*
D14*
X33020000Y-76200000D03*
X43180000Y-76200000D03*
D15*
X40640000Y-71120000D03*
X34290000Y-73660000D03*
D17*
X-9525000Y-38100000D03*
D13*
X38100000Y-38100000D03*
D14*
X33020000Y-38100000D03*
X43180000Y-38100000D03*
D15*
X40640000Y-33020000D03*
X34290000Y-35560000D03*
D13*
X95250000Y-76200000D03*
D14*
X90170000Y-76200000D03*
X100330000Y-76200000D03*
D15*
X97790000Y-71120000D03*
X91440000Y-73660000D03*
D13*
X285750000Y-76200000D03*
D14*
X280670000Y-76200000D03*
X290830000Y-76200000D03*
D15*
X288290000Y-71120000D03*
X281940000Y-73660000D03*
D14*
X244951250Y-114300000D03*
D13*
X250031250Y-114300000D03*
D14*
X255111250Y-114300000D03*
D15*
X252571250Y-109220000D03*
X246221250Y-111760000D03*
D14*
X16986250Y-76200000D03*
D13*
X11906250Y-76200000D03*
D14*
X6826250Y-76200000D03*
D15*
X14446250Y-71120000D03*
X8096250Y-73660000D03*
D13*
X290512500Y-114300000D03*
D14*
X285432500Y-114300000D03*
X295592500Y-114300000D03*
D15*
X293052500Y-109220000D03*
X286702500Y-111760000D03*
D13*
X95250000Y-57150000D03*
D14*
X90170000Y-57150000D03*
X100330000Y-57150000D03*
D15*
X97790000Y-52070000D03*
X91440000Y-54610000D03*
D13*
X19050000Y-38100000D03*
D14*
X13970000Y-38100000D03*
X24130000Y-38100000D03*
D15*
X21590000Y-33020000D03*
X15240000Y-35560000D03*
D17*
X66675000Y-47625000D03*
D13*
X228600000Y-76200000D03*
D14*
X223520000Y-76200000D03*
X233680000Y-76200000D03*
D15*
X231140000Y-71120000D03*
X224790000Y-73660000D03*
D18*
X147637500Y-121410000D03*
D19*
X147637500Y-113790000D03*
D14*
X202723750Y-114300000D03*
D13*
X197643750Y-114300000D03*
D14*
X192563750Y-114300000D03*
D15*
X200183750Y-109220000D03*
X193833750Y-111760000D03*
D17*
X257175000Y-47625000D03*
D14*
X112236250Y-114300000D03*
D13*
X107156250Y-114300000D03*
D14*
X102076250Y-114300000D03*
D15*
X109696250Y-109220000D03*
X103346250Y-111760000D03*
D13*
X271462500Y-114300000D03*
D14*
X266382500Y-114300000D03*
X276542500Y-114300000D03*
D15*
X274002500Y-109220000D03*
X267652500Y-111760000D03*
D13*
X38100000Y-57150000D03*
D14*
X33020000Y-57150000D03*
X43180000Y-57150000D03*
D15*
X40640000Y-52070000D03*
X34290000Y-54610000D03*
D14*
X2063750Y-114300000D03*
D13*
X7143750Y-114300000D03*
D14*
X12223750Y-114300000D03*
D15*
X9683750Y-109220000D03*
X3333750Y-111760000D03*
D13*
X342900000Y-38100000D03*
D14*
X337820000Y-38100000D03*
X347980000Y-38100000D03*
D15*
X345440000Y-33020000D03*
X339090000Y-35560000D03*
D13*
X228600000Y-95250000D03*
D14*
X223520000Y-95250000D03*
X233680000Y-95250000D03*
D15*
X231140000Y-90170000D03*
X224790000Y-92710000D03*
D13*
X38100000Y-95250000D03*
D14*
X33020000Y-95250000D03*
X43180000Y-95250000D03*
D15*
X40640000Y-90170000D03*
X34290000Y-92710000D03*
D13*
X209550000Y-38100000D03*
D14*
X204470000Y-38100000D03*
X214630000Y-38100000D03*
D15*
X212090000Y-33020000D03*
X205740000Y-35560000D03*
D13*
X285750000Y-57150000D03*
D14*
X280670000Y-57150000D03*
X290830000Y-57150000D03*
D15*
X288290000Y-52070000D03*
X281940000Y-54610000D03*
D13*
X95250000Y-38100000D03*
D14*
X90170000Y-38100000D03*
X100330000Y-38100000D03*
D15*
X97790000Y-33020000D03*
X91440000Y-35560000D03*
D17*
X-9525000Y-114300000D03*
D13*
X76200000Y-38100000D03*
D14*
X71120000Y-38100000D03*
X81280000Y-38100000D03*
D15*
X78740000Y-33020000D03*
X72390000Y-35560000D03*
D13*
X247650000Y-57150000D03*
D14*
X242570000Y-57150000D03*
X252730000Y-57150000D03*
D15*
X250190000Y-52070000D03*
X243840000Y-54610000D03*
D13*
X133350000Y-114300000D03*
D14*
X128270000Y-114300000D03*
X138430000Y-114300000D03*
D15*
X135890000Y-109220000D03*
X129540000Y-111760000D03*
D13*
X209550000Y-76200000D03*
D14*
X204470000Y-76200000D03*
X214630000Y-76200000D03*
D15*
X212090000Y-71120000D03*
X205740000Y-73660000D03*
D17*
X342900000Y-57150000D03*
D13*
X228600000Y-57150000D03*
D14*
X223520000Y-57150000D03*
X233680000Y-57150000D03*
D15*
X231140000Y-52070000D03*
X224790000Y-54610000D03*
D13*
X247650000Y-95250000D03*
D14*
X242570000Y-95250000D03*
X252730000Y-95250000D03*
D15*
X250190000Y-90170000D03*
X243840000Y-92710000D03*
D13*
X14287500Y-57150000D03*
D14*
X19367500Y-57150000D03*
X9207500Y-57150000D03*
D15*
X16827500Y-52070000D03*
X10477500Y-54610000D03*
D13*
X266700000Y-76200000D03*
D14*
X261620000Y-76200000D03*
X271780000Y-76200000D03*
D15*
X269240000Y-71120000D03*
X262890000Y-73660000D03*
D21*
X149000000Y-65225000D03*
X153000000Y-65225000D03*
X151000000Y-65225000D03*
X155000000Y-65225000D03*
D22*
X168000000Y-101725000D03*
X168000000Y-69725000D03*
D23*
X152000000Y-85725000D03*
D22*
X136000000Y-101725000D03*
X136000000Y-69725000D03*
D13*
X114300000Y-57150000D03*
D14*
X109220000Y-57150000D03*
X119380000Y-57150000D03*
D15*
X116840000Y-52070000D03*
X110490000Y-54610000D03*
D13*
X190500000Y-38100000D03*
D14*
X185420000Y-38100000D03*
X195580000Y-38100000D03*
D15*
X193040000Y-33020000D03*
X186690000Y-35560000D03*
D13*
X57150000Y-57150000D03*
D14*
X52070000Y-57150000D03*
X62230000Y-57150000D03*
D15*
X59690000Y-52070000D03*
X53340000Y-54610000D03*
D13*
X309562500Y-114300000D03*
D14*
X304482500Y-114300000D03*
X314642500Y-114300000D03*
D15*
X312102500Y-109220000D03*
X305752500Y-111760000D03*
D18*
X104730500Y-41929000D03*
D19*
X104730500Y-34309000D03*
D18*
X219030500Y-99079000D03*
D19*
X219030500Y-91459000D03*
D18*
X123780500Y-60979000D03*
D19*
X123780500Y-53359000D03*
D18*
X314280500Y-60979000D03*
D19*
X314280500Y-53359000D03*
D18*
X333330500Y-41929000D03*
D19*
X333330500Y-34309000D03*
D18*
X85680500Y-60979000D03*
D19*
X85680500Y-53359000D03*
D18*
X199980500Y-41929000D03*
D19*
X199980500Y-34309000D03*
D18*
X47580500Y-99079000D03*
D19*
X47580500Y-91459000D03*
D18*
X40436750Y-118129000D03*
D19*
X40436750Y-110509000D03*
D18*
X47580500Y-60979000D03*
D19*
X47580500Y-53359000D03*
D18*
X276180500Y-99079000D03*
D19*
X276180500Y-91459000D03*
D18*
X219030500Y-60979000D03*
D19*
X219030500Y-53359000D03*
D18*
X238080500Y-99079000D03*
D19*
X238080500Y-91459000D03*
D18*
X338093000Y-60979000D03*
D19*
X338093000Y-53359000D03*
D18*
X23768000Y-60979000D03*
D19*
X23768000Y-53359000D03*
D18*
X104730500Y-60979000D03*
D19*
X104730500Y-53359000D03*
D18*
X21386750Y-80029000D03*
D19*
X21386750Y-72409000D03*
D18*
X299993000Y-118129000D03*
D19*
X299993000Y-110509000D03*
D18*
X64249250Y-118129000D03*
D19*
X64249250Y-110509000D03*
D18*
X257130500Y-60979000D03*
D19*
X257130500Y-53359000D03*
D18*
X199980500Y-99079000D03*
D19*
X199980500Y-91459000D03*
D18*
X47580500Y-41929000D03*
D19*
X47580500Y-34309000D03*
D18*
X85680500Y-41929000D03*
D19*
X85680500Y-34309000D03*
D18*
X47580500Y-80029000D03*
D19*
X47580500Y-72409000D03*
D18*
X85680500Y-99079000D03*
D19*
X85680500Y-91459000D03*
D18*
X295230500Y-80029000D03*
D19*
X295230500Y-72409000D03*
D18*
X276180500Y-60979000D03*
D19*
X276180500Y-53359000D03*
D18*
X66630500Y-41929000D03*
D19*
X66630500Y-34309000D03*
D18*
X219030500Y-80029000D03*
D19*
X219030500Y-72409000D03*
D18*
X276180500Y-80029000D03*
D19*
X276180500Y-72409000D03*
D18*
X311899250Y-99079000D03*
D19*
X311899250Y-91459000D03*
D18*
X219030500Y-41929000D03*
D19*
X219030500Y-34309000D03*
D18*
X28530500Y-41929000D03*
D19*
X28530500Y-34309000D03*
D18*
X88061750Y-118129000D03*
D19*
X88061750Y-110509000D03*
D18*
X333440000Y-47750000D03*
D19*
X341060000Y-47750000D03*
D18*
X257130500Y-99079000D03*
D19*
X257130500Y-91459000D03*
X326810000Y-104750000D03*
D18*
X319190000Y-104750000D03*
X238080500Y-60979000D03*
D19*
X238080500Y-53359000D03*
D18*
X319043000Y-118129000D03*
D19*
X319043000Y-110509000D03*
D18*
X257130500Y-41929000D03*
D19*
X257130500Y-34309000D03*
D18*
X104730500Y-99079000D03*
D19*
X104730500Y-91459000D03*
D18*
X295230500Y-60979000D03*
D19*
X295230500Y-53359000D03*
D18*
X123780500Y-80029000D03*
D19*
X123780500Y-72409000D03*
D18*
X66630500Y-80029000D03*
D19*
X66630500Y-72409000D03*
D18*
X207124250Y-118129000D03*
D19*
X207124250Y-110509000D03*
D18*
X257130500Y-80029000D03*
D19*
X257130500Y-72409000D03*
D18*
X280943000Y-118129000D03*
D19*
X280943000Y-110509000D03*
D18*
X235699250Y-118129000D03*
D19*
X235699250Y-110509000D03*
D18*
X238080500Y-80029000D03*
D19*
X238080500Y-72409000D03*
D18*
X199980500Y-80029000D03*
D19*
X199980500Y-72409000D03*
D18*
X85680500Y-80029000D03*
D19*
X85680500Y-72409000D03*
D18*
X66630500Y-60979000D03*
D19*
X66630500Y-53359000D03*
D18*
X104730500Y-80029000D03*
D19*
X104730500Y-72409000D03*
D18*
X314280500Y-41929000D03*
D19*
X314280500Y-34309000D03*
D18*
X16624250Y-99079000D03*
D19*
X16624250Y-91459000D03*
D18*
X123780500Y-41929000D03*
D19*
X123780500Y-34309000D03*
D18*
X123780500Y-99079000D03*
D19*
X123780500Y-91459000D03*
D18*
X259511750Y-118129000D03*
D19*
X259511750Y-110509000D03*
D18*
X238080500Y-41929000D03*
D19*
X238080500Y-34309000D03*
D18*
X116636750Y-118129000D03*
D19*
X116636750Y-110509000D03*
D18*
X276180500Y-41929000D03*
D19*
X276180500Y-34309000D03*
D18*
X295230500Y-41929000D03*
D19*
X295230500Y-34309000D03*
D18*
X16624250Y-118129000D03*
D19*
X16624250Y-110509000D03*
D18*
X199980500Y-60979000D03*
D19*
X199980500Y-53359000D03*
D18*
X326186750Y-80029000D03*
D19*
X326186750Y-72409000D03*
D18*
X66630500Y-99079000D03*
D19*
X66630500Y-91459000D03*
%LPD*%
M02*
